<?xml version="1.0" encoding="UTF-8" standalone="no"?><svg xmlns="http://www.w3.org/2000/svg" xmlns:xlink="http://www.w3.org/1999/xlink" contentScriptType="application/ecmascript" contentStyleType="text/css" height="309px" preserveAspectRatio="none" style="width:424px;height:309px;" version="1.1" viewBox="0 0 424 309" width="424px" zoomAndPan="magnify"><defs><filter height="300%" id="fprz4kontz1x9" width="300%" x="-1" y="-1"><feGaussianBlur result="blurOut" stdDeviation="2.0"/><feColorMatrix in="blurOut" result="blurOut2" type="matrix" values="0 0 0 0 0 0 0 0 0 0 0 0 0 0 0 0 0 0 .4 0"/><feOffset dx="4.0" dy="4.0" in="blurOut2" result="blurOut3"/><feBlend in="SourceGraphic" in2="blurOut3" mode="normal"/></filter></defs><g><!--cluster java.lang--><polygon fill="#FFFFFF" filter="url(#fprz4kontz1x9)" points="126,16,201,16,208,38.2969,290,38.2969,290,112,126,112,126,16" style="stroke: #000000; stroke-width: 2.0;"/><line style="stroke: #000000; stroke-width: 2.0;" x1="126" x2="208" y1="38.2969" y2="38.2969"/><text fill="#000000" font-family="sans-serif" font-size="14" font-weight="bold" lengthAdjust="spacingAndGlyphs" textLength="69" x="130" y="30.9951">java.lang</text><!--cluster de.fhro.inf.prg3.a04.collections--><polygon fill="#FFFFFF" filter="url(#fprz4kontz1x9)" points="14,137,269,137,276,159.2969,402,159.2969,402,297,14,297,14,137" style="stroke: #000000; stroke-width: 2.0;"/><line style="stroke: #000000; stroke-width: 2.0;" x1="14" x2="276" y1="159.2969" y2="159.2969"/><text fill="#000000" font-family="sans-serif" font-size="14" font-weight="bold" lengthAdjust="spacingAndGlyphs" textLength="249" x="18" y="151.9951">de.fhro.inf.prg3.a04.collections</text><!--class Iterable--><rect fill="#FEFECE" filter="url(#fprz4kontz1x9)" height="60.8047" id="Iterable" style="stroke: #A80036; stroke-width: 1.5;" width="147" x="134.5" y="43"/><ellipse cx="174.25" cy="59" fill="#B4A7E5" rx="11" ry="11" style="stroke: #A80036; stroke-width: 1.0;"/><path d="M170.1719,54.7656 L170.1719,52.6094 L177.5625,52.6094 L177.5625,54.7656 L175.0938,54.7656 L175.0938,62.8438 L177.5625,62.8438 L177.5625,65 L170.1719,65 L170.1719,62.8438 L172.6406,62.8438 L172.6406,54.7656 L170.1719,54.7656 Z "/><text fill="#000000" font-family="sans-serif" font-size="12" font-style="italic" lengthAdjust="spacingAndGlyphs" textLength="49" x="193.75" y="63.1543">Iterable</text><rect fill="#FFFFFF" height="15.9688" style="stroke: #000000; stroke-width: 1.0; stroke-dasharray: 2.0,2.0;" width="9" x="275.5" y="40"/><text fill="#000000" font-family="sans-serif" font-size="12" font-style="italic" lengthAdjust="spacingAndGlyphs" textLength="7" x="276.5" y="52.1387">T</text><line style="stroke: #A80036; stroke-width: 1.5;" x1="135.5" x2="280.5" y1="75" y2="75"/><line style="stroke: #A80036; stroke-width: 1.5;" x1="135.5" x2="280.5" y1="83" y2="83"/><ellipse cx="145.5" cy="94.9023" fill="#84BE84" rx="3" ry="3" style="stroke: #038048; stroke-width: 1.0;"/><text fill="#000000" font-family="sans-serif" font-size="11" lengthAdjust="spacingAndGlyphs" textLength="121" x="154.5" y="97.2104">Iterator&lt;T&gt; iterator()</text><!--class SimpleList--><rect fill="#FEFECE" filter="url(#fprz4kontz1x9)" height="124.8281" id="SimpleList" style="stroke: #A80036; stroke-width: 1.5;" width="371" x="22.5" y="164"/><ellipse cx="167.25" cy="180" fill="#B4A7E5" rx="11" ry="11" style="stroke: #A80036; stroke-width: 1.0;"/><path d="M163.1719,175.7656 L163.1719,173.6094 L170.5625,173.6094 L170.5625,175.7656 L168.0938,175.7656 L168.0938,183.8438 L170.5625,183.8438 L170.5625,186 L163.1719,186 L163.1719,183.8438 L165.6406,183.8438 L165.6406,175.7656 L163.1719,175.7656 Z "/><text fill="#000000" font-family="sans-serif" font-size="12" font-style="italic" lengthAdjust="spacingAndGlyphs" textLength="62" x="187.75" y="184.1543">SimpleList</text><rect fill="#FFFFFF" height="15.9688" style="stroke: #000000; stroke-width: 1.0; stroke-dasharray: 2.0,2.0;" width="9" x="387.5" y="161"/><text fill="#000000" font-family="sans-serif" font-size="12" font-style="italic" lengthAdjust="spacingAndGlyphs" textLength="7" x="388.5" y="173.1387">T</text><line style="stroke: #A80036; stroke-width: 1.5;" x1="23.5" x2="392.5" y1="196" y2="196"/><line style="stroke: #A80036; stroke-width: 1.5;" x1="23.5" x2="392.5" y1="204" y2="204"/><ellipse cx="33.5" cy="215.9023" fill="#84BE84" rx="3" ry="3" style="stroke: #038048; stroke-width: 1.0;"/><text fill="#000000" font-family="sans-serif" font-size="11" lengthAdjust="spacingAndGlyphs" textLength="69" x="42.5" y="218.2104">add(item: T)</text><ellipse cx="33.5" cy="228.707" fill="#84BE84" rx="3" ry="3" style="stroke: #038048; stroke-width: 1.0;"/><text fill="#000000" font-family="sans-serif" font-size="11" lengthAdjust="spacingAndGlyphs" textLength="64" x="42.5" y="231.0151">addEmpty()</text><ellipse cx="33.5" cy="241.5117" fill="#84BE84" rx="3" ry="3" style="stroke: #038048; stroke-width: 1.0;"/><text fill="#000000" font-family="sans-serif" font-size="11" lengthAdjust="spacingAndGlyphs" textLength="52" x="42.5" y="243.8198">size(): int</text><ellipse cx="33.5" cy="254.3164" fill="#84BE84" rx="3" ry="3" style="stroke: #038048; stroke-width: 1.0;"/><text fill="#000000" font-family="sans-serif" font-size="11" lengthAdjust="spacingAndGlyphs" textLength="270" x="42.5" y="256.6245">default filter(filter: SimpleFilter&lt;T&gt;): SimpleList</text><ellipse cx="33.5" cy="267.1211" fill="#84BE84" rx="3" ry="3" style="stroke: #038048; stroke-width: 1.0;"/><text fill="#000000" font-family="sans-serif" font-size="11" lengthAdjust="spacingAndGlyphs" textLength="345" x="42.5" y="269.4292">default &lt;R&gt; map(Function&lt;T, R&gt; transform): SimpleList&lt;R&gt;</text><ellipse cx="33.5" cy="279.9258" fill="#84BE84" rx="3" ry="3" style="stroke: #038048; stroke-width: 1.0;"/><text fill="#000000" font-family="sans-serif" font-size="11" lengthAdjust="spacingAndGlyphs" textLength="287" x="42.5" y="282.2339">default sort(Comparator&lt;T&gt; cmp): SimpleList&lt;T&gt;</text><!--link Iterable to SimpleList--><path d="M208,124.1129 C208,136.7821 208,150.5251 208,163.7068 " fill="none" id="Iterable-SimpleList" style="stroke: #A80036; stroke-width: 1.0;"/><polygon fill="none" points="201.0001,124.0941,208,104.0941,215.0001,124.0941,201.0001,124.0941" style="stroke: #A80036; stroke-width: 1.0;"/><!--
@startuml

package java.lang {

    interface Iterable<T> {
        +Iterator<T> iterator()
    }
}

package de.fhro.inf.prg3.a04.collections {
    interface SimpleList<T> extends Iterable {
                +add(item: T)
                +addEmpty()
                +size(): int
                +default filter(filter: SimpleFilter<T>): SimpleList
                +default <R> map(Function<T, R> transform): SimpleList<R>
                +default sort(Comparator<T> cmp): SimpleList<T>
            }
}
@enduml

PlantUML version 1.2017.18(Fri Oct 06 18:56:32 CEST 2017)
(GPL source distribution)
Java Runtime: OpenJDK Runtime Environment
JVM: OpenJDK 64-Bit Server VM
Java Version: 1.8.0_144-b01
Operating System: Linux
OS Version: 4.13.8-1-ARCH
Default Encoding: UTF-8
Language: en
Country: US
--></g></svg>