<?xml version="1.0" encoding="UTF-8" standalone="no"?><svg xmlns="http://www.w3.org/2000/svg" xmlns:xlink="http://www.w3.org/1999/xlink" contentScriptType="application/ecmascript" contentStyleType="text/css" height="589px" preserveAspectRatio="none" style="width:687px;height:589px;" version="1.1" viewBox="0 0 687 589" width="687px" zoomAndPan="magnify"><defs><filter height="300%" id="fitiefwssgg5f" width="300%" x="-1" y="-1"><feGaussianBlur result="blurOut" stdDeviation="2.0"/><feColorMatrix in="blurOut" result="blurOut2" type="matrix" values="0 0 0 0 0 0 0 0 0 0 0 0 0 0 0 0 0 0 .4 0"/><feOffset dx="4.0" dy="4.0" in="blurOut2" result="blurOut3"/><feBlend in="SourceGraphic" in2="blurOut3" mode="normal"/></filter></defs><g><!--cluster java.lang--><polygon fill="#FFFFFF" filter="url(#fitiefwssgg5f)" points="52,16,127,16,134,38.2969,380,38.2969,380,125,52,125,52,16" style="stroke: #000000; stroke-width: 2.0;"/><line style="stroke: #000000; stroke-width: 2.0;" x1="52" x2="134" y1="38.2969" y2="38.2969"/><text fill="#000000" font-family="sans-serif" font-size="14" font-weight="bold" lengthAdjust="spacingAndGlyphs" textLength="69" x="56" y="30.9951">java.lang</text><!--cluster de.fhro.inf.prg3.a04.collections--><polygon fill="#FFFFFF" filter="url(#fitiefwssgg5f)" points="14,150,269,150,276,172.2969,665,172.2969,665,577,14,577,14,150" style="stroke: #000000; stroke-width: 2.0;"/><line style="stroke: #000000; stroke-width: 2.0;" x1="14" x2="276" y1="172.2969" y2="172.2969"/><text fill="#000000" font-family="sans-serif" font-size="14" font-weight="bold" lengthAdjust="spacingAndGlyphs" textLength="249" x="18" y="164.9951">de.fhro.inf.prg3.a04.collections</text><!--class Iterable--><rect fill="#FEFECE" filter="url(#fitiefwssgg5f)" height="60.8047" id="Iterable" style="stroke: #A80036; stroke-width: 1.5;" width="147" x="224.5" y="49.5"/><ellipse cx="264.25" cy="65.5" fill="#B4A7E5" rx="11" ry="11" style="stroke: #A80036; stroke-width: 1.0;"/><path d="M260.1719,61.2656 L260.1719,59.1094 L267.5625,59.1094 L267.5625,61.2656 L265.0938,61.2656 L265.0938,69.3438 L267.5625,69.3438 L267.5625,71.5 L260.1719,71.5 L260.1719,69.3438 L262.6406,69.3438 L262.6406,61.2656 L260.1719,61.2656 Z "/><text fill="#000000" font-family="sans-serif" font-size="12" font-style="italic" lengthAdjust="spacingAndGlyphs" textLength="49" x="283.75" y="69.6543">Iterable</text><rect fill="#FFFFFF" height="15.9688" style="stroke: #000000; stroke-width: 1.0; stroke-dasharray: 2.0,2.0;" width="9" x="365.5" y="46.5"/><text fill="#000000" font-family="sans-serif" font-size="12" font-style="italic" lengthAdjust="spacingAndGlyphs" textLength="7" x="366.5" y="58.6387">T</text><line style="stroke: #A80036; stroke-width: 1.5;" x1="225.5" x2="370.5" y1="81.5" y2="81.5"/><line style="stroke: #A80036; stroke-width: 1.5;" x1="225.5" x2="370.5" y1="89.5" y2="89.5"/><ellipse cx="235.5" cy="101.4023" fill="#84BE84" rx="3" ry="3" style="stroke: #038048; stroke-width: 1.0;"/><text fill="#000000" font-family="sans-serif" font-size="11" lengthAdjust="spacingAndGlyphs" textLength="121" x="244.5" y="103.7104">Iterator&lt;T&gt; iterator()</text><!--class Iterator--><rect fill="#FEFECE" filter="url(#fitiefwssgg5f)" height="73.6094" id="Iterator" style="stroke: #A80036; stroke-width: 1.5;" width="129" x="60.5" y="43"/><ellipse cx="92.6" cy="59" fill="#B4A7E5" rx="11" ry="11" style="stroke: #A80036; stroke-width: 1.0;"/><path d="M88.5219,54.7656 L88.5219,52.6094 L95.9125,52.6094 L95.9125,54.7656 L93.4438,54.7656 L93.4438,62.8438 L95.9125,62.8438 L95.9125,65 L88.5219,65 L88.5219,62.8438 L90.9906,62.8438 L90.9906,54.7656 L88.5219,54.7656 Z "/><text fill="#000000" font-family="sans-serif" font-size="12" font-style="italic" lengthAdjust="spacingAndGlyphs" textLength="48" x="110.4" y="63.1543">Iterator</text><rect fill="#FFFFFF" height="15.9688" style="stroke: #000000; stroke-width: 1.0; stroke-dasharray: 2.0,2.0;" width="9" x="183.5" y="40"/><text fill="#000000" font-family="sans-serif" font-size="12" font-style="italic" lengthAdjust="spacingAndGlyphs" textLength="7" x="184.5" y="52.1387">T</text><line style="stroke: #A80036; stroke-width: 1.5;" x1="61.5" x2="188.5" y1="75" y2="75"/><line style="stroke: #A80036; stroke-width: 1.5;" x1="61.5" x2="188.5" y1="83" y2="83"/><ellipse cx="71.5" cy="94.9023" fill="#84BE84" rx="3" ry="3" style="stroke: #038048; stroke-width: 1.0;"/><text fill="#000000" font-family="sans-serif" font-size="11" lengthAdjust="spacingAndGlyphs" textLength="103" x="80.5" y="97.2104">boolean hasNext()</text><ellipse cx="71.5" cy="107.707" fill="#84BE84" rx="3" ry="3" style="stroke: #038048; stroke-width: 1.0;"/><text fill="#000000" font-family="sans-serif" font-size="11" lengthAdjust="spacingAndGlyphs" textLength="43" x="80.5" y="110.0151">T next()</text><!--class SimpleFilter--><rect fill="#FEFECE" filter="url(#fitiefwssgg5f)" height="60.8047" id="SimpleFilter" style="stroke: #A80036; stroke-width: 1.5;" width="167" x="490.5" y="196"/><ellipse cx="528.9" cy="212" fill="#B4A7E5" rx="11" ry="11" style="stroke: #A80036; stroke-width: 1.0;"/><path d="M524.8219,207.7656 L524.8219,205.6094 L532.2125,205.6094 L532.2125,207.7656 L529.7438,207.7656 L529.7438,215.8438 L532.2125,215.8438 L532.2125,218 L524.8219,218 L524.8219,215.8438 L527.2906,215.8438 L527.2906,207.7656 L524.8219,207.7656 Z "/><text fill="#000000" font-family="sans-serif" font-size="12" font-style="italic" lengthAdjust="spacingAndGlyphs" textLength="72" x="548.1" y="216.1543">SimpleFilter</text><rect fill="#FFFFFF" height="15.9688" style="stroke: #000000; stroke-width: 1.0; stroke-dasharray: 2.0,2.0;" width="9" x="651.5" y="193"/><text fill="#000000" font-family="sans-serif" font-size="12" font-style="italic" lengthAdjust="spacingAndGlyphs" textLength="7" x="652.5" y="205.1387">T</text><line style="stroke: #A80036; stroke-width: 1.5;" x1="491.5" x2="656.5" y1="228" y2="228"/><line style="stroke: #A80036; stroke-width: 1.5;" x1="491.5" x2="656.5" y1="236" y2="236"/><ellipse cx="501.5" cy="247.9023" fill="#84BE84" rx="3" ry="3" style="stroke: #038048; stroke-width: 1.0;"/><text fill="#000000" font-family="sans-serif" font-size="11" lengthAdjust="spacingAndGlyphs" textLength="141" x="510.5" y="250.2104">include(item: T): boolean</text><!--class SimpleList--><rect fill="#FEFECE" filter="url(#fitiefwssgg5f)" height="99.2188" id="SimpleList" style="stroke: #A80036; stroke-width: 1.5;" width="253" x="202.5" y="177"/><ellipse cx="288.25" cy="193" fill="#B4A7E5" rx="11" ry="11" style="stroke: #A80036; stroke-width: 1.0;"/><path d="M284.1719,188.7656 L284.1719,186.6094 L291.5625,186.6094 L291.5625,188.7656 L289.0938,188.7656 L289.0938,196.8438 L291.5625,196.8438 L291.5625,199 L284.1719,199 L284.1719,196.8438 L286.6406,196.8438 L286.6406,188.7656 L284.1719,188.7656 Z "/><text fill="#000000" font-family="sans-serif" font-size="12" font-style="italic" lengthAdjust="spacingAndGlyphs" textLength="62" x="308.75" y="197.1543">SimpleList</text><rect fill="#FFFFFF" height="15.9688" style="stroke: #000000; stroke-width: 1.0; stroke-dasharray: 2.0,2.0;" width="9" x="449.5" y="174"/><text fill="#000000" font-family="sans-serif" font-size="12" font-style="italic" lengthAdjust="spacingAndGlyphs" textLength="7" x="450.5" y="186.1387">T</text><line style="stroke: #A80036; stroke-width: 1.5;" x1="203.5" x2="454.5" y1="209" y2="209"/><line style="stroke: #A80036; stroke-width: 1.5;" x1="203.5" x2="454.5" y1="217" y2="217"/><ellipse cx="213.5" cy="228.9023" fill="#84BE84" rx="3" ry="3" style="stroke: #038048; stroke-width: 1.0;"/><text fill="#000000" font-family="sans-serif" font-size="11" lengthAdjust="spacingAndGlyphs" textLength="69" x="222.5" y="231.2104">add(item: T)</text><ellipse cx="213.5" cy="241.707" fill="#84BE84" rx="3" ry="3" style="stroke: #038048; stroke-width: 1.0;"/><text fill="#000000" font-family="sans-serif" font-size="11" lengthAdjust="spacingAndGlyphs" textLength="64" x="222.5" y="244.0151">addEmpty()</text><ellipse cx="213.5" cy="254.5117" fill="#84BE84" rx="3" ry="3" style="stroke: #038048; stroke-width: 1.0;"/><text fill="#000000" font-family="sans-serif" font-size="11" lengthAdjust="spacingAndGlyphs" textLength="52" x="222.5" y="256.8198">size(): int</text><ellipse cx="213.5" cy="267.3164" fill="#84BE84" rx="3" ry="3" style="stroke: #038048; stroke-width: 1.0;"/><text fill="#000000" font-family="sans-serif" font-size="11" lengthAdjust="spacingAndGlyphs" textLength="227" x="222.5" y="269.6245">filter(filter: SimpleFilter&lt;T&gt;): SimpleList</text><!--class SimpleListImpl--><rect fill="#FEFECE" filter="url(#fitiefwssgg5f)" height="60.8047" id="SimpleListImpl" style="stroke: #A80036; stroke-width: 1.5;" width="130" x="264" y="336"/><ellipse cx="279" cy="352" fill="#ADD1B2" rx="11" ry="11" style="stroke: #A80036; stroke-width: 1.0;"/><path d="M281.9688,357.6406 Q281.3906,357.9375 280.75,358.0859 Q280.1094,358.2344 279.4063,358.2344 Q276.9063,358.2344 275.5859,356.5859 Q274.2656,354.9375 274.2656,351.8125 Q274.2656,348.6875 275.5859,347.0313 Q276.9063,345.375 279.4063,345.375 Q280.1094,345.375 280.7578,345.5313 Q281.4063,345.6875 281.9688,345.9844 L281.9688,348.7031 Q281.3438,348.125 280.75,347.8516 Q280.1563,347.5781 279.5313,347.5781 Q278.1875,347.5781 277.5,348.6484 Q276.8125,349.7188 276.8125,351.8125 Q276.8125,353.9063 277.5,354.9766 Q278.1875,356.0469 279.5313,356.0469 Q280.1563,356.0469 280.75,355.7734 Q281.3438,355.5 281.9688,354.9219 L281.9688,357.6406 Z "/><text fill="#000000" font-family="sans-serif" font-size="12" lengthAdjust="spacingAndGlyphs" textLength="87" x="293" y="356.1543">SimpleListImpl</text><rect fill="#FFFFFF" height="15.9688" style="stroke: #000000; stroke-width: 1.0; stroke-dasharray: 2.0,2.0;" width="9" x="388" y="333"/><text fill="#000000" font-family="sans-serif" font-size="12" font-style="italic" lengthAdjust="spacingAndGlyphs" textLength="7" x="389" y="345.1387">T</text><line style="stroke: #A80036; stroke-width: 1.5;" x1="265" x2="393" y1="368" y2="368"/><rect fill="none" height="6" style="stroke: #C82930; stroke-width: 1.0;" width="6" x="272" y="376.9023"/><text fill="#000000" font-family="sans-serif" font-size="11" lengthAdjust="spacingAndGlyphs" textLength="82" x="284" y="382.2104">head: Element</text><line style="stroke: #A80036; stroke-width: 1.5;" x1="265" x2="393" y1="388.8047" y2="388.8047"/><!--class SimpleIteratorImpl--><rect fill="#FEFECE" filter="url(#fitiefwssgg5f)" height="48" id="SimpleIteratorImpl" style="stroke: #A80036; stroke-width: 1.5;" width="145" x="22.5" y="202.5"/><ellipse cx="37.5" cy="218.5" fill="#ADD1B2" rx="11" ry="11" style="stroke: #A80036; stroke-width: 1.0;"/><path d="M40.4688,224.1406 Q39.8906,224.4375 39.25,224.5859 Q38.6094,224.7344 37.9063,224.7344 Q35.4063,224.7344 34.0859,223.0859 Q32.7656,221.4375 32.7656,218.3125 Q32.7656,215.1875 34.0859,213.5313 Q35.4063,211.875 37.9063,211.875 Q38.6094,211.875 39.2578,212.0313 Q39.9063,212.1875 40.4688,212.4844 L40.4688,215.2031 Q39.8438,214.625 39.25,214.3516 Q38.6563,214.0781 38.0313,214.0781 Q36.6875,214.0781 36,215.1484 Q35.3125,216.2188 35.3125,218.3125 Q35.3125,220.4063 36,221.4766 Q36.6875,222.5469 38.0313,222.5469 Q38.6563,222.5469 39.25,222.2734 Q39.8438,222 40.4688,221.4219 L40.4688,224.1406 Z "/><text fill="#000000" font-family="sans-serif" font-size="12" lengthAdjust="spacingAndGlyphs" textLength="113" x="51.5" y="222.6543">SimpleIteratorImpl</text><line style="stroke: #A80036; stroke-width: 1.5;" x1="23.5" x2="166.5" y1="234.5" y2="234.5"/><line style="stroke: #A80036; stroke-width: 1.5;" x1="23.5" x2="166.5" y1="242.5" y2="242.5"/><!--class Element--><rect fill="#FEFECE" filter="url(#fitiefwssgg5f)" height="112.0234" id="Element" style="stroke: #A80036; stroke-width: 1.5;" width="163" x="247.5" y="457"/><ellipse cx="288.6" cy="473" fill="#ADD1B2" rx="11" ry="11" style="stroke: #A80036; stroke-width: 1.0;"/><path d="M291.5688,478.6406 Q290.9906,478.9375 290.35,479.0859 Q289.7094,479.2344 289.0063,479.2344 Q286.5063,479.2344 285.1859,477.5859 Q283.8656,475.9375 283.8656,472.8125 Q283.8656,469.6875 285.1859,468.0313 Q286.5063,466.375 289.0063,466.375 Q289.7094,466.375 290.3578,466.5313 Q291.0063,466.6875 291.5688,466.9844 L291.5688,469.7031 Q290.9438,469.125 290.35,468.8516 Q289.7563,468.5781 289.1313,468.5781 Q287.7875,468.5781 287.1,469.6484 Q286.4125,470.7188 286.4125,472.8125 Q286.4125,474.9063 287.1,475.9766 Q287.7875,477.0469 289.1313,477.0469 Q289.7563,477.0469 290.35,476.7734 Q290.9438,476.5 291.5688,475.9219 L291.5688,478.6406 Z "/><rect fill="#F24D5C" height="6" style="stroke: #C82930; stroke-width: 1.0;" width="6" x="310.4" y="469.5"/><text fill="#000000" font-family="sans-serif" font-size="12" lengthAdjust="spacingAndGlyphs" textLength="51" x="319.4" y="477.1543">Element</text><rect fill="#FFFFFF" height="15.9688" style="stroke: #000000; stroke-width: 1.0; stroke-dasharray: 2.0,2.0;" width="9" x="404.5" y="454"/><text fill="#000000" font-family="sans-serif" font-size="12" font-style="italic" lengthAdjust="spacingAndGlyphs" textLength="7" x="405.5" y="466.1387">T</text><line style="stroke: #A80036; stroke-width: 1.5;" x1="248.5" x2="409.5" y1="489" y2="489"/><rect fill="none" height="6" style="stroke: #C82930; stroke-width: 1.0;" width="6" x="255.5" y="497.9023"/><text fill="#000000" font-family="sans-serif" font-size="11" lengthAdjust="spacingAndGlyphs" textLength="40" x="267.5" y="503.2104">item: T</text><rect fill="none" height="6" style="stroke: #C82930; stroke-width: 1.0;" width="6" x="255.5" y="510.707"/><text fill="#000000" font-family="sans-serif" font-size="11" lengthAdjust="spacingAndGlyphs" textLength="103" x="267.5" y="516.0151">next: Element&lt;T&gt;</text><line style="stroke: #A80036; stroke-width: 1.5;" x1="248.5" x2="409.5" y1="522.6094" y2="522.6094"/><ellipse cx="258.5" cy="534.5117" fill="#84BE84" rx="3" ry="3" style="stroke: #038048; stroke-width: 1.0;"/><text fill="#000000" font-family="sans-serif" font-size="11" lengthAdjust="spacingAndGlyphs" textLength="66" x="267.5" y="536.8198">getItem(): T</text><ellipse cx="258.5" cy="547.3164" fill="#84BE84" rx="3" ry="3" style="stroke: #038048; stroke-width: 1.0;"/><text fill="#000000" font-family="sans-serif" font-size="11" lengthAdjust="spacingAndGlyphs" textLength="130" x="267.5" y="549.6245">getNext(): Element&lt;T&gt;</text><ellipse cx="258.5" cy="560.1211" fill="#84BE84" rx="3" ry="3" style="stroke: #038048; stroke-width: 1.0;"/><text fill="#000000" font-family="sans-serif" font-size="11" lengthAdjust="spacingAndGlyphs" textLength="137" x="267.5" y="562.4292">setNext(e: Element&lt;T&gt;)</text><!--link Iterable to SimpleList--><path d="M308.6567,130.3615 C311.8348,145.3805 315.3148,161.8266 318.4839,176.8028 " fill="none" id="Iterable-SimpleList" style="stroke: #A80036; stroke-width: 1.0;"/><polygon fill="none" points="301.7907,131.7271,304.4986,110.7112,315.4875,128.8288,301.7907,131.7271" style="stroke: #A80036; stroke-width: 1.0;"/><!--link SimpleList to SimpleListImpl--><path d="M329,296.2616 C329,310.0962 329,323.9432 329,335.641 " fill="none" id="SimpleList-SimpleListImpl" style="stroke: #A80036; stroke-width: 1.0; stroke-dasharray: 7.0,7.0;"/><polygon fill="none" points="322.0001,296.253,329,276.253,336.0001,296.2529,322.0001,296.253" style="stroke: #A80036; stroke-width: 1.0;"/><!--link Iterator to SimpleIteratorImpl--><path d="M113.2893,137.187 C108.6733,159.7287 103.6201,184.405 99.9973,202.0964 " fill="none" id="Iterator-SimpleIteratorImpl" style="stroke: #A80036; stroke-width: 1.0; stroke-dasharray: 7.0,7.0;"/><polygon fill="none" points="106.482,135.5363,117.3521,117.3472,120.1974,138.3449,106.482,135.5363" style="stroke: #A80036; stroke-width: 1.0;"/><!--link SimpleListImpl to Element--><path d="M317.0792,412.3375 C316.1856,426.4534 316.0143,442.1566 316.5651,456.8813 " fill="none" id="SimpleListImpl-Element" style="stroke: #A80036; stroke-width: 1.0;"/><ellipse cx="317.7016" cy="405.1811" fill="#FFFFFF" rx="8" ry="8" style="stroke: #A80036; stroke-width: 1.0;"/><line style="stroke: #A80036; stroke-width: 1.0;" x1="317.0082" x2="318.3949" y1="413.151" y2="397.2112"/><line style="stroke: #A80036; stroke-width: 1.0;" x1="309.7317" x2="325.6715" y1="404.4878" y2="405.8744"/><!--link Element to SimpleListImpl--><path d="M342.1663,456.8813 C342.7747,441.5233 342.5512,425.1008 341.4957,410.525 " fill="none" id="Element-SimpleListImpl" style="stroke: #A80036; stroke-width: 1.0;"/><polygon fill="#A80036" points="340.2289,397.2112,336.8153,403.5632,341.3657,409.1572,344.7793,402.8053,340.2289,397.2112" style="stroke: #A80036; stroke-width: 1.0;"/><!--
@startuml
package java.lang {
    
    interface Iterable<T> {
        +Iterator<T> iterator()
    }

    interface Iterator<T> {
        +boolean hasNext()
        +T next()
    }
}

package de.fhro.inf.prg3.a04.collections {
        interface SimpleFilter<T> {
            +include(item: T): boolean
        }

        interface SimpleList<T> extends Iterable {
            +add(item: T)
            +addEmpty()
            +size(): int
            +filter(filter: SimpleFilter<T>): SimpleList
        }

        class SimpleListImpl<T> implements SimpleList {
           -head: Element
        }

        class SimpleIteratorImpl implements Iterator {
        }

        -class Element<T> {
            -item: T
            -next: Element<T>
    
            +getItem(): T
            +getNext(): Element<T>
            +setNext(e: Element<T>)
        }

        SimpleListImpl +- - Element
        Element - -* SimpleListImpl
    }
@enduml

PlantUML version 1.2017.18(Fri Oct 06 18:56:32 CEST 2017)
(GPL source distribution)
Java Runtime: OpenJDK Runtime Environment
JVM: OpenJDK 64-Bit Server VM
Java Version: 1.8.0_144-b01
Operating System: Linux
OS Version: 4.13.8-1-ARCH
Default Encoding: UTF-8
Language: en
Country: US
--></g></svg>