<?xml version="1.0" encoding="UTF-8" standalone="no"?><svg xmlns="http://www.w3.org/2000/svg" xmlns:xlink="http://www.w3.org/1999/xlink" contentScriptType="application/ecmascript" contentStyleType="text/css" height="297px" preserveAspectRatio="none" style="width:829px;height:297px;" version="1.1" viewBox="0 0 829 297" width="829px" zoomAndPan="magnify"><defs><filter height="300%" id="fdu4307yg3d4k" width="300%" x="-1" y="-1"><feGaussianBlur result="blurOut" stdDeviation="2.0"/><feColorMatrix in="blurOut" result="blurOut2" type="matrix" values="0 0 0 0 0 0 0 0 0 0 0 0 0 0 0 0 0 0 .4 0"/><feOffset dx="4.0" dy="4.0" in="blurOut2" result="blurOut3"/><feBlend in="SourceGraphic" in2="blurOut3" mode="normal"/></filter></defs><g><!--cluster java.lang--><polygon fill="#FFFFFF" filter="url(#fdu4307yg3d4k)" points="542,16,611,16,618,38.4883,704,38.4883,704,112,542,112,542,16" style="stroke: #000000; stroke-width: 2.0;"/><line style="stroke: #000000; stroke-width: 2.0;" x1="542" x2="618" y1="38.4883" y2="38.4883"/><text fill="#000000" font-family="sans-serif" font-size="14" font-weight="bold" lengthAdjust="spacingAndGlyphs" textLength="63" x="546" y="31.5352">java.lang</text><!--cluster de.fhro.inf.prg3.a04.collections--><polygon fill="#FFFFFF" filter="url(#fdu4307yg3d4k)" points="14,137,239,137,246,159.4883,807,159.4883,807,285,14,285,14,137" style="stroke: #000000; stroke-width: 2.0;"/><line style="stroke: #000000; stroke-width: 2.0;" x1="14" x2="246" y1="159.4883" y2="159.4883"/><text fill="#000000" font-family="sans-serif" font-size="14" font-weight="bold" lengthAdjust="spacingAndGlyphs" textLength="219" x="18" y="152.5352">de.fhro.inf.prg3.a04.collections</text><!--class Iterable--><rect fill="#FEFECE" filter="url(#fdu4307yg3d4k)" height="60.9551" id="Iterable" style="stroke: #A80036; stroke-width: 1.5;" width="145" x="550.5" y="43"/><ellipse cx="586.2" cy="59" fill="#B4A7E5" rx="11" ry="11" style="stroke: #A80036; stroke-width: 1.0;"/><path d="M582.1277,54.7651 L582.1277,52.6069 L589.5071,52.6069 L589.5071,54.7651 L587.0418,54.7651 L587.0418,62.8418 L589.5071,62.8418 L589.5071,65 L582.1277,65 L582.1277,62.8418 L584.5931,62.8418 L584.5931,54.7651 Z "/><ellipse cx="609.8" cy="58.5" fill="#84BE84" rx="3" ry="3" style="stroke: #038048; stroke-width: 1.0;"/><text fill="#000000" font-family="sans-serif" font-size="12" font-style="italic" lengthAdjust="spacingAndGlyphs" textLength="44" x="615.8" y="63.5352">Iterable</text><rect fill="#FFFFFF" height="16.1328" style="stroke: #000000; stroke-width: 1.0; stroke-dasharray: 2.0,2.0;" width="10" x="688.5" y="40"/><text fill="#000000" font-family="sans-serif" font-size="12" font-style="italic" lengthAdjust="spacingAndGlyphs" textLength="8" x="689.5" y="52.6016">T</text><line style="stroke: #A80036; stroke-width: 1.5;" x1="551.5" x2="694.5" y1="75" y2="75"/><line style="stroke: #A80036; stroke-width: 1.5;" x1="551.5" x2="694.5" y1="83" y2="83"/><ellipse cx="561.5" cy="94.9775" fill="#84BE84" rx="3" ry="3" style="stroke: #038048; stroke-width: 1.0;"/><text fill="#000000" font-family="sans-serif" font-size="11" lengthAdjust="spacingAndGlyphs" textLength="119" x="570.5" y="97.6348">iterator(): Iterator&lt;T&gt;</text><!--class SimpleList--><rect fill="#FEFECE" filter="url(#fdu4307yg3d4k)" height="112.7754" id="SimpleList" style="stroke: #A80036; stroke-width: 1.5;" width="352" x="447" y="164"/><ellipse cx="578.75" cy="180" fill="#B4A7E5" rx="11" ry="11" style="stroke: #A80036; stroke-width: 1.0;"/><path d="M574.6777,175.7651 L574.6777,173.6069 L582.0571,173.6069 L582.0571,175.7651 L579.5918,175.7651 L579.5918,183.8418 L582.0571,183.8418 L582.0571,186 L574.6777,186 L574.6777,183.8418 L577.1431,183.8418 L577.1431,175.7651 Z "/><ellipse cx="604.25" cy="179.5" fill="#84BE84" rx="3" ry="3" style="stroke: #038048; stroke-width: 1.0;"/><text fill="#000000" font-family="sans-serif" font-size="12" font-style="italic" lengthAdjust="spacingAndGlyphs" textLength="57" x="610.25" y="184.5352">SimpleList</text><rect fill="#FFFFFF" height="16.1328" style="stroke: #000000; stroke-width: 1.0; stroke-dasharray: 2.0,2.0;" width="10" x="792" y="161"/><text fill="#000000" font-family="sans-serif" font-size="12" font-style="italic" lengthAdjust="spacingAndGlyphs" textLength="8" x="793" y="173.6016">T</text><line style="stroke: #A80036; stroke-width: 1.5;" x1="448" x2="798" y1="196" y2="196"/><line style="stroke: #A80036; stroke-width: 1.5;" x1="448" x2="798" y1="204" y2="204"/><ellipse cx="458" cy="215.9775" fill="#84BE84" rx="3" ry="3" style="stroke: #038048; stroke-width: 1.0;"/><text fill="#000000" font-family="sans-serif" font-size="11" lengthAdjust="spacingAndGlyphs" textLength="64" x="467" y="218.6348">add(item: T)</text><ellipse cx="458" cy="228.9326" fill="#84BE84" rx="3" ry="3" style="stroke: #038048; stroke-width: 1.0;"/><text fill="#000000" font-family="sans-serif" font-size="11" lengthAdjust="spacingAndGlyphs" textLength="66" x="467" y="231.5898">addDefault()</text><ellipse cx="458" cy="241.8877" fill="#84BE84" rx="3" ry="3" style="stroke: #038048; stroke-width: 1.0;"/><text fill="#000000" font-family="sans-serif" font-size="11" lengthAdjust="spacingAndGlyphs" textLength="49" x="467" y="244.5449">size(): int</text><ellipse cx="458" cy="254.8428" fill="#84BE84" rx="3" ry="3" style="stroke: #038048; stroke-width: 1.0;"/><text fill="#000000" font-family="sans-serif" font-size="11" lengthAdjust="spacingAndGlyphs" textLength="251" x="467" y="257.5">default filter(filter: SimpleFilter&lt;T&gt;): SimpleList</text><ellipse cx="458" cy="267.7979" fill="#84BE84" rx="3" ry="3" style="stroke: #038048; stroke-width: 1.0;"/><text fill="#000000" font-family="sans-serif" font-size="11" lengthAdjust="spacingAndGlyphs" textLength="326" x="467" y="270.4551">default &lt;R&gt; map(Function&lt;T, R&gt; transform): SimpleList&lt;R&gt;</text><!--class CollectionsUtility--><rect fill="#FEFECE" filter="url(#fdu4307yg3d4k)" height="60.9551" id="CollectionsUtility" style="stroke: #A80036; stroke-width: 1.5;" width="389" x="22.5" y="190"/><ellipse cx="161.25" cy="206" fill="#A9DCDF" rx="11" ry="11" style="stroke: #A80036; stroke-width: 1.0;"/><path d="M161.3633,201.3481 L160.2095,206.4199 L162.5254,206.4199 Z M159.8691,199.1069 L162.8657,199.1069 L166.2109,211.5 L163.7622,211.5 L162.9985,208.437 L159.7197,208.437 L158.9727,211.5 L156.5239,211.5 Z "/><ellipse cx="186.75" cy="205.5" fill="#84BE84" rx="3" ry="3" style="stroke: #038048; stroke-width: 1.0;"/><text fill="#000000" font-family="sans-serif" font-size="12" font-style="italic" lengthAdjust="spacingAndGlyphs" textLength="92" x="192.75" y="210.5352">CollectionsUtility</text><line style="stroke: #A80036; stroke-width: 1.5;" x1="23.5" x2="410.5" y1="222" y2="222"/><line style="stroke: #A80036; stroke-width: 1.5;" x1="23.5" x2="410.5" y1="230" y2="230"/><ellipse cx="33.5" cy="241.9775" fill="#84BE84" rx="3" ry="3" style="stroke: #038048; stroke-width: 1.0;"/><text fill="#000000" font-family="sans-serif" font-size="11" lengthAdjust="spacingAndGlyphs" text-decoration="underline" textLength="363" x="42.5" y="244.6348">&lt;T&gt; sort(SimpleList&lt;T&gt; list, Comparator&lt;T&gt; cmp): SimpleList&lt;T&gt;</text><line style="stroke: #000000; stroke-width: 1.0;" x1="42.5" x2="405.5" y1="246.6348" y2="246.6348"/><!--link Iterable to SimpleList--><path d="M623,124.478 C623,137.1997 623,150.9179 623,163.8935 " fill="none" id="Iterable-SimpleList" style="stroke: #A80036; stroke-width: 1.0;"/><polygon fill="none" points="616.0001,124.3161,623,104.316,630.0001,124.316,616.0001,124.3161" style="stroke: #A80036; stroke-width: 1.0;"/><!--
@startuml

package java.lang {

    +interface Iterable<T> {
        +iterator(): Iterator<T>
    }
}

package de.fhro.inf.prg3.a04.collections {
    +interface SimpleList<T> extends Iterable {
        +add(item: T)
        +addDefault()
        +size(): int
        +default filter(filter: SimpleFilter<T>): SimpleList
        +default <R> map(Function<T, R> transform): SimpleList<R>
    }
    +abstract class CollectionsUtility {
        +{static}<T> sort(SimpleList<T> list, Comparator<T> cmp): SimpleList<T>
    }
}
@enduml

PlantUML version 1.2017.16(Sun Sep 03 12:53:37 CEST 2017)
(GPL source distribution)
Java Runtime: Java(TM) SE Runtime Environment
JVM: Java HotSpot(TM) 64-Bit Server VM
Java Version: 1.8.0_144-b01
Operating System: Mac OS X
OS Version: 10.12.6
Default Encoding: UTF-8
Language: en
Country: US
--></g></svg>