<?xml version="1.0" encoding="UTF-8" standalone="no"?><svg xmlns="http://www.w3.org/2000/svg" xmlns:xlink="http://www.w3.org/1999/xlink" contentScriptType="application/ecmascript" contentStyleType="text/css" height="481px" preserveAspectRatio="none" style="width:1212px;height:481px;" version="1.1" viewBox="0 0 1212 481" width="1212px" zoomAndPan="magnify"><defs><filter height="300%" id="f2j1j2w11e8n5" width="300%" x="-1" y="-1"><feGaussianBlur result="blurOut" stdDeviation="2.0"/><feColorMatrix in="blurOut" result="blurOut2" type="matrix" values="0 0 0 0 0 0 0 0 0 0 0 0 0 0 0 0 0 0 .4 0"/><feOffset dx="4.0" dy="4.0" in="blurOut2" result="blurOut3"/><feBlend in="SourceGraphic" in2="blurOut3" mode="normal"/></filter></defs><g><!--cluster java.lang--><polygon fill="#FFFFFF" filter="url(#f2j1j2w11e8n5)" points="14,16,89,16,96,38.2969,342,38.2969,342,125,14,125,14,16" style="stroke: #000000; stroke-width: 2.0;"/><line style="stroke: #000000; stroke-width: 2.0;" x1="14" x2="96" y1="38.2969" y2="38.2969"/><text fill="#000000" font-family="sans-serif" font-size="14" font-weight="bold" lengthAdjust="spacingAndGlyphs" textLength="69" x="18" y="30.9951">java.lang</text><!--cluster de.fhro.inf.prg3.a04--><polygon fill="#FFFFFF" filter="url(#f2j1j2w11e8n5)" points="21,150,186,150,193,172.2969,1190,172.2969,1190,469,21,469,21,150" style="stroke: #000000; stroke-width: 2.0;"/><line style="stroke: #000000; stroke-width: 2.0;" x1="21" x2="193" y1="172.2969" y2="172.2969"/><text fill="#000000" font-family="sans-serif" font-size="14" font-weight="bold" lengthAdjust="spacingAndGlyphs" textLength="159" x="25" y="164.9951">de.fhro.inf.prg3.a04</text><!--class Iterable--><rect fill="#FEFECE" filter="url(#f2j1j2w11e8n5)" height="60.8047" id="Iterable" style="stroke: #A80036; stroke-width: 1.5;" width="147" x="186.5" y="49.5"/><ellipse cx="226.25" cy="65.5" fill="#B4A7E5" rx="11" ry="11" style="stroke: #A80036; stroke-width: 1.0;"/><path d="M222.1719,61.2656 L222.1719,59.1094 L229.5625,59.1094 L229.5625,61.2656 L227.0938,61.2656 L227.0938,69.3438 L229.5625,69.3438 L229.5625,71.5 L222.1719,71.5 L222.1719,69.3438 L224.6406,69.3438 L224.6406,61.2656 L222.1719,61.2656 Z "/><text fill="#000000" font-family="sans-serif" font-size="12" font-style="italic" lengthAdjust="spacingAndGlyphs" textLength="49" x="245.75" y="69.6543">Iterable</text><rect fill="#FFFFFF" height="15.9688" style="stroke: #000000; stroke-width: 1.0; stroke-dasharray: 2.0,2.0;" width="9" x="327.5" y="46.5"/><text fill="#000000" font-family="sans-serif" font-size="12" font-style="italic" lengthAdjust="spacingAndGlyphs" textLength="7" x="328.5" y="58.6387">T</text><line style="stroke: #A80036; stroke-width: 1.5;" x1="187.5" x2="332.5" y1="81.5" y2="81.5"/><line style="stroke: #A80036; stroke-width: 1.5;" x1="187.5" x2="332.5" y1="89.5" y2="89.5"/><ellipse cx="197.5" cy="101.4023" fill="#84BE84" rx="3" ry="3" style="stroke: #038048; stroke-width: 1.0;"/><text fill="#000000" font-family="sans-serif" font-size="11" lengthAdjust="spacingAndGlyphs" textLength="121" x="206.5" y="103.7104">Iterator&lt;T&gt; iterator()</text><!--class Iterator--><rect fill="#FEFECE" filter="url(#f2j1j2w11e8n5)" height="73.6094" id="Iterator" style="stroke: #A80036; stroke-width: 1.5;" width="129" x="22.5" y="43"/><ellipse cx="54.6" cy="59" fill="#B4A7E5" rx="11" ry="11" style="stroke: #A80036; stroke-width: 1.0;"/><path d="M50.5219,54.7656 L50.5219,52.6094 L57.9125,52.6094 L57.9125,54.7656 L55.4438,54.7656 L55.4438,62.8438 L57.9125,62.8438 L57.9125,65 L50.5219,65 L50.5219,62.8438 L52.9906,62.8438 L52.9906,54.7656 L50.5219,54.7656 Z "/><text fill="#000000" font-family="sans-serif" font-size="12" font-style="italic" lengthAdjust="spacingAndGlyphs" textLength="48" x="72.4" y="63.1543">Iterator</text><rect fill="#FFFFFF" height="15.9688" style="stroke: #000000; stroke-width: 1.0; stroke-dasharray: 2.0,2.0;" width="9" x="145.5" y="40"/><text fill="#000000" font-family="sans-serif" font-size="12" font-style="italic" lengthAdjust="spacingAndGlyphs" textLength="7" x="146.5" y="52.1387">T</text><line style="stroke: #A80036; stroke-width: 1.5;" x1="23.5" x2="150.5" y1="75" y2="75"/><line style="stroke: #A80036; stroke-width: 1.5;" x1="23.5" x2="150.5" y1="83" y2="83"/><ellipse cx="33.5" cy="94.9023" fill="#84BE84" rx="3" ry="3" style="stroke: #038048; stroke-width: 1.0;"/><text fill="#000000" font-family="sans-serif" font-size="11" lengthAdjust="spacingAndGlyphs" textLength="103" x="42.5" y="97.2104">boolean hasNext()</text><ellipse cx="33.5" cy="107.707" fill="#84BE84" rx="3" ry="3" style="stroke: #038048; stroke-width: 1.0;"/><text fill="#000000" font-family="sans-serif" font-size="11" lengthAdjust="spacingAndGlyphs" textLength="43" x="42.5" y="110.0151">T next()</text><!--class PlantColor--><rect fill="#FEFECE" filter="url(#f2j1j2w11e8n5)" height="112.0234" id="PlantColor" style="stroke: #A80036; stroke-width: 1.5;" width="96" x="857" y="202.5"/><ellipse cx="872" cy="218.5" fill="#EB937F" rx="11" ry="11" style="stroke: #A80036; stroke-width: 1.0;"/><path d="M876.1094,224.5 L868.3906,224.5 L868.3906,212.1094 L876.1094,212.1094 L876.1094,214.2656 L870.8438,214.2656 L870.8438,216.9375 L875.6094,216.9375 L875.6094,219.0938 L870.8438,219.0938 L870.8438,222.3438 L876.1094,222.3438 L876.1094,224.5 Z "/><text fill="#000000" font-family="sans-serif" font-size="12" lengthAdjust="spacingAndGlyphs" textLength="64" x="886" y="222.6543">PlantColor</text><line style="stroke: #A80036; stroke-width: 1.5;" x1="858" x2="952" y1="234.5" y2="234.5"/><text fill="#000000" font-family="sans-serif" font-size="11" lengthAdjust="spacingAndGlyphs" textLength="26" x="863" y="248.7104">RED,</text><text fill="#000000" font-family="sans-serif" font-size="11" lengthAdjust="spacingAndGlyphs" textLength="48" x="863" y="261.5151">YELLOW,</text><text fill="#000000" font-family="sans-serif" font-size="11" lengthAdjust="spacingAndGlyphs" textLength="33" x="863" y="274.3198">BLUE,</text><text fill="#000000" font-family="sans-serif" font-size="11" lengthAdjust="spacingAndGlyphs" textLength="51" x="863" y="287.1245">ORANGE,</text><text fill="#000000" font-family="sans-serif" font-size="11" lengthAdjust="spacingAndGlyphs" textLength="38" x="863" y="299.9292">GREEN</text><line style="stroke: #A80036; stroke-width: 1.5;" x1="858" x2="952" y1="306.5234" y2="306.5234"/><!--class Plant--><rect fill="#FEFECE" filter="url(#f2j1j2w11e8n5)" height="163.2422" id="Plant" style="stroke: #A80036; stroke-width: 1.5;" width="295" x="526.5" y="177"/><ellipse cx="653.75" cy="193" fill="#ADD1B2" rx="11" ry="11" style="stroke: #A80036; stroke-width: 1.0;"/><path d="M656.7188,198.6406 Q656.1406,198.9375 655.5,199.0859 Q654.8594,199.2344 654.1563,199.2344 Q651.6563,199.2344 650.3359,197.5859 Q649.0156,195.9375 649.0156,192.8125 Q649.0156,189.6875 650.3359,188.0313 Q651.6563,186.375 654.1563,186.375 Q654.8594,186.375 655.5078,186.5313 Q656.1563,186.6875 656.7188,186.9844 L656.7188,189.7031 Q656.0938,189.125 655.5,188.8516 Q654.9063,188.5781 654.2813,188.5781 Q652.9375,188.5781 652.25,189.6484 Q651.5625,190.7188 651.5625,192.8125 Q651.5625,194.9063 652.25,195.9766 Q652.9375,197.0469 654.2813,197.0469 Q654.9063,197.0469 655.5,196.7734 Q656.0938,196.5 656.7188,195.9219 L656.7188,198.6406 Z "/><text fill="#000000" font-family="sans-serif" font-size="12" lengthAdjust="spacingAndGlyphs" textLength="32" x="674.25" y="197.1543">Plant</text><line style="stroke: #A80036; stroke-width: 1.5;" x1="527.5" x2="820.5" y1="209" y2="209"/><rect fill="none" height="6" style="stroke: #C82930; stroke-width: 1.0;" width="6" x="534.5" y="217.9023"/><text fill="#000000" font-family="sans-serif" font-size="11" lengthAdjust="spacingAndGlyphs" text-decoration="underline" textLength="111" x="546.5" y="223.2104">int instanceCounter</text><line style="stroke: #000000; stroke-width: 1.0;" x1="546.5" x2="657.5" y1="225.2104" y2="225.2104"/><rect fill="none" height="6" style="stroke: #C82930; stroke-width: 1.0;" width="6" x="534.5" y="230.707"/><text fill="#000000" font-family="sans-serif" font-size="11" lengthAdjust="spacingAndGlyphs" textLength="28" x="546.5" y="236.0151">int id</text><rect fill="none" height="6" style="stroke: #C82930; stroke-width: 1.0;" width="6" x="534.5" y="243.5117"/><text fill="#000000" font-family="sans-serif" font-size="11" lengthAdjust="spacingAndGlyphs" textLength="81" x="546.5" y="248.8198">double height;</text><rect fill="none" height="6" style="stroke: #C82930; stroke-width: 1.0;" width="6" x="534.5" y="256.3164"/><text fill="#000000" font-family="sans-serif" font-size="11" lengthAdjust="spacingAndGlyphs" textLength="76" x="546.5" y="261.6245">String family;</text><ellipse cx="537.5" cy="272.1211" fill="none" rx="3" ry="3" style="stroke: #038048; stroke-width: 1.0;"/><text fill="#000000" font-family="sans-serif" font-size="11" lengthAdjust="spacingAndGlyphs" textLength="92" x="546.5" y="274.4292">String getFamily</text><line style="stroke: #A80036; stroke-width: 1.5;" x1="527.5" x2="820.5" y1="281.0234" y2="281.0234"/><polygon fill="#FFFF44" points="537.5,287.9258,541.5,291.9258,537.5,295.9258,533.5,291.9258" style="stroke: #B38D22; stroke-width: 1.0;"/><text fill="#000000" font-family="sans-serif" font-size="11" lengthAdjust="spacingAndGlyphs" textLength="269" x="546.5" y="295.2339">Plant(PlantColor c, double height, String family)</text><ellipse cx="537.5" cy="305.7305" fill="#84BE84" rx="3" ry="3" style="stroke: #038048; stroke-width: 1.0;"/><text fill="#000000" font-family="sans-serif" font-size="11" lengthAdjust="spacingAndGlyphs" textLength="169" x="546.5" y="308.0386">abstract PlantColor getColor()</text><ellipse cx="537.5" cy="318.5352" fill="#84BE84" rx="3" ry="3" style="stroke: #038048; stroke-width: 1.0;"/><text fill="#000000" font-family="sans-serif" font-size="11" lengthAdjust="spacingAndGlyphs" textLength="54" x="546.5" y="320.8433">int getId()</text><ellipse cx="537.5" cy="331.3398" fill="#84BE84" rx="3" ry="3" style="stroke: #038048; stroke-width: 1.0;"/><text fill="#000000" font-family="sans-serif" font-size="11" lengthAdjust="spacingAndGlyphs" textLength="104" x="546.5" y="333.6479">double getHeight()</text><!--class Flower--><rect fill="#FEFECE" filter="url(#f2j1j2w11e8n5)" height="60.8047" id="Flower" style="stroke: #A80036; stroke-width: 1.5;" width="144" x="408" y="400"/><ellipse cx="455.75" cy="416" fill="#ADD1B2" rx="11" ry="11" style="stroke: #A80036; stroke-width: 1.0;"/><path d="M458.7188,421.6406 Q458.1406,421.9375 457.5,422.0859 Q456.8594,422.2344 456.1563,422.2344 Q453.6563,422.2344 452.3359,420.5859 Q451.0156,418.9375 451.0156,415.8125 Q451.0156,412.6875 452.3359,411.0313 Q453.6563,409.375 456.1563,409.375 Q456.8594,409.375 457.5078,409.5313 Q458.1563,409.6875 458.7188,409.9844 L458.7188,412.7031 Q458.0938,412.125 457.5,411.8516 Q456.9063,411.5781 456.2813,411.5781 Q454.9375,411.5781 454.25,412.6484 Q453.5625,413.7188 453.5625,415.8125 Q453.5625,417.9063 454.25,418.9766 Q454.9375,420.0469 456.2813,420.0469 Q456.9063,420.0469 457.5,419.7734 Q458.0938,419.5 458.7188,418.9219 L458.7188,421.6406 Z "/><text fill="#000000" font-family="sans-serif" font-size="12" lengthAdjust="spacingAndGlyphs" textLength="40" x="476.25" y="420.1543">Flower</text><line style="stroke: #A80036; stroke-width: 1.5;" x1="409" x2="551" y1="432" y2="432"/><line style="stroke: #A80036; stroke-width: 1.5;" x1="409" x2="551" y1="440" y2="440"/><ellipse cx="419" cy="451.9023" fill="#84BE84" rx="3" ry="3" style="stroke: #038048; stroke-width: 1.0;"/><text fill="#000000" font-family="sans-serif" font-size="11" lengthAdjust="spacingAndGlyphs" textLength="118" x="428" y="454.2104">PlantColor getColor()</text><!--class Shrub--><rect fill="#FEFECE" filter="url(#f2j1j2w11e8n5)" height="60.8047" id="Shrub" style="stroke: #A80036; stroke-width: 1.5;" width="144" x="587" y="400"/><ellipse cx="636.25" cy="416" fill="#ADD1B2" rx="11" ry="11" style="stroke: #A80036; stroke-width: 1.0;"/><path d="M639.2188,421.6406 Q638.6406,421.9375 638,422.0859 Q637.3594,422.2344 636.6563,422.2344 Q634.1563,422.2344 632.8359,420.5859 Q631.5156,418.9375 631.5156,415.8125 Q631.5156,412.6875 632.8359,411.0313 Q634.1563,409.375 636.6563,409.375 Q637.3594,409.375 638.0078,409.5313 Q638.6563,409.6875 639.2188,409.9844 L639.2188,412.7031 Q638.5938,412.125 638,411.8516 Q637.4063,411.5781 636.7813,411.5781 Q635.4375,411.5781 634.75,412.6484 Q634.0625,413.7188 634.0625,415.8125 Q634.0625,417.9063 634.75,418.9766 Q635.4375,420.0469 636.7813,420.0469 Q637.4063,420.0469 638,419.7734 Q638.5938,419.5 639.2188,418.9219 L639.2188,421.6406 Z "/><text fill="#000000" font-family="sans-serif" font-size="12" lengthAdjust="spacingAndGlyphs" textLength="37" x="656.75" y="420.1543">Shrub</text><line style="stroke: #A80036; stroke-width: 1.5;" x1="588" x2="730" y1="432" y2="432"/><line style="stroke: #A80036; stroke-width: 1.5;" x1="588" x2="730" y1="440" y2="440"/><ellipse cx="598" cy="451.9023" fill="#84BE84" rx="3" ry="3" style="stroke: #038048; stroke-width: 1.0;"/><text fill="#000000" font-family="sans-serif" font-size="11" lengthAdjust="spacingAndGlyphs" textLength="118" x="607" y="454.2104">PlantColor getColor()</text><!--class PlantBed--><rect fill="#FEFECE" filter="url(#f2j1j2w11e8n5)" height="99.2188" id="PlantBed" style="stroke: #A80036; stroke-width: 1.5;" width="462" x="29" y="209"/><ellipse cx="177.75" cy="225" fill="#ADD1B2" rx="11" ry="11" style="stroke: #A80036; stroke-width: 1.0;"/><path d="M180.7188,230.6406 Q180.1406,230.9375 179.5,231.0859 Q178.8594,231.2344 178.1563,231.2344 Q175.6563,231.2344 174.3359,229.5859 Q173.0156,227.9375 173.0156,224.8125 Q173.0156,221.6875 174.3359,220.0313 Q175.6563,218.375 178.1563,218.375 Q178.8594,218.375 179.5078,218.5313 Q180.1563,218.6875 180.7188,218.9844 L180.7188,221.7031 Q180.0938,221.125 179.5,220.8516 Q178.9063,220.5781 178.2813,220.5781 Q176.9375,220.5781 176.25,221.6484 Q175.5625,222.7188 175.5625,224.8125 Q175.5625,226.9063 176.25,227.9766 Q176.9375,229.0469 178.2813,229.0469 Q178.9063,229.0469 179.5,228.7734 Q180.0938,228.5 180.7188,227.9219 L180.7188,230.6406 Z "/><text fill="#000000" font-family="sans-serif" font-size="12" lengthAdjust="spacingAndGlyphs" textLength="56" x="198.25" y="229.1543">PlantBed</text><rect fill="#FFFFFF" height="15.9688" style="stroke: #000000; stroke-width: 1.0; stroke-dasharray: 2.0,2.0;" width="98" x="396" y="206"/><text fill="#000000" font-family="sans-serif" font-size="12" font-style="italic" lengthAdjust="spacingAndGlyphs" textLength="96" x="397" y="218.1387">T extends Plant</text><line style="stroke: #A80036; stroke-width: 1.5;" x1="30" x2="490" y1="241" y2="241"/><rect fill="none" height="6" style="stroke: #C82930; stroke-width: 1.0;" width="6" x="37" y="249.9023"/><text fill="#000000" font-family="sans-serif" font-size="11" lengthAdjust="spacingAndGlyphs" textLength="107" x="49" y="255.2104">Element&lt;T&gt; head;</text><line style="stroke: #A80036; stroke-width: 1.5;" x1="30" x2="490" y1="261.8047" y2="261.8047"/><text fill="#000000" font-family="sans-serif" font-size="11" lengthAdjust="spacingAndGlyphs" textLength="294" x="35" y="276.0151">PlantBed&lt;? extends T&gt; filter(SimpleFilter&lt;T&gt; filter)</text><text fill="#000000" font-family="sans-serif" font-size="11" lengthAdjust="spacingAndGlyphs" textLength="450" x="35" y="288.8198">void forEachMatching(SimpleFilter&lt;T&gt; filter, Consumer&lt;? super T&gt; consumer)</text><text fill="#000000" font-family="sans-serif" font-size="11" lengthAdjust="spacingAndGlyphs" textLength="238" x="35" y="301.6245">List&lt;T&gt; getPlantsWithColor(PlantColor pc)</text><!--class Element--><rect fill="#FEFECE" filter="url(#f2j1j2w11e8n5)" height="112.0234" id="Element" style="stroke: #A80036; stroke-width: 1.5;" width="194" x="988" y="202.5"/><ellipse cx="1003" cy="218.5" fill="#ADD1B2" rx="11" ry="11" style="stroke: #A80036; stroke-width: 1.0;"/><path d="M1005.9688,224.1406 Q1005.3906,224.4375 1004.75,224.5859 Q1004.1094,224.7344 1003.4063,224.7344 Q1000.9063,224.7344 999.5859,223.0859 Q998.2656,221.4375 998.2656,218.3125 Q998.2656,215.1875 999.5859,213.5313 Q1000.9063,211.875 1003.4063,211.875 Q1004.1094,211.875 1004.7578,212.0313 Q1005.4063,212.1875 1005.9688,212.4844 L1005.9688,215.2031 Q1005.3438,214.625 1004.75,214.3516 Q1004.1563,214.0781 1003.5313,214.0781 Q1002.1875,214.0781 1001.5,215.1484 Q1000.8125,216.2188 1000.8125,218.3125 Q1000.8125,220.4063 1001.5,221.4766 Q1002.1875,222.5469 1003.5313,222.5469 Q1004.1563,222.5469 1004.75,222.2734 Q1005.3438,222 1005.9688,221.4219 L1005.9688,224.1406 Z "/><rect fill="#F24D5C" height="6" style="stroke: #C82930; stroke-width: 1.0;" width="6" x="1019" y="215"/><text fill="#000000" font-family="sans-serif" font-size="12" lengthAdjust="spacingAndGlyphs" textLength="51" x="1028" y="222.6543">Element</text><rect fill="#FFFFFF" height="15.9688" style="stroke: #000000; stroke-width: 1.0; stroke-dasharray: 2.0,2.0;" width="98" x="1087" y="199.5"/><text fill="#000000" font-family="sans-serif" font-size="12" font-style="italic" lengthAdjust="spacingAndGlyphs" textLength="96" x="1088" y="211.6387">T extends Plant</text><line style="stroke: #A80036; stroke-width: 1.5;" x1="989" x2="1181" y1="234.5" y2="234.5"/><rect fill="none" height="6" style="stroke: #C82930; stroke-width: 1.0;" width="6" x="996" y="243.4023"/><text fill="#000000" font-family="sans-serif" font-size="11" lengthAdjust="spacingAndGlyphs" textLength="36" x="1008" y="248.7104">T item</text><rect fill="none" height="6" style="stroke: #C82930; stroke-width: 1.0;" width="6" x="996" y="256.207"/><text fill="#000000" font-family="sans-serif" font-size="11" lengthAdjust="spacingAndGlyphs" textLength="103" x="1008" y="261.5151">Element&lt;T&gt; next;</text><line style="stroke: #A80036; stroke-width: 1.5;" x1="989" x2="1181" y1="268.1094" y2="268.1094"/><ellipse cx="999" cy="280.0117" fill="#84BE84" rx="3" ry="3" style="stroke: #038048; stroke-width: 1.0;"/><text fill="#000000" font-family="sans-serif" font-size="11" lengthAdjust="spacingAndGlyphs" textLength="62" x="1008" y="282.3198">T getItem()</text><ellipse cx="999" cy="292.8164" fill="#84BE84" rx="3" ry="3" style="stroke: #038048; stroke-width: 1.0;"/><text fill="#000000" font-family="sans-serif" font-size="11" lengthAdjust="spacingAndGlyphs" textLength="126" x="1008" y="295.1245">Element&lt;T&gt; getNext()</text><ellipse cx="999" cy="305.6211" fill="#84BE84" rx="3" ry="3" style="stroke: #038048; stroke-width: 1.0;"/><text fill="#000000" font-family="sans-serif" font-size="11" lengthAdjust="spacingAndGlyphs" textLength="160" x="1008" y="307.9292">void setNext(Element&lt;T&gt; e)</text><!--class PlantUtility--><rect fill="#FEFECE" filter="url(#f2j1j2w11e8n5)" height="60.8047" id="PlantUtility" style="stroke: #A80036; stroke-width: 1.5;" width="416" x="766" y="400"/><ellipse cx="936.75" cy="416" fill="#A9DCDF" rx="11" ry="11" style="stroke: #A80036; stroke-width: 1.0;"/><path d="M936.8594,411.3438 L935.7031,416.4219 L938.0313,416.4219 L936.8594,411.3438 Z M935.375,409.1094 L938.3594,409.1094 L941.7188,421.5 L939.2656,421.5 L938.5,418.4375 L935.2188,418.4375 L934.4688,421.5 L932.0313,421.5 L935.375,409.1094 Z "/><text fill="#000000" font-family="sans-serif" font-size="12" font-style="italic" lengthAdjust="spacingAndGlyphs" textLength="66" x="957.25" y="420.1543">PlantUtility</text><line style="stroke: #A80036; stroke-width: 1.5;" x1="767" x2="1181" y1="432" y2="432"/><line style="stroke: #A80036; stroke-width: 1.5;" x1="767" x2="1181" y1="440" y2="440"/><ellipse cx="777" cy="451.9023" fill="#84BE84" rx="3" ry="3" style="stroke: #038048; stroke-width: 1.0;"/><text fill="#000000" font-family="sans-serif" font-size="11" lengthAdjust="spacingAndGlyphs" text-decoration="underline" textLength="390" x="786" y="454.2104">Map&lt;Color, ? super Plant&gt; splitByColor(PlantBed&lt;T extends Plant&gt;)</text><line style="stroke: #000000; stroke-width: 1.0;" x1="786" x2="1176" y1="456.2104" y2="456.2104"/><!--link Plant to Flower--><path d="M566.6129,353.7092 C547.7122,370.4665 529.3437,386.752 514.4223,399.9813 " fill="none" id="Plant-Flower" style="stroke: #A80036; stroke-width: 1.0;"/><polygon fill="none" points="562.2202,348.2487,581.8293,340.2184,571.5079,358.7243,562.2202,348.2487" style="stroke: #A80036; stroke-width: 1.0;"/><!--link Plant to Shrub--><path d="M665.1351,360.1509 C663.8743,374.6082 662.6667,388.4548 661.6615,399.9813 " fill="none" id="Plant-Shrub" style="stroke: #A80036; stroke-width: 1.0;"/><polygon fill="none" points="658.1622,359.5346,666.8734,340.2184,672.1092,360.7509,658.1622,359.5346" style="stroke: #A80036; stroke-width: 1.0;"/><!--link Iterable to PlantBed--><path d="M260,130.6938 C260,155.138 260,184.3592 260,208.687 " fill="none" id="Iterable-PlantBed" style="stroke: #A80036; stroke-width: 1.0; stroke-dasharray: 7.0,7.0;"/><polygon fill="none" points="253.0001,130.6853,260,110.6852,267.0001,130.6852,253.0001,130.6853" style="stroke: #A80036; stroke-width: 1.0;"/><!--link PlantColor to Element--><!--link PlantColor to PlantUtility--><!--
@startuml
package java.lang {
	
    interface Iterable<T> {
    	+Iterator<T> iterator()
    }

	interface Iterator<T> {
    	+boolean hasNext()
        +T next()
    }
}

package de.fhro.inf.prg3.a04 {
enum PlantColor {
	RED,
    YELLOW,
    BLUE,
    ORANGE,
    GREEN
}

class Plant {
	-{static}int instanceCounter
    -int id
    -double height;
    -String family;
    #Plant(PlantColor c, double height, String family)
    +abstract PlantColor getColor()
    +int getId()
    +double getHeight()
    +String getFamily

}

class Flower extends Plant {
	+PlantColor getColor()
}

class Shrub extends Plant {
	+PlantColor getColor()
}

class PlantBed<T extends Plant> implements Iterable {
	-Element<T> head;

	PlantBed<? extends T> filter(SimpleFilter<T> filter)
    void forEachMatching(SimpleFilter<T> filter, Consumer<? super T> consumer)
    List<T> getPlantsWithColor(PlantColor pc)
}

-class Element<T extends Plant> {
	-T item
    -Element<T> next;
    
    +T getItem()
    +Element<T> getNext()
    +void setNext(Element<T> e)
}

abstract class PlantUtility {
	+{static}Map<Color, ? super Plant> splitByColor(PlantBed<T extends Plant>)
}

}
@enduml

PlantUML version 1.2017.18(Fri Oct 06 18:56:32 CEST 2017)
(GPL source distribution)
Java Runtime: OpenJDK Runtime Environment
JVM: OpenJDK 64-Bit Server VM
Java Version: 1.8.0_144-b01
Operating System: Linux
OS Version: 4.13.5-1-ARCH
Default Encoding: UTF-8
Language: en
Country: US
--></g></svg>