<?xml version="1.0" encoding="UTF-8" standalone="no"?><svg xmlns="http://www.w3.org/2000/svg" xmlns:xlink="http://www.w3.org/1999/xlink" contentScriptType="application/ecmascript" contentStyleType="text/css" height="589px" preserveAspectRatio="none" style="width:662px;height:589px;" version="1.1" viewBox="0 0 662 589" width="662px" zoomAndPan="magnify"><defs><filter height="300%" id="f1jgfa3gpjq6vl" width="300%" x="-1" y="-1"><feGaussianBlur result="blurOut" stdDeviation="2.0"/><feColorMatrix in="blurOut" result="blurOut2" type="matrix" values="0 0 0 0 0 0 0 0 0 0 0 0 0 0 0 0 0 0 .4 0"/><feOffset dx="4.0" dy="4.0" in="blurOut2" result="blurOut3"/><feBlend in="SourceGraphic" in2="blurOut3" mode="normal"/></filter></defs><g><!--cluster java.lang--><polygon fill="#FFFFFF" filter="url(#f1jgfa3gpjq6vl)" points="31,16,106,16,113,38.2969,367,38.2969,367,125,31,125,31,16" style="stroke: #000000; stroke-width: 2.0;"/><line style="stroke: #000000; stroke-width: 2.0;" x1="31" x2="113" y1="38.2969" y2="38.2969"/><text fill="#000000" font-family="sans-serif" font-size="14" font-weight="bold" lengthAdjust="spacingAndGlyphs" textLength="69" x="35" y="30.9951">java.lang</text><!--cluster de.fhro.inf.prg3.a04.collections--><polygon fill="#FFFFFF" filter="url(#f1jgfa3gpjq6vl)" points="14,150,269,150,276,172.2969,640,172.2969,640,577,14,577,14,150" style="stroke: #000000; stroke-width: 2.0;"/><line style="stroke: #000000; stroke-width: 2.0;" x1="14" x2="276" y1="172.2969" y2="172.2969"/><text fill="#000000" font-family="sans-serif" font-size="14" font-weight="bold" lengthAdjust="spacingAndGlyphs" textLength="249" x="18" y="164.9951">de.fhro.inf.prg3.a04.collections</text><!--class Iterable--><rect fill="#FEFECE" filter="url(#f1jgfa3gpjq6vl)" height="60.8047" id="Iterable" style="stroke: #A80036; stroke-width: 1.5;" width="151" x="207.5" y="49.5"/><ellipse cx="249.05" cy="65.5" fill="#B4A7E5" rx="11" ry="11" style="stroke: #A80036; stroke-width: 1.0;"/><path d="M244.9719,61.2656 L244.9719,59.1094 L252.3625,59.1094 L252.3625,61.2656 L249.8938,61.2656 L249.8938,69.3438 L252.3625,69.3438 L252.3625,71.5 L244.9719,71.5 L244.9719,69.3438 L247.4406,69.3438 L247.4406,61.2656 L244.9719,61.2656 Z "/><text fill="#000000" font-family="sans-serif" font-size="12" font-style="italic" lengthAdjust="spacingAndGlyphs" textLength="49" x="268.95" y="69.6543">Iterable</text><rect fill="#FFFFFF" height="15.9688" style="stroke: #000000; stroke-width: 1.0; stroke-dasharray: 2.0,2.0;" width="9" x="352.5" y="46.5"/><text fill="#000000" font-family="sans-serif" font-size="12" font-style="italic" lengthAdjust="spacingAndGlyphs" textLength="7" x="353.5" y="58.6387">T</text><line style="stroke: #A80036; stroke-width: 1.5;" x1="208.5" x2="357.5" y1="81.5" y2="81.5"/><line style="stroke: #A80036; stroke-width: 1.5;" x1="208.5" x2="357.5" y1="89.5" y2="89.5"/><ellipse cx="218.5" cy="101.4023" fill="#84BE84" rx="3" ry="3" style="stroke: #038048; stroke-width: 1.0;"/><text fill="#000000" font-family="sans-serif" font-size="11" lengthAdjust="spacingAndGlyphs" textLength="125" x="227.5" y="103.7104">iterator(): Iterator&lt;T&gt;</text><!--class Iterator--><rect fill="#FEFECE" filter="url(#f1jgfa3gpjq6vl)" height="73.6094" id="Iterator" style="stroke: #A80036; stroke-width: 1.5;" width="133" x="39.5" y="43"/><ellipse cx="73.4" cy="59" fill="#B4A7E5" rx="11" ry="11" style="stroke: #A80036; stroke-width: 1.0;"/><path d="M69.3219,54.7656 L69.3219,52.6094 L76.7125,52.6094 L76.7125,54.7656 L74.2438,54.7656 L74.2438,62.8438 L76.7125,62.8438 L76.7125,65 L69.3219,65 L69.3219,62.8438 L71.7906,62.8438 L71.7906,54.7656 L69.3219,54.7656 Z "/><text fill="#000000" font-family="sans-serif" font-size="12" font-style="italic" lengthAdjust="spacingAndGlyphs" textLength="48" x="91.6" y="63.1543">Iterator</text><rect fill="#FFFFFF" height="15.9688" style="stroke: #000000; stroke-width: 1.0; stroke-dasharray: 2.0,2.0;" width="9" x="166.5" y="40"/><text fill="#000000" font-family="sans-serif" font-size="12" font-style="italic" lengthAdjust="spacingAndGlyphs" textLength="7" x="167.5" y="52.1387">T</text><line style="stroke: #A80036; stroke-width: 1.5;" x1="40.5" x2="171.5" y1="75" y2="75"/><line style="stroke: #A80036; stroke-width: 1.5;" x1="40.5" x2="171.5" y1="83" y2="83"/><ellipse cx="50.5" cy="94.9023" fill="#84BE84" rx="3" ry="3" style="stroke: #038048; stroke-width: 1.0;"/><text fill="#000000" font-family="sans-serif" font-size="11" lengthAdjust="spacingAndGlyphs" textLength="107" x="59.5" y="97.2104">hasNext(): boolean</text><ellipse cx="50.5" cy="107.707" fill="#84BE84" rx="3" ry="3" style="stroke: #038048; stroke-width: 1.0;"/><text fill="#000000" font-family="sans-serif" font-size="11" lengthAdjust="spacingAndGlyphs" textLength="47" x="59.5" y="110.0151">next(): T</text><!--class SimpleFilter--><rect fill="#FEFECE" filter="url(#f1jgfa3gpjq6vl)" height="60.8047" id="SimpleFilter" style="stroke: #A80036; stroke-width: 1.5;" width="167" x="465.5" y="196"/><ellipse cx="503.9" cy="212" fill="#B4A7E5" rx="11" ry="11" style="stroke: #A80036; stroke-width: 1.0;"/><path d="M499.8219,207.7656 L499.8219,205.6094 L507.2125,205.6094 L507.2125,207.7656 L504.7438,207.7656 L504.7438,215.8438 L507.2125,215.8438 L507.2125,218 L499.8219,218 L499.8219,215.8438 L502.2906,215.8438 L502.2906,207.7656 L499.8219,207.7656 Z "/><text fill="#000000" font-family="sans-serif" font-size="12" font-style="italic" lengthAdjust="spacingAndGlyphs" textLength="72" x="523.1" y="216.1543">SimpleFilter</text><rect fill="#FFFFFF" height="15.9688" style="stroke: #000000; stroke-width: 1.0; stroke-dasharray: 2.0,2.0;" width="9" x="626.5" y="193"/><text fill="#000000" font-family="sans-serif" font-size="12" font-style="italic" lengthAdjust="spacingAndGlyphs" textLength="7" x="627.5" y="205.1387">T</text><line style="stroke: #A80036; stroke-width: 1.5;" x1="466.5" x2="631.5" y1="228" y2="228"/><line style="stroke: #A80036; stroke-width: 1.5;" x1="466.5" x2="631.5" y1="236" y2="236"/><ellipse cx="476.5" cy="247.9023" fill="#84BE84" rx="3" ry="3" style="stroke: #038048; stroke-width: 1.0;"/><text fill="#000000" font-family="sans-serif" font-size="11" lengthAdjust="spacingAndGlyphs" textLength="141" x="485.5" y="250.2104">include(item: T): boolean</text><!--class SimpleList--><rect fill="#FEFECE" filter="url(#f1jgfa3gpjq6vl)" height="99.2188" id="SimpleList" style="stroke: #A80036; stroke-width: 1.5;" width="253" x="177.5" y="177"/><ellipse cx="263.25" cy="193" fill="#B4A7E5" rx="11" ry="11" style="stroke: #A80036; stroke-width: 1.0;"/><path d="M259.1719,188.7656 L259.1719,186.6094 L266.5625,186.6094 L266.5625,188.7656 L264.0938,188.7656 L264.0938,196.8438 L266.5625,196.8438 L266.5625,199 L259.1719,199 L259.1719,196.8438 L261.6406,196.8438 L261.6406,188.7656 L259.1719,188.7656 Z "/><text fill="#000000" font-family="sans-serif" font-size="12" font-style="italic" lengthAdjust="spacingAndGlyphs" textLength="62" x="283.75" y="197.1543">SimpleList</text><rect fill="#FFFFFF" height="15.9688" style="stroke: #000000; stroke-width: 1.0; stroke-dasharray: 2.0,2.0;" width="9" x="424.5" y="174"/><text fill="#000000" font-family="sans-serif" font-size="12" font-style="italic" lengthAdjust="spacingAndGlyphs" textLength="7" x="425.5" y="186.1387">T</text><line style="stroke: #A80036; stroke-width: 1.5;" x1="178.5" x2="429.5" y1="209" y2="209"/><line style="stroke: #A80036; stroke-width: 1.5;" x1="178.5" x2="429.5" y1="217" y2="217"/><ellipse cx="188.5" cy="228.9023" fill="#84BE84" rx="3" ry="3" style="stroke: #038048; stroke-width: 1.0;"/><text fill="#000000" font-family="sans-serif" font-size="11" lengthAdjust="spacingAndGlyphs" textLength="69" x="197.5" y="231.2104">add(item: T)</text><ellipse cx="188.5" cy="241.707" fill="#84BE84" rx="3" ry="3" style="stroke: #038048; stroke-width: 1.0;"/><text fill="#000000" font-family="sans-serif" font-size="11" lengthAdjust="spacingAndGlyphs" textLength="69" x="197.5" y="244.0151">addDefault()</text><ellipse cx="188.5" cy="254.5117" fill="#84BE84" rx="3" ry="3" style="stroke: #038048; stroke-width: 1.0;"/><text fill="#000000" font-family="sans-serif" font-size="11" lengthAdjust="spacingAndGlyphs" textLength="52" x="197.5" y="256.8198">size(): int</text><ellipse cx="188.5" cy="267.3164" fill="#84BE84" rx="3" ry="3" style="stroke: #038048; stroke-width: 1.0;"/><text fill="#000000" font-family="sans-serif" font-size="11" lengthAdjust="spacingAndGlyphs" textLength="227" x="197.5" y="269.6245">filter(filter: SimpleFilter&lt;T&gt;): SimpleList</text><!--class SimpleListImpl--><rect fill="#FEFECE" filter="url(#f1jgfa3gpjq6vl)" height="60.8047" id="SimpleListImpl" style="stroke: #A80036; stroke-width: 1.5;" width="130" x="239" y="336"/><ellipse cx="254" cy="352" fill="#ADD1B2" rx="11" ry="11" style="stroke: #A80036; stroke-width: 1.0;"/><path d="M256.9688,357.6406 Q256.3906,357.9375 255.75,358.0859 Q255.1094,358.2344 254.4063,358.2344 Q251.9063,358.2344 250.5859,356.5859 Q249.2656,354.9375 249.2656,351.8125 Q249.2656,348.6875 250.5859,347.0313 Q251.9063,345.375 254.4063,345.375 Q255.1094,345.375 255.7578,345.5313 Q256.4063,345.6875 256.9688,345.9844 L256.9688,348.7031 Q256.3438,348.125 255.75,347.8516 Q255.1563,347.5781 254.5313,347.5781 Q253.1875,347.5781 252.5,348.6484 Q251.8125,349.7188 251.8125,351.8125 Q251.8125,353.9063 252.5,354.9766 Q253.1875,356.0469 254.5313,356.0469 Q255.1563,356.0469 255.75,355.7734 Q256.3438,355.5 256.9688,354.9219 L256.9688,357.6406 Z "/><text fill="#000000" font-family="sans-serif" font-size="12" lengthAdjust="spacingAndGlyphs" textLength="87" x="268" y="356.1543">SimpleListImpl</text><rect fill="#FFFFFF" height="15.9688" style="stroke: #000000; stroke-width: 1.0; stroke-dasharray: 2.0,2.0;" width="9" x="363" y="333"/><text fill="#000000" font-family="sans-serif" font-size="12" font-style="italic" lengthAdjust="spacingAndGlyphs" textLength="7" x="364" y="345.1387">T</text><line style="stroke: #A80036; stroke-width: 1.5;" x1="240" x2="368" y1="368" y2="368"/><rect fill="none" height="6" style="stroke: #C82930; stroke-width: 1.0;" width="6" x="247" y="376.9023"/><text fill="#000000" font-family="sans-serif" font-size="11" lengthAdjust="spacingAndGlyphs" textLength="102" x="259" y="382.2104">head: ListElement</text><line style="stroke: #A80036; stroke-width: 1.5;" x1="240" x2="368" y1="388.8047" y2="388.8047"/><!--class SimpleIterator--><rect fill="#FEFECE" filter="url(#f1jgfa3gpjq6vl)" height="48" id="SimpleIterator" style="stroke: #A80036; stroke-width: 1.5;" width="120" x="22" y="202.5"/><ellipse cx="37" cy="218.5" fill="#ADD1B2" rx="11" ry="11" style="stroke: #A80036; stroke-width: 1.0;"/><path d="M39.9688,224.1406 Q39.3906,224.4375 38.75,224.5859 Q38.1094,224.7344 37.4063,224.7344 Q34.9063,224.7344 33.5859,223.0859 Q32.2656,221.4375 32.2656,218.3125 Q32.2656,215.1875 33.5859,213.5313 Q34.9063,211.875 37.4063,211.875 Q38.1094,211.875 38.7578,212.0313 Q39.4063,212.1875 39.9688,212.4844 L39.9688,215.2031 Q39.3438,214.625 38.75,214.3516 Q38.1563,214.0781 37.5313,214.0781 Q36.1875,214.0781 35.5,215.1484 Q34.8125,216.2188 34.8125,218.3125 Q34.8125,220.4063 35.5,221.4766 Q36.1875,222.5469 37.5313,222.5469 Q38.1563,222.5469 38.75,222.2734 Q39.3438,222 39.9688,221.4219 L39.9688,224.1406 Z "/><text fill="#000000" font-family="sans-serif" font-size="12" lengthAdjust="spacingAndGlyphs" textLength="88" x="51" y="222.6543">SimpleIterator</text><line style="stroke: #A80036; stroke-width: 1.5;" x1="23" x2="141" y1="234.5" y2="234.5"/><line style="stroke: #A80036; stroke-width: 1.5;" x1="23" x2="141" y1="242.5" y2="242.5"/><!--class ListElement--><rect fill="#FEFECE" filter="url(#f1jgfa3gpjq6vl)" height="112.0234" id="ListElement" style="stroke: #A80036; stroke-width: 1.5;" width="183" x="212.5" y="457"/><ellipse cx="253.15" cy="473" fill="#ADD1B2" rx="11" ry="11" style="stroke: #A80036; stroke-width: 1.0;"/><path d="M256.1188,478.6406 Q255.5406,478.9375 254.9,479.0859 Q254.2594,479.2344 253.5563,479.2344 Q251.0563,479.2344 249.7359,477.5859 Q248.4156,475.9375 248.4156,472.8125 Q248.4156,469.6875 249.7359,468.0313 Q251.0563,466.375 253.5563,466.375 Q254.2594,466.375 254.9078,466.5313 Q255.5563,466.6875 256.1188,466.9844 L256.1188,469.7031 Q255.4938,469.125 254.9,468.8516 Q254.3063,468.5781 253.6813,468.5781 Q252.3375,468.5781 251.65,469.6484 Q250.9625,470.7188 250.9625,472.8125 Q250.9625,474.9063 251.65,475.9766 Q252.3375,477.0469 253.6813,477.0469 Q254.3063,477.0469 254.9,476.7734 Q255.4938,476.5 256.1188,475.9219 L256.1188,478.6406 Z "/><rect fill="#F24D5C" height="6" style="stroke: #C82930; stroke-width: 1.0;" width="6" x="274.85" y="469.5"/><text fill="#000000" font-family="sans-serif" font-size="12" lengthAdjust="spacingAndGlyphs" textLength="72" x="283.85" y="477.1543">ListElement</text><rect fill="#FFFFFF" height="15.9688" style="stroke: #000000; stroke-width: 1.0; stroke-dasharray: 2.0,2.0;" width="9" x="389.5" y="454"/><text fill="#000000" font-family="sans-serif" font-size="12" font-style="italic" lengthAdjust="spacingAndGlyphs" textLength="7" x="390.5" y="466.1387">T</text><line style="stroke: #A80036; stroke-width: 1.5;" x1="213.5" x2="394.5" y1="489" y2="489"/><rect fill="none" height="6" style="stroke: #C82930; stroke-width: 1.0;" width="6" x="220.5" y="497.9023"/><text fill="#000000" font-family="sans-serif" font-size="11" lengthAdjust="spacingAndGlyphs" textLength="40" x="232.5" y="503.2104">item: T</text><rect fill="none" height="6" style="stroke: #C82930; stroke-width: 1.0;" width="6" x="220.5" y="510.707"/><text fill="#000000" font-family="sans-serif" font-size="11" lengthAdjust="spacingAndGlyphs" textLength="123" x="232.5" y="516.0151">next: ListElement&lt;T&gt;</text><line style="stroke: #A80036; stroke-width: 1.5;" x1="213.5" x2="394.5" y1="522.6094" y2="522.6094"/><ellipse cx="223.5" cy="534.5117" fill="#84BE84" rx="3" ry="3" style="stroke: #038048; stroke-width: 1.0;"/><text fill="#000000" font-family="sans-serif" font-size="11" lengthAdjust="spacingAndGlyphs" textLength="66" x="232.5" y="536.8198">getItem(): T</text><ellipse cx="223.5" cy="547.3164" fill="#84BE84" rx="3" ry="3" style="stroke: #038048; stroke-width: 1.0;"/><text fill="#000000" font-family="sans-serif" font-size="11" lengthAdjust="spacingAndGlyphs" textLength="150" x="232.5" y="549.6245">getNext(): ListElement&lt;T&gt;</text><ellipse cx="223.5" cy="560.1211" fill="#84BE84" rx="3" ry="3" style="stroke: #038048; stroke-width: 1.0;"/><text fill="#000000" font-family="sans-serif" font-size="11" lengthAdjust="spacingAndGlyphs" textLength="157" x="232.5" y="562.4292">setNext(e: ListElement&lt;T&gt;)</text><!--link Iterable to SimpleList--><path d="M290.256,130.6191 C292.3989,145.5684 294.7417,161.9122 296.8762,176.8028 " fill="none" id="Iterable-SimpleList" style="stroke: #A80036; stroke-width: 1.0;"/><polygon fill="none" points="283.3111,131.5021,287.4023,110.7112,297.1694,129.5155,283.3111,131.5021" style="stroke: #A80036; stroke-width: 1.0;"/><!--link SimpleList to SimpleListImpl--><path d="M304,296.2616 C304,310.0962 304,323.9432 304,335.641 " fill="none" id="SimpleList-SimpleListImpl" style="stroke: #A80036; stroke-width: 1.0; stroke-dasharray: 7.0,7.0;"/><polygon fill="none" points="297.0001,296.253,304,276.253,311.0001,296.2529,297.0001,296.253" style="stroke: #A80036; stroke-width: 1.0;"/><!--link Iterator to SimpleIterator--><path d="M96.6315,137.187 C92.9386,159.7287 88.8961,184.405 85.9979,202.0964 " fill="none" id="Iterator-SimpleIterator" style="stroke: #A80036; stroke-width: 1.0; stroke-dasharray: 7.0,7.0;"/><polygon fill="none" points="89.7403,135.9524,99.8817,117.3472,103.5562,138.2158,89.7403,135.9524" style="stroke: #A80036; stroke-width: 1.0;"/><!--link SimpleListImpl to ListElement--><path d="M292.0792,412.3375 C291.1856,426.4534 291.0143,442.1566 291.5651,456.8813 " fill="none" id="SimpleListImpl-ListElement" style="stroke: #A80036; stroke-width: 1.0;"/><ellipse cx="292.7016" cy="405.1811" fill="#FFFFFF" rx="8" ry="8" style="stroke: #A80036; stroke-width: 1.0;"/><line style="stroke: #A80036; stroke-width: 1.0;" x1="292.0082" x2="293.3949" y1="413.151" y2="397.2112"/><line style="stroke: #A80036; stroke-width: 1.0;" x1="284.7317" x2="300.6715" y1="404.4878" y2="405.8744"/><!--link ListElement to SimpleListImpl--><path d="M317.1663,456.8813 C317.7747,441.5233 317.5512,425.1008 316.4957,410.525 " fill="none" id="ListElement-SimpleListImpl" style="stroke: #A80036; stroke-width: 1.0;"/><polygon fill="#A80036" points="315.2289,397.2112,311.8153,403.5632,316.3657,409.1572,319.7793,402.8053,315.2289,397.2112" style="stroke: #A80036; stroke-width: 1.0;"/><!--
@startuml
package java.lang {
    
    interface Iterable<T> {
        +iterator(): Iterator<T>
    }

    interface Iterator<T> {
        +hasNext(): boolean
        +next(): T
    }
}

package de.fhro.inf.prg3.a04.collections {
        interface SimpleFilter<T> {
            +include(item: T): boolean
        }

        interface SimpleList<T> extends Iterable {
            +add(item: T)
            +addDefault()
            +size(): int
            +filter(filter: SimpleFilter<T>): SimpleList
        }

        class SimpleListImpl<T> implements SimpleList {
           -head: ListElement
        }

        class SimpleIterator implements Iterator {
        }

        -class ListElement<T> {
            -item: T
            -next: ListElement<T>
    
            +getItem(): T
            +getNext(): ListElement<T>
            +setNext(e: ListElement<T>)
        }

        SimpleListImpl +- - ListElement
        ListElement - -* SimpleListImpl
    }
@enduml

PlantUML version 1.2017.18(Fri Oct 06 18:56:32 CEST 2017)
(GPL source distribution)
Java Runtime: OpenJDK Runtime Environment
JVM: OpenJDK 64-Bit Server VM
Java Version: 1.8.0_144-b01
Operating System: Linux
OS Version: 4.13.8-1-ARCH
Default Encoding: UTF-8
Language: en
Country: US
--></g></svg>