<?xml version="1.0" encoding="UTF-8" standalone="no"?><svg xmlns="http://www.w3.org/2000/svg" xmlns:xlink="http://www.w3.org/1999/xlink" contentScriptType="application/ecmascript" contentStyleType="text/css" height="362px" preserveAspectRatio="none" style="width:1062px;height:362px;" version="1.1" viewBox="0 0 1062 362" width="1062px" zoomAndPan="magnify"><defs><filter height="300%" id="f6b8kadwsjqpc" width="300%" x="-1" y="-1"><feGaussianBlur result="blurOut" stdDeviation="2.0"/><feColorMatrix in="blurOut" result="blurOut2" type="matrix" values="0 0 0 0 0 0 0 0 0 0 0 0 0 0 0 0 0 0 .4 0"/><feOffset dx="4.0" dy="4.0" in="blurOut2" result="blurOut3"/><feBlend in="SourceGraphic" in2="blurOut3" mode="normal"/></filter></defs><g><!--cluster de.fhro.inf.prg3.a04.models--><polygon fill="#FFFFFF" filter="url(#f6b8kadwsjqpc)" points="14,16,214,16,221,38.4883,1040,38.4883,1040,350,14,350,14,16" style="stroke: #000000; stroke-width: 2.0;"/><line style="stroke: #000000; stroke-width: 2.0;" x1="14" x2="221" y1="38.4883" y2="38.4883"/><text fill="#000000" font-family="sans-serif" font-size="14" font-weight="bold" lengthAdjust="spacingAndGlyphs" textLength="194" x="18" y="31.5352">de.fhro.inf.prg3.a04.models</text><!--class PlantColor--><rect fill="#FEFECE" filter="url(#f6b8kadwsjqpc)" height="112.7754" id="PlantColor" style="stroke: #A80036; stroke-width: 1.5;" width="90" x="611" y="69"/><ellipse cx="626" cy="85" fill="#EB937F" rx="11" ry="11" style="stroke: #A80036; stroke-width: 1.0;"/><path d="M630.1143,91 L622.3945,91 L622.3945,78.6069 L630.1143,78.6069 L630.1143,80.7651 L624.8433,80.7651 L624.8433,83.438 L629.6162,83.438 L629.6162,85.5962 L624.8433,85.5962 L624.8433,88.8418 L630.1143,88.8418 Z "/><text fill="#000000" font-family="sans-serif" font-size="12" lengthAdjust="spacingAndGlyphs" textLength="58" x="640" y="89.5352">PlantColor</text><line style="stroke: #A80036; stroke-width: 1.5;" x1="612" x2="700" y1="101" y2="101"/><text fill="#000000" font-family="sans-serif" font-size="11" lengthAdjust="spacingAndGlyphs" textLength="24" x="617" y="115.6348">RED,</text><text fill="#000000" font-family="sans-serif" font-size="11" lengthAdjust="spacingAndGlyphs" textLength="46" x="617" y="128.5898">YELLOW,</text><text fill="#000000" font-family="sans-serif" font-size="11" lengthAdjust="spacingAndGlyphs" textLength="29" x="617" y="141.5449">BLUE,</text><text fill="#000000" font-family="sans-serif" font-size="11" lengthAdjust="spacingAndGlyphs" textLength="49" x="617" y="154.5">ORANGE,</text><text fill="#000000" font-family="sans-serif" font-size="11" lengthAdjust="spacingAndGlyphs" textLength="35" x="617" y="167.4551">GREEN</text><line style="stroke: #A80036; stroke-width: 1.5;" x1="612" x2="700" y1="173.7754" y2="173.7754"/><!--class Plant--><rect fill="#FEFECE" filter="url(#f6b8kadwsjqpc)" height="164.5957" id="Plant" style="stroke: #A80036; stroke-width: 1.5;" width="213" x="218.5" y="43"/><ellipse cx="306.75" cy="59" fill="#ADD1B2" rx="11" ry="11" style="stroke: #A80036; stroke-width: 1.0;"/><path d="M309.7231,64.6431 Q309.1421,64.9419 308.5029,65.0913 Q307.8638,65.2407 307.1582,65.2407 Q304.6514,65.2407 303.3315,63.5889 Q302.0117,61.937 302.0117,58.8159 Q302.0117,55.6865 303.3315,54.0347 Q304.6514,52.3828 307.1582,52.3828 Q307.8638,52.3828 308.5112,52.5322 Q309.1587,52.6816 309.7231,52.9805 L309.7231,55.7031 Q309.0923,55.1221 308.4988,54.8523 Q307.9053,54.5825 307.2744,54.5825 Q305.9297,54.5825 305.2449,55.6492 Q304.5601,56.7158 304.5601,58.8159 Q304.5601,60.9077 305.2449,61.9744 Q305.9297,63.041 307.2744,63.041 Q307.9053,63.041 308.4988,62.7712 Q309.0923,62.5015 309.7231,61.9204 Z "/><text fill="#000000" font-family="sans-serif" font-size="12" lengthAdjust="spacingAndGlyphs" textLength="28" x="327.25" y="63.5352">Plant</text><line style="stroke: #A80036; stroke-width: 1.5;" x1="219.5" x2="430.5" y1="75" y2="75"/><rect fill="none" height="6" style="stroke: #C82930; stroke-width: 1.0;" width="6" x="226.5" y="83.9775"/><text fill="#000000" font-family="sans-serif" font-size="11" lengthAdjust="spacingAndGlyphs" text-decoration="underline" textLength="109" x="238.5" y="89.6348">instanceCounter: int</text><line style="stroke: #000000; stroke-width: 1.0;" x1="238.5" x2="347.5" y1="91.6348" y2="91.6348"/><rect fill="none" height="6" style="stroke: #C82930; stroke-width: 1.0;" width="6" x="226.5" y="96.9326"/><text fill="#000000" font-family="sans-serif" font-size="11" lengthAdjust="spacingAndGlyphs" textLength="30" x="238.5" y="102.5898">id: int</text><rect fill="none" height="6" style="stroke: #C82930; stroke-width: 1.0;" width="6" x="226.5" y="109.8877"/><text fill="#000000" font-family="sans-serif" font-size="11" lengthAdjust="spacingAndGlyphs" textLength="77" x="238.5" y="115.5449">height: double</text><rect fill="none" height="6" style="stroke: #C82930; stroke-width: 1.0;" width="6" x="226.5" y="122.8428"/><text fill="#000000" font-family="sans-serif" font-size="11" lengthAdjust="spacingAndGlyphs" textLength="67" x="238.5" y="128.5">family String</text><ellipse cx="229.5" cy="138.7979" fill="none" rx="3" ry="3" style="stroke: #038048; stroke-width: 1.0;"/><text fill="#000000" font-family="sans-serif" font-size="11" lengthAdjust="spacingAndGlyphs" textLength="89" x="238.5" y="141.4551">getFamily: String</text><line style="stroke: #A80036; stroke-width: 1.5;" x1="219.5" x2="430.5" y1="147.7754" y2="147.7754"/><polygon fill="#FFFF44" points="229.5,154.7529,233.5,158.7529,229.5,162.7529,225.5,158.7529" style="stroke: #B38D22; stroke-width: 1.0;"/><text fill="#000000" font-family="sans-serif" font-size="11" lengthAdjust="spacingAndGlyphs" textLength="187" x="238.5" y="162.4102">Plant(height: double, family: String)</text><ellipse cx="229.5" cy="172.708" fill="#84BE84" rx="3" ry="3" style="stroke: #038048; stroke-width: 1.0;"/><text fill="#000000" font-family="sans-serif" font-size="11" lengthAdjust="spacingAndGlyphs" textLength="164" x="238.5" y="175.3652">abstract getColor(): PlantColor</text><ellipse cx="229.5" cy="185.6631" fill="#84BE84" rx="3" ry="3" style="stroke: #038048; stroke-width: 1.0;"/><text fill="#000000" font-family="sans-serif" font-size="11" lengthAdjust="spacingAndGlyphs" textLength="55" x="238.5" y="188.3203">getId(): int</text><ellipse cx="229.5" cy="198.6182" fill="#84BE84" rx="3" ry="3" style="stroke: #038048; stroke-width: 1.0;"/><text fill="#000000" font-family="sans-serif" font-size="11" lengthAdjust="spacingAndGlyphs" textLength="103" x="238.5" y="201.2754">getHeight(): double</text><!--class Flower--><rect fill="#FEFECE" filter="url(#f6b8kadwsjqpc)" height="73.9102" id="Flower" style="stroke: #A80036; stroke-width: 1.5;" width="318" x="22" y="268"/><ellipse cx="158.25" cy="284" fill="#ADD1B2" rx="11" ry="11" style="stroke: #A80036; stroke-width: 1.0;"/><path d="M161.2231,289.6431 Q160.6421,289.9419 160.0029,290.0913 Q159.3638,290.2407 158.6582,290.2407 Q156.1514,290.2407 154.8315,288.5889 Q153.5117,286.937 153.5117,283.8159 Q153.5117,280.6865 154.8315,279.0347 Q156.1514,277.3828 158.6582,277.3828 Q159.3638,277.3828 160.0112,277.5322 Q160.6587,277.6816 161.2231,277.9805 L161.2231,280.7031 Q160.5923,280.1221 159.9988,279.8523 Q159.4053,279.5825 158.7744,279.5825 Q157.4297,279.5825 156.7449,280.6492 Q156.0601,281.7158 156.0601,283.8159 Q156.0601,285.9077 156.7449,286.9744 Q157.4297,288.041 158.7744,288.041 Q159.4053,288.041 159.9988,287.7712 Q160.5923,287.5015 161.2231,286.9204 Z "/><text fill="#000000" font-family="sans-serif" font-size="12" lengthAdjust="spacingAndGlyphs" textLength="37" x="178.75" y="288.5352">Flower</text><line style="stroke: #A80036; stroke-width: 1.5;" x1="23" x2="339" y1="300" y2="300"/><line style="stroke: #A80036; stroke-width: 1.5;" x1="23" x2="339" y1="308" y2="308"/><ellipse cx="33" cy="319.9775" fill="#84BE84" rx="3" ry="3" style="stroke: #038048; stroke-width: 1.0;"/><text fill="#000000" font-family="sans-serif" font-size="11" lengthAdjust="spacingAndGlyphs" textLength="292" x="42" y="322.6348">Flower(height: double, family: String, color: PlantColor)</text><ellipse cx="33" cy="332.9326" fill="#84BE84" rx="3" ry="3" style="stroke: #038048; stroke-width: 1.0;"/><text fill="#000000" font-family="sans-serif" font-size="11" lengthAdjust="spacingAndGlyphs" textLength="117" x="42" y="335.5898">getColor(): PlantColor</text><!--class Shrub--><rect fill="#FEFECE" filter="url(#f6b8kadwsjqpc)" height="73.9102" id="Shrub" style="stroke: #A80036; stroke-width: 1.5;" width="219" x="375.5" y="268"/><ellipse cx="464.25" cy="284" fill="#ADD1B2" rx="11" ry="11" style="stroke: #A80036; stroke-width: 1.0;"/><path d="M467.2231,289.6431 Q466.6421,289.9419 466.0029,290.0913 Q465.3638,290.2407 464.6582,290.2407 Q462.1514,290.2407 460.8315,288.5889 Q459.5117,286.937 459.5117,283.8159 Q459.5117,280.6865 460.8315,279.0347 Q462.1514,277.3828 464.6582,277.3828 Q465.3638,277.3828 466.0112,277.5322 Q466.6587,277.6816 467.2231,277.9805 L467.2231,280.7031 Q466.5923,280.1221 465.9988,279.8523 Q465.4053,279.5825 464.7744,279.5825 Q463.4297,279.5825 462.7449,280.6492 Q462.0601,281.7158 462.0601,283.8159 Q462.0601,285.9077 462.7449,286.9744 Q463.4297,288.041 464.7744,288.041 Q465.4053,288.041 465.9988,287.7712 Q466.5923,287.5015 467.2231,286.9204 Z "/><text fill="#000000" font-family="sans-serif" font-size="12" lengthAdjust="spacingAndGlyphs" textLength="33" x="484.75" y="288.5352">Shrub</text><line style="stroke: #A80036; stroke-width: 1.5;" x1="376.5" x2="593.5" y1="300" y2="300"/><line style="stroke: #A80036; stroke-width: 1.5;" x1="376.5" x2="593.5" y1="308" y2="308"/><ellipse cx="386.5" cy="319.9775" fill="#84BE84" rx="3" ry="3" style="stroke: #038048; stroke-width: 1.0;"/><text fill="#000000" font-family="sans-serif" font-size="11" lengthAdjust="spacingAndGlyphs" textLength="193" x="395.5" y="322.6348">Shrub(height: double, family: String)</text><ellipse cx="386.5" cy="332.9326" fill="#84BE84" rx="3" ry="3" style="stroke: #038048; stroke-width: 1.0;"/><text fill="#000000" font-family="sans-serif" font-size="11" lengthAdjust="spacingAndGlyphs" textLength="117" x="395.5" y="335.5898">getColor(): PlantColor</text><!--class PlantBed--><rect fill="#FEFECE" filter="url(#f6b8kadwsjqpc)" height="99.8203" id="PlantBed" style="stroke: #A80036; stroke-width: 1.5;" width="296" x="736" y="75.5"/><ellipse cx="854.75" cy="91.5" fill="#ADD1B2" rx="11" ry="11" style="stroke: #A80036; stroke-width: 1.0;"/><path d="M857.7231,97.1431 Q857.1421,97.4419 856.5029,97.5913 Q855.8638,97.7407 855.1582,97.7407 Q852.6514,97.7407 851.3315,96.0889 Q850.0117,94.437 850.0117,91.3159 Q850.0117,88.1865 851.3315,86.5347 Q852.6514,84.8828 855.1582,84.8828 Q855.8638,84.8828 856.5112,85.0322 Q857.1587,85.1816 857.7231,85.4805 L857.7231,88.2031 Q857.0923,87.6221 856.4988,87.3523 Q855.9053,87.0825 855.2744,87.0825 Q853.9297,87.0825 853.2449,88.1492 Q852.5601,89.2158 852.5601,91.3159 Q852.5601,93.4077 853.2449,94.4744 Q853.9297,95.541 855.2744,95.541 Q855.9053,95.541 856.4988,95.2712 Q857.0923,95.0015 857.7231,94.4204 Z "/><text fill="#000000" font-family="sans-serif" font-size="12" lengthAdjust="spacingAndGlyphs" textLength="50" x="875.25" y="96.0352">PlantBed</text><line style="stroke: #A80036; stroke-width: 1.5;" x1="737" x2="1031" y1="107.5" y2="107.5"/><rect fill="none" height="6" style="stroke: #C82930; stroke-width: 1.0;" width="6" x="744" y="116.4775"/><text fill="#000000" font-family="sans-serif" font-size="11" lengthAdjust="spacingAndGlyphs" textLength="137" x="756" y="122.1348">plants: SimpleList&lt;Plant&gt;</text><line style="stroke: #A80036; stroke-width: 1.5;" x1="737" x2="1031" y1="128.4551" y2="128.4551"/><ellipse cx="747" cy="140.4326" fill="#84BE84" rx="3" ry="3" style="stroke: #038048; stroke-width: 1.0;"/><text fill="#000000" font-family="sans-serif" font-size="11" lengthAdjust="spacingAndGlyphs" textLength="67" x="756" y="143.0898">add(p: Plant)</text><ellipse cx="747" cy="153.3877" fill="#84BE84" rx="3" ry="3" style="stroke: #038048; stroke-width: 1.0;"/><text fill="#000000" font-family="sans-serif" font-size="11" lengthAdjust="spacingAndGlyphs" textLength="161" x="756" y="156.0449">getPlants(): SimpleList&lt;Plant&gt;</text><ellipse cx="747" cy="166.3428" fill="#84BE84" rx="3" ry="3" style="stroke: #038048; stroke-width: 1.0;"/><text fill="#000000" font-family="sans-serif" font-size="11" lengthAdjust="spacingAndGlyphs" textLength="270" x="756" y="169">getPlantsWithColor(pc: PlantColor): SimpleList&lt;T&gt;</text><!--class PlantUtility--><rect fill="#FEFECE" filter="url(#f6b8kadwsjqpc)" height="60.9551" id="PlantUtility" style="stroke: #A80036; stroke-width: 1.5;" width="402" x="630" y="274.5"/><ellipse cx="797.25" cy="290.5" fill="#A9DCDF" rx="11" ry="11" style="stroke: #A80036; stroke-width: 1.0;"/><path d="M797.3633,285.8481 L796.2095,290.9199 L798.5254,290.9199 Z M795.8691,283.6069 L798.8657,283.6069 L802.2109,296 L799.7622,296 L798.9985,292.937 L795.7197,292.937 L794.9727,296 L792.5239,296 Z "/><text fill="#000000" font-family="sans-serif" font-size="12" font-style="italic" lengthAdjust="spacingAndGlyphs" textLength="59" x="817.75" y="295.0352">PlantUtility</text><line style="stroke: #A80036; stroke-width: 1.5;" x1="631" x2="1031" y1="306.5" y2="306.5"/><line style="stroke: #A80036; stroke-width: 1.5;" x1="631" x2="1031" y1="314.5" y2="314.5"/><ellipse cx="641" cy="326.4775" fill="#84BE84" rx="3" ry="3" style="stroke: #038048; stroke-width: 1.0;"/><text fill="#000000" font-family="sans-serif" font-size="11" lengthAdjust="spacingAndGlyphs" text-decoration="underline" textLength="376" x="650" y="329.1348">splitByColor(plantBed: PlantBed): Map&lt;PlantColor, SimpleList&lt;Plant&gt;&gt;</text><line style="stroke: #000000; stroke-width: 1.0;" x1="650" x2="1026" y1="331.1348" y2="331.1348"/><!--link Plant to Flower--><path d="M246.158,223.7787 C233.6621,239.3553 221.4435,254.5861 211.0262,267.5715 " fill="none" id="Plant-Flower" style="stroke: #A80036; stroke-width: 1.0;"/><polygon fill="none" points="240.7148,219.3773,258.69,208.1572,251.6351,228.1379,240.7148,219.3773" style="stroke: #A80036; stroke-width: 1.0;"/><!--link Plant to Shrub--><path d="M412.1682,223.2918 C426.2035,239.0377 439.9422,254.4508 451.6376,267.5715 " fill="none" id="Plant-Shrub" style="stroke: #A80036; stroke-width: 1.0;"/><polygon fill="none" points="406.7602,227.7448,398.6777,208.1572,417.2111,218.4293,406.7602,227.7448" style="stroke: #A80036; stroke-width: 1.0;"/><!--link PlantColor to PlantBed--><!--link PlantColor to PlantUtility--><!--
@startuml
package de.fhro.inf.prg3.a04.models {
    enum PlantColor {
        RED,
        YELLOW,
        BLUE,
        ORANGE,
        GREEN
    }

    class Plant {
        -{static} instanceCounter: int
        -id: int
        -height: double
        -family String
        #Plant(height: double, family: String)
        +abstract getColor(): PlantColor
        +getId(): int
        +getHeight(): double
        +getFamily: String
    }

    class Flower extends Plant {
        +Flower(height: double, family: String, color: PlantColor)
    	+getColor(): PlantColor
    }

    class Shrub extends Plant {
        +Shrub(height: double, family: String)
    	+getColor(): PlantColor
    }


    class PlantBed {
        -plants: SimpleList<Plant>

        +add(p: Plant)
        +getPlants(): SimpleList<Plant>
        +getPlantsWithColor(pc: PlantColor): SimpleList<T>
    }

    abstract class PlantUtility {
        +{static} splitByColor(plantBed: PlantBed): Map<PlantColor, SimpleList<Plant>> 
    }
}
@enduml

PlantUML version 1.2017.16(Sun Sep 03 12:53:37 CEST 2017)
(GPL source distribution)
Java Runtime: Java(TM) SE Runtime Environment
JVM: Java HotSpot(TM) 64-Bit Server VM
Java Version: 1.8.0_144-b01
Operating System: Mac OS X
OS Version: 10.12.6
Default Encoding: UTF-8
Language: en
Country: US
--></g></svg>