<?xml version="1.0" encoding="UTF-8" standalone="no"?><svg xmlns="http://www.w3.org/2000/svg" xmlns:xlink="http://www.w3.org/1999/xlink" contentScriptType="application/ecmascript" contentStyleType="text/css" height="1084px" preserveAspectRatio="none" style="width:1795px;height:1084px;" version="1.1" viewBox="0 0 1795 1084" width="1795px" zoomAndPan="magnify"><defs><filter height="300%" id="f1niwv2r54yw38" width="300%" x="-1" y="-1"><feGaussianBlur result="blurOut" stdDeviation="2.0"/><feColorMatrix in="blurOut" result="blurOut2" type="matrix" values="0 0 0 0 0 0 0 0 0 0 0 0 0 0 0 0 0 0 .4 0"/><feOffset dx="4.0" dy="4.0" in="blurOut2" result="blurOut3"/><feBlend in="SourceGraphic" in2="blurOut3" mode="normal"/></filter></defs><g><!--cluster java.lang--><polygon fill="#FFFFFF" filter="url(#f1niwv2r54yw38)" points="1216,16,1291,16,1298,38.2969,1544,38.2969,1544,125,1216,125,1216,16" style="stroke: #000000; stroke-width: 2.0;"/><line style="stroke: #000000; stroke-width: 2.0;" x1="1216" x2="1298" y1="38.2969" y2="38.2969"/><text fill="#000000" font-family="sans-serif" font-size="14" font-weight="bold" lengthAdjust="spacingAndGlyphs" textLength="69" x="1220" y="30.9951">java.lang</text><!--cluster de.fhro.inf.prg3.a04--><polygon fill="#FFFFFF" filter="url(#f1niwv2r54yw38)" points="14,156,179,156,186,178.2969,1773,178.2969,1773,1072,14,1072,14,156" style="stroke: #000000; stroke-width: 2.0;"/><line style="stroke: #000000; stroke-width: 2.0;" x1="14" x2="186" y1="178.2969" y2="178.2969"/><text fill="#000000" font-family="sans-serif" font-size="14" font-weight="bold" lengthAdjust="spacingAndGlyphs" textLength="159" x="18" y="170.9951">de.fhro.inf.prg3.a04</text><!--cluster de.fhro.inf.prg3.a04.collections--><polygon fill="#FFFFFF" filter="url(#f1niwv2r54yw38)" points="1121,221.5,1376,221.5,1383,243.7969,1765,243.7969,1765,1064,1121,1064,1121,221.5" style="stroke: #000000; stroke-width: 2.0;"/><line style="stroke: #000000; stroke-width: 2.0;" x1="1121" x2="1383" y1="243.7969" y2="243.7969"/><text fill="#000000" font-family="sans-serif" font-size="14" font-weight="bold" lengthAdjust="spacingAndGlyphs" textLength="249" x="1125" y="236.4951">de.fhro.inf.prg3.a04.collections</text><!--cluster de.fhro.inf.prg3.a04.models--><polygon fill="#FFFFFF" filter="url(#f1niwv2r54yw38)" points="735,183,962,183,969,205.2969,1102,205.2969,1102,689,735,689,735,183" style="stroke: #000000; stroke-width: 2.0;"/><line style="stroke: #000000; stroke-width: 2.0;" x1="735" x2="969" y1="205.2969" y2="205.2969"/><text fill="#000000" font-family="sans-serif" font-size="14" font-weight="bold" lengthAdjust="spacingAndGlyphs" textLength="221" x="739" y="197.9951">de.fhro.inf.prg3.a04.models</text><!--class Iterable--><rect fill="#FEFECE" filter="url(#f1niwv2r54yw38)" height="60.8047" id="Iterable" style="stroke: #A80036; stroke-width: 1.5;" width="147" x="1224.5" y="49.5"/><ellipse cx="1264.25" cy="65.5" fill="#B4A7E5" rx="11" ry="11" style="stroke: #A80036; stroke-width: 1.0;"/><path d="M1260.1719,61.2656 L1260.1719,59.1094 L1267.5625,59.1094 L1267.5625,61.2656 L1265.0938,61.2656 L1265.0938,69.3438 L1267.5625,69.3438 L1267.5625,71.5 L1260.1719,71.5 L1260.1719,69.3438 L1262.6406,69.3438 L1262.6406,61.2656 L1260.1719,61.2656 Z "/><text fill="#000000" font-family="sans-serif" font-size="12" font-style="italic" lengthAdjust="spacingAndGlyphs" textLength="49" x="1283.75" y="69.6543">Iterable</text><rect fill="#FFFFFF" height="15.9688" style="stroke: #000000; stroke-width: 1.0; stroke-dasharray: 2.0,2.0;" width="9" x="1365.5" y="46.5"/><text fill="#000000" font-family="sans-serif" font-size="12" font-style="italic" lengthAdjust="spacingAndGlyphs" textLength="7" x="1366.5" y="58.6387">T</text><line style="stroke: #A80036; stroke-width: 1.5;" x1="1225.5" x2="1370.5" y1="81.5" y2="81.5"/><line style="stroke: #A80036; stroke-width: 1.5;" x1="1225.5" x2="1370.5" y1="89.5" y2="89.5"/><ellipse cx="1235.5" cy="101.4023" fill="#84BE84" rx="3" ry="3" style="stroke: #038048; stroke-width: 1.0;"/><text fill="#000000" font-family="sans-serif" font-size="11" lengthAdjust="spacingAndGlyphs" textLength="121" x="1244.5" y="103.7104">Iterator&lt;T&gt; iterator()</text><!--class Iterator--><rect fill="#FEFECE" filter="url(#f1niwv2r54yw38)" height="73.6094" id="Iterator" style="stroke: #A80036; stroke-width: 1.5;" width="129" x="1406.5" y="43"/><ellipse cx="1438.6" cy="59" fill="#B4A7E5" rx="11" ry="11" style="stroke: #A80036; stroke-width: 1.0;"/><path d="M1434.5219,54.7656 L1434.5219,52.6094 L1441.9125,52.6094 L1441.9125,54.7656 L1439.4438,54.7656 L1439.4438,62.8438 L1441.9125,62.8438 L1441.9125,65 L1434.5219,65 L1434.5219,62.8438 L1436.9906,62.8438 L1436.9906,54.7656 L1434.5219,54.7656 Z "/><text fill="#000000" font-family="sans-serif" font-size="12" font-style="italic" lengthAdjust="spacingAndGlyphs" textLength="48" x="1456.4" y="63.1543">Iterator</text><rect fill="#FFFFFF" height="15.9688" style="stroke: #000000; stroke-width: 1.0; stroke-dasharray: 2.0,2.0;" width="9" x="1529.5" y="40"/><text fill="#000000" font-family="sans-serif" font-size="12" font-style="italic" lengthAdjust="spacingAndGlyphs" textLength="7" x="1530.5" y="52.1387">T</text><line style="stroke: #A80036; stroke-width: 1.5;" x1="1407.5" x2="1534.5" y1="75" y2="75"/><line style="stroke: #A80036; stroke-width: 1.5;" x1="1407.5" x2="1534.5" y1="83" y2="83"/><ellipse cx="1417.5" cy="94.9023" fill="#84BE84" rx="3" ry="3" style="stroke: #038048; stroke-width: 1.0;"/><text fill="#000000" font-family="sans-serif" font-size="11" lengthAdjust="spacingAndGlyphs" textLength="103" x="1426.5" y="97.2104">boolean hasNext()</text><ellipse cx="1417.5" cy="107.707" fill="#84BE84" rx="3" ry="3" style="stroke: #038048; stroke-width: 1.0;"/><text fill="#000000" font-family="sans-serif" font-size="11" lengthAdjust="spacingAndGlyphs" textLength="43" x="1426.5" y="110.0151">T next()</text><!--class PlantBed--><rect fill="#FEFECE" filter="url(#f1niwv2r54yw38)" height="112.0234" id="PlantBed" style="stroke: #A80036; stroke-width: 1.5;" width="307" x="401.5" y="235.5"/><ellipse cx="522.75" cy="251.5" fill="#ADD1B2" rx="11" ry="11" style="stroke: #A80036; stroke-width: 1.0;"/><path d="M525.7188,257.1406 Q525.1406,257.4375 524.5,257.5859 Q523.8594,257.7344 523.1563,257.7344 Q520.6563,257.7344 519.3359,256.0859 Q518.0156,254.4375 518.0156,251.3125 Q518.0156,248.1875 519.3359,246.5313 Q520.6563,244.875 523.1563,244.875 Q523.8594,244.875 524.5078,245.0313 Q525.1563,245.1875 525.7188,245.4844 L525.7188,248.2031 Q525.0938,247.625 524.5,247.3516 Q523.9063,247.0781 523.2813,247.0781 Q521.9375,247.0781 521.25,248.1484 Q520.5625,249.2188 520.5625,251.3125 Q520.5625,253.4063 521.25,254.4766 Q521.9375,255.5469 523.2813,255.5469 Q523.9063,255.5469 524.5,255.2734 Q525.0938,255 525.7188,254.4219 L525.7188,257.1406 Z "/><text fill="#000000" font-family="sans-serif" font-size="12" lengthAdjust="spacingAndGlyphs" textLength="56" x="543.25" y="255.6543">PlantBed</text><line style="stroke: #A80036; stroke-width: 1.5;" x1="402.5" x2="707.5" y1="267.5" y2="267.5"/><rect fill="none" height="6" style="stroke: #C82930; stroke-width: 1.0;" width="6" x="409.5" y="276.4023"/><text fill="#000000" font-family="sans-serif" font-size="11" lengthAdjust="spacingAndGlyphs" textLength="148" x="421.5" y="281.7104">plants: SimpleList&lt;Plant&gt;</text><line style="stroke: #A80036; stroke-width: 1.5;" x1="402.5" x2="707.5" y1="288.3047" y2="288.3047"/><ellipse cx="412.5" cy="300.207" fill="#84BE84" rx="3" ry="3" style="stroke: #038048; stroke-width: 1.0;"/><text fill="#000000" font-family="sans-serif" font-size="11" lengthAdjust="spacingAndGlyphs" textLength="68" x="421.5" y="302.5151">add(Plant p)</text><ellipse cx="412.5" cy="313.0117" fill="#84BE84" rx="3" ry="3" style="stroke: #038048; stroke-width: 1.0;"/><text fill="#000000" font-family="sans-serif" font-size="11" lengthAdjust="spacingAndGlyphs" textLength="174" x="421.5" y="315.3198">getPlants(): SimpleList&lt;Plant&gt;</text><ellipse cx="412.5" cy="325.8164" fill="#84BE84" rx="3" ry="3" style="stroke: #038048; stroke-width: 1.0;"/><text fill="#000000" font-family="sans-serif" font-size="11" lengthAdjust="spacingAndGlyphs" textLength="281" x="421.5" y="328.1245">getPlantsWithColor(PlantColor pc): SimpleList&lt;T&gt;</text><ellipse cx="412.5" cy="338.6211" fill="#84BE84" rx="3" ry="3" style="stroke: #038048; stroke-width: 1.0;"/><text fill="#000000" font-family="sans-serif" font-size="11" lengthAdjust="spacingAndGlyphs" textLength="64" x="421.5" y="340.9292">addEmpty()</text><!--class PlantUtility--><rect fill="#FEFECE" filter="url(#f1niwv2r54yw38)" height="60.8047" id="PlantUtility" style="stroke: #A80036; stroke-width: 1.5;" width="345" x="21.5" y="261"/><ellipse cx="156.75" cy="277" fill="#A9DCDF" rx="11" ry="11" style="stroke: #A80036; stroke-width: 1.0;"/><path d="M156.8594,272.3438 L155.7031,277.4219 L158.0313,277.4219 L156.8594,272.3438 Z M155.375,270.1094 L158.3594,270.1094 L161.7188,282.5 L159.2656,282.5 L158.5,279.4375 L155.2188,279.4375 L154.4688,282.5 L152.0313,282.5 L155.375,270.1094 Z "/><text fill="#000000" font-family="sans-serif" font-size="12" font-style="italic" lengthAdjust="spacingAndGlyphs" textLength="66" x="177.25" y="281.1543">PlantUtility</text><line style="stroke: #A80036; stroke-width: 1.5;" x1="22.5" x2="365.5" y1="293" y2="293"/><line style="stroke: #A80036; stroke-width: 1.5;" x1="22.5" x2="365.5" y1="301" y2="301"/><ellipse cx="32.5" cy="312.9023" fill="#84BE84" rx="3" ry="3" style="stroke: #038048; stroke-width: 1.0;"/><text fill="#000000" font-family="sans-serif" font-size="11" lengthAdjust="spacingAndGlyphs" text-decoration="underline" textLength="319" x="41.5" y="315.2104">splitByColor(PlantBed plantBed): Map&lt;PlantColor,Plant&gt;</text><line style="stroke: #000000; stroke-width: 1.0;" x1="41.5" x2="360.5" y1="317.2104" y2="317.2104"/><!--class SimpleFilter--><rect fill="#FEFECE" filter="url(#f1niwv2r54yw38)" height="60.8047" id="SimpleFilter" style="stroke: #A80036; stroke-width: 1.5;" width="163" x="1593.5" y="261"/><ellipse cx="1630.1" cy="277" fill="#B4A7E5" rx="11" ry="11" style="stroke: #A80036; stroke-width: 1.0;"/><path d="M1626.0219,272.7656 L1626.0219,270.6094 L1633.4125,270.6094 L1633.4125,272.7656 L1630.9438,272.7656 L1630.9438,280.8438 L1633.4125,280.8438 L1633.4125,283 L1626.0219,283 L1626.0219,280.8438 L1628.4906,280.8438 L1628.4906,272.7656 L1626.0219,272.7656 Z "/><text fill="#000000" font-family="sans-serif" font-size="12" font-style="italic" lengthAdjust="spacingAndGlyphs" textLength="72" x="1648.9" y="281.1543">SimpleFilter</text><rect fill="#FFFFFF" height="15.9688" style="stroke: #000000; stroke-width: 1.0; stroke-dasharray: 2.0,2.0;" width="9" x="1750.5" y="258"/><text fill="#000000" font-family="sans-serif" font-size="12" font-style="italic" lengthAdjust="spacingAndGlyphs" textLength="7" x="1751.5" y="270.1387">T</text><line style="stroke: #A80036; stroke-width: 1.5;" x1="1594.5" x2="1755.5" y1="293" y2="293"/><line style="stroke: #A80036; stroke-width: 1.5;" x1="1594.5" x2="1755.5" y1="301" y2="301"/><ellipse cx="1604.5" cy="312.9023" fill="#84BE84" rx="3" ry="3" style="stroke: #038048; stroke-width: 1.0;"/><text fill="#000000" font-family="sans-serif" font-size="11" lengthAdjust="spacingAndGlyphs" textLength="137" x="1613.5" y="315.2104">include(T item): boolean</text><!--class SimpleList--><rect fill="#FEFECE" filter="url(#f1niwv2r54yw38)" height="86.4141" id="SimpleList" style="stroke: #A80036; stroke-width: 1.5;" width="249" x="1129.5" y="248.5"/><ellipse cx="1213.25" cy="264.5" fill="#B4A7E5" rx="11" ry="11" style="stroke: #A80036; stroke-width: 1.0;"/><path d="M1209.1719,260.2656 L1209.1719,258.1094 L1216.5625,258.1094 L1216.5625,260.2656 L1214.0938,260.2656 L1214.0938,268.3438 L1216.5625,268.3438 L1216.5625,270.5 L1209.1719,270.5 L1209.1719,268.3438 L1211.6406,268.3438 L1211.6406,260.2656 L1209.1719,260.2656 Z "/><text fill="#000000" font-family="sans-serif" font-size="12" font-style="italic" lengthAdjust="spacingAndGlyphs" textLength="62" x="1233.75" y="268.6543">SimpleList</text><rect fill="#FFFFFF" height="15.9688" style="stroke: #000000; stroke-width: 1.0; stroke-dasharray: 2.0,2.0;" width="9" x="1372.5" y="245.5"/><text fill="#000000" font-family="sans-serif" font-size="12" font-style="italic" lengthAdjust="spacingAndGlyphs" textLength="7" x="1373.5" y="257.6387">T</text><line style="stroke: #A80036; stroke-width: 1.5;" x1="1130.5" x2="1377.5" y1="280.5" y2="280.5"/><line style="stroke: #A80036; stroke-width: 1.5;" x1="1130.5" x2="1377.5" y1="288.5" y2="288.5"/><ellipse cx="1140.5" cy="300.4023" fill="#84BE84" rx="3" ry="3" style="stroke: #038048; stroke-width: 1.0;"/><text fill="#000000" font-family="sans-serif" font-size="11" lengthAdjust="spacingAndGlyphs" textLength="65" x="1149.5" y="302.7104">add(T item)</text><ellipse cx="1140.5" cy="313.207" fill="#84BE84" rx="3" ry="3" style="stroke: #038048; stroke-width: 1.0;"/><text fill="#000000" font-family="sans-serif" font-size="11" lengthAdjust="spacingAndGlyphs" textLength="52" x="1149.5" y="315.5151">size(): int</text><ellipse cx="1140.5" cy="326.0117" fill="#84BE84" rx="3" ry="3" style="stroke: #038048; stroke-width: 1.0;"/><text fill="#000000" font-family="sans-serif" font-size="11" lengthAdjust="spacingAndGlyphs" textLength="223" x="1149.5" y="328.3198">filter(SimpleFilter&lt;T&gt; filter): SimpleList</text><!--class SimpleListImpl--><rect fill="#FEFECE" filter="url(#f1niwv2r54yw38)" height="60.8047" id="SimpleListImpl" style="stroke: #A80036; stroke-width: 1.5;" width="130" x="1189" y="620"/><ellipse cx="1204" cy="636" fill="#ADD1B2" rx="11" ry="11" style="stroke: #A80036; stroke-width: 1.0;"/><path d="M1206.9688,641.6406 Q1206.3906,641.9375 1205.75,642.0859 Q1205.1094,642.2344 1204.4063,642.2344 Q1201.9063,642.2344 1200.5859,640.5859 Q1199.2656,638.9375 1199.2656,635.8125 Q1199.2656,632.6875 1200.5859,631.0313 Q1201.9063,629.375 1204.4063,629.375 Q1205.1094,629.375 1205.7578,629.5313 Q1206.4063,629.6875 1206.9688,629.9844 L1206.9688,632.7031 Q1206.3438,632.125 1205.75,631.8516 Q1205.1563,631.5781 1204.5313,631.5781 Q1203.1875,631.5781 1202.5,632.6484 Q1201.8125,633.7188 1201.8125,635.8125 Q1201.8125,637.9063 1202.5,638.9766 Q1203.1875,640.0469 1204.5313,640.0469 Q1205.1563,640.0469 1205.75,639.7734 Q1206.3438,639.5 1206.9688,638.9219 L1206.9688,641.6406 Z "/><text fill="#000000" font-family="sans-serif" font-size="12" lengthAdjust="spacingAndGlyphs" textLength="87" x="1218" y="640.1543">SimpleListImpl</text><rect fill="#FFFFFF" height="15.9688" style="stroke: #000000; stroke-width: 1.0; stroke-dasharray: 2.0,2.0;" width="9" x="1313" y="617"/><text fill="#000000" font-family="sans-serif" font-size="12" font-style="italic" lengthAdjust="spacingAndGlyphs" textLength="7" x="1314" y="629.1387">T</text><line style="stroke: #A80036; stroke-width: 1.5;" x1="1190" x2="1318" y1="652" y2="652"/><rect fill="none" height="6" style="stroke: #C82930; stroke-width: 1.0;" width="6" x="1197" y="660.9023"/><text fill="#000000" font-family="sans-serif" font-size="11" lengthAdjust="spacingAndGlyphs" textLength="82" x="1209" y="666.2104">head: Element</text><line style="stroke: #A80036; stroke-width: 1.5;" x1="1190" x2="1318" y1="672.8047" y2="672.8047"/><!--class SimpleIteratorImpl--><rect fill="#FEFECE" filter="url(#f1niwv2r54yw38)" height="48" id="SimpleIteratorImpl" style="stroke: #A80036; stroke-width: 1.5;" width="145" x="1413.5" y="267.5"/><ellipse cx="1428.5" cy="283.5" fill="#ADD1B2" rx="11" ry="11" style="stroke: #A80036; stroke-width: 1.0;"/><path d="M1431.4688,289.1406 Q1430.8906,289.4375 1430.25,289.5859 Q1429.6094,289.7344 1428.9063,289.7344 Q1426.4063,289.7344 1425.0859,288.0859 Q1423.7656,286.4375 1423.7656,283.3125 Q1423.7656,280.1875 1425.0859,278.5313 Q1426.4063,276.875 1428.9063,276.875 Q1429.6094,276.875 1430.2578,277.0313 Q1430.9063,277.1875 1431.4688,277.4844 L1431.4688,280.2031 Q1430.8438,279.625 1430.25,279.3516 Q1429.6563,279.0781 1429.0313,279.0781 Q1427.6875,279.0781 1427,280.1484 Q1426.3125,281.2188 1426.3125,283.3125 Q1426.3125,285.4063 1427,286.4766 Q1427.6875,287.5469 1429.0313,287.5469 Q1429.6563,287.5469 1430.25,287.2734 Q1430.8438,287 1431.4688,286.4219 L1431.4688,289.1406 Z "/><text fill="#000000" font-family="sans-serif" font-size="12" lengthAdjust="spacingAndGlyphs" textLength="113" x="1442.5" y="287.6543">SimpleIteratorImpl</text><line style="stroke: #A80036; stroke-width: 1.5;" x1="1414.5" x2="1557.5" y1="299.5" y2="299.5"/><line style="stroke: #A80036; stroke-width: 1.5;" x1="1414.5" x2="1557.5" y1="307.5" y2="307.5"/><!--class Element--><rect fill="#FEFECE" filter="url(#f1niwv2r54yw38)" height="112.0234" id="Element" style="stroke: #A80036; stroke-width: 1.5;" width="186" x="1181" y="944"/><ellipse cx="1233.25" cy="960" fill="#ADD1B2" rx="11" ry="11" style="stroke: #A80036; stroke-width: 1.0;"/><path d="M1236.2188,965.6406 Q1235.6406,965.9375 1235,966.0859 Q1234.3594,966.2344 1233.6563,966.2344 Q1231.1563,966.2344 1229.8359,964.5859 Q1228.5156,962.9375 1228.5156,959.8125 Q1228.5156,956.6875 1229.8359,955.0313 Q1231.1563,953.375 1233.6563,953.375 Q1234.3594,953.375 1235.0078,953.5313 Q1235.6563,953.6875 1236.2188,953.9844 L1236.2188,956.7031 Q1235.5938,956.125 1235,955.8516 Q1234.4063,955.5781 1233.7813,955.5781 Q1232.4375,955.5781 1231.75,956.6484 Q1231.0625,957.7188 1231.0625,959.8125 Q1231.0625,961.9063 1231.75,962.9766 Q1232.4375,964.0469 1233.7813,964.0469 Q1234.4063,964.0469 1235,963.7734 Q1235.5938,963.5 1236.2188,962.9219 L1236.2188,965.6406 Z "/><rect fill="#F24D5C" height="6" style="stroke: #C82930; stroke-width: 1.0;" width="6" x="1255.75" y="956.5"/><text fill="#000000" font-family="sans-serif" font-size="12" lengthAdjust="spacingAndGlyphs" textLength="51" x="1264.75" y="964.1543">Element</text><rect fill="#FFFFFF" height="15.9688" style="stroke: #000000; stroke-width: 1.0; stroke-dasharray: 2.0,2.0;" width="9" x="1361" y="941"/><text fill="#000000" font-family="sans-serif" font-size="12" font-style="italic" lengthAdjust="spacingAndGlyphs" textLength="7" x="1362" y="953.1387">T</text><line style="stroke: #A80036; stroke-width: 1.5;" x1="1182" x2="1366" y1="976" y2="976"/><rect fill="none" height="6" style="stroke: #C82930; stroke-width: 1.0;" width="6" x="1189" y="984.9023"/><text fill="#000000" font-family="sans-serif" font-size="11" lengthAdjust="spacingAndGlyphs" textLength="36" x="1201" y="990.2104">T item</text><rect fill="none" height="6" style="stroke: #C82930; stroke-width: 1.0;" width="6" x="1189" y="997.707"/><text fill="#000000" font-family="sans-serif" font-size="11" lengthAdjust="spacingAndGlyphs" textLength="103" x="1201" y="1003.0151">Element&lt;T&gt; next;</text><line style="stroke: #A80036; stroke-width: 1.5;" x1="1182" x2="1366" y1="1009.6094" y2="1009.6094"/><ellipse cx="1192" cy="1021.5117" fill="#84BE84" rx="3" ry="3" style="stroke: #038048; stroke-width: 1.0;"/><text fill="#000000" font-family="sans-serif" font-size="11" lengthAdjust="spacingAndGlyphs" textLength="62" x="1201" y="1023.8198">T getItem()</text><ellipse cx="1192" cy="1034.3164" fill="#84BE84" rx="3" ry="3" style="stroke: #038048; stroke-width: 1.0;"/><text fill="#000000" font-family="sans-serif" font-size="11" lengthAdjust="spacingAndGlyphs" textLength="126" x="1201" y="1036.6245">Element&lt;T&gt; getNext()</text><ellipse cx="1192" cy="1047.1211" fill="#84BE84" rx="3" ry="3" style="stroke: #038048; stroke-width: 1.0;"/><text fill="#000000" font-family="sans-serif" font-size="11" lengthAdjust="spacingAndGlyphs" textLength="160" x="1201" y="1049.4292">void setNext(Element&lt;T&gt; e)</text><!--class PlantColor--><rect fill="#FEFECE" filter="url(#f1niwv2r54yw38)" height="112.0234" id="PlantColor" style="stroke: #A80036; stroke-width: 1.5;" width="96" x="998" y="235.5"/><ellipse cx="1013" cy="251.5" fill="#EB937F" rx="11" ry="11" style="stroke: #A80036; stroke-width: 1.0;"/><path d="M1017.1094,257.5 L1009.3906,257.5 L1009.3906,245.1094 L1017.1094,245.1094 L1017.1094,247.2656 L1011.8438,247.2656 L1011.8438,249.9375 L1016.6094,249.9375 L1016.6094,252.0938 L1011.8438,252.0938 L1011.8438,255.3438 L1017.1094,255.3438 L1017.1094,257.5 Z "/><text fill="#000000" font-family="sans-serif" font-size="12" lengthAdjust="spacingAndGlyphs" textLength="64" x="1027" y="255.6543">PlantColor</text><line style="stroke: #A80036; stroke-width: 1.5;" x1="999" x2="1093" y1="267.5" y2="267.5"/><text fill="#000000" font-family="sans-serif" font-size="11" lengthAdjust="spacingAndGlyphs" textLength="26" x="1004" y="281.7104">RED,</text><text fill="#000000" font-family="sans-serif" font-size="11" lengthAdjust="spacingAndGlyphs" textLength="48" x="1004" y="294.5151">YELLOW,</text><text fill="#000000" font-family="sans-serif" font-size="11" lengthAdjust="spacingAndGlyphs" textLength="33" x="1004" y="307.3198">BLUE,</text><text fill="#000000" font-family="sans-serif" font-size="11" lengthAdjust="spacingAndGlyphs" textLength="51" x="1004" y="320.1245">ORANGE,</text><text fill="#000000" font-family="sans-serif" font-size="11" lengthAdjust="spacingAndGlyphs" textLength="38" x="1004" y="332.9292">GREEN</text><line style="stroke: #A80036; stroke-width: 1.5;" x1="999" x2="1093" y1="339.5234" y2="339.5234"/><!--class Plant--><rect fill="#FEFECE" filter="url(#f1niwv2r54yw38)" height="163.2422" id="Plant" style="stroke: #A80036; stroke-width: 1.5;" width="219" x="743.5" y="210"/><ellipse cx="832.75" cy="226" fill="#ADD1B2" rx="11" ry="11" style="stroke: #A80036; stroke-width: 1.0;"/><path d="M835.7188,231.6406 Q835.1406,231.9375 834.5,232.0859 Q833.8594,232.2344 833.1563,232.2344 Q830.6563,232.2344 829.3359,230.5859 Q828.0156,228.9375 828.0156,225.8125 Q828.0156,222.6875 829.3359,221.0313 Q830.6563,219.375 833.1563,219.375 Q833.8594,219.375 834.5078,219.5313 Q835.1563,219.6875 835.7188,219.9844 L835.7188,222.7031 Q835.0938,222.125 834.5,221.8516 Q833.9063,221.5781 833.2813,221.5781 Q831.9375,221.5781 831.25,222.6484 Q830.5625,223.7188 830.5625,225.8125 Q830.5625,227.9063 831.25,228.9766 Q831.9375,230.0469 833.2813,230.0469 Q833.9063,230.0469 834.5,229.7734 Q835.0938,229.5 835.7188,228.9219 L835.7188,231.6406 Z "/><text fill="#000000" font-family="sans-serif" font-size="12" lengthAdjust="spacingAndGlyphs" textLength="32" x="853.25" y="230.1543">Plant</text><line style="stroke: #A80036; stroke-width: 1.5;" x1="744.5" x2="961.5" y1="242" y2="242"/><rect fill="none" height="6" style="stroke: #C82930; stroke-width: 1.0;" width="6" x="751.5" y="250.9023"/><text fill="#000000" font-family="sans-serif" font-size="11" lengthAdjust="spacingAndGlyphs" text-decoration="underline" textLength="111" x="763.5" y="256.2104">int instanceCounter</text><line style="stroke: #000000; stroke-width: 1.0;" x1="763.5" x2="874.5" y1="258.2104" y2="258.2104"/><rect fill="none" height="6" style="stroke: #C82930; stroke-width: 1.0;" width="6" x="751.5" y="263.707"/><text fill="#000000" font-family="sans-serif" font-size="11" lengthAdjust="spacingAndGlyphs" textLength="28" x="763.5" y="269.0151">int id</text><rect fill="none" height="6" style="stroke: #C82930; stroke-width: 1.0;" width="6" x="751.5" y="276.5117"/><text fill="#000000" font-family="sans-serif" font-size="11" lengthAdjust="spacingAndGlyphs" textLength="81" x="763.5" y="281.8198">double height;</text><rect fill="none" height="6" style="stroke: #C82930; stroke-width: 1.0;" width="6" x="751.5" y="289.3164"/><text fill="#000000" font-family="sans-serif" font-size="11" lengthAdjust="spacingAndGlyphs" textLength="76" x="763.5" y="294.6245">String family;</text><ellipse cx="754.5" cy="305.1211" fill="none" rx="3" ry="3" style="stroke: #038048; stroke-width: 1.0;"/><text fill="#000000" font-family="sans-serif" font-size="11" lengthAdjust="spacingAndGlyphs" textLength="92" x="763.5" y="307.4292">String getFamily</text><line style="stroke: #A80036; stroke-width: 1.5;" x1="744.5" x2="961.5" y1="314.0234" y2="314.0234"/><polygon fill="#FFFF44" points="754.5,320.9258,758.5,324.9258,754.5,328.9258,750.5,324.9258" style="stroke: #B38D22; stroke-width: 1.0;"/><text fill="#000000" font-family="sans-serif" font-size="11" lengthAdjust="spacingAndGlyphs" textLength="193" x="763.5" y="328.2339">Plant(double height, String family)</text><ellipse cx="754.5" cy="338.7305" fill="#84BE84" rx="3" ry="3" style="stroke: #038048; stroke-width: 1.0;"/><text fill="#000000" font-family="sans-serif" font-size="11" lengthAdjust="spacingAndGlyphs" textLength="169" x="763.5" y="341.0386">abstract PlantColor getColor()</text><ellipse cx="754.5" cy="351.5352" fill="#84BE84" rx="3" ry="3" style="stroke: #038048; stroke-width: 1.0;"/><text fill="#000000" font-family="sans-serif" font-size="11" lengthAdjust="spacingAndGlyphs" textLength="54" x="763.5" y="353.8433">int getId()</text><ellipse cx="754.5" cy="364.3398" fill="#84BE84" rx="3" ry="3" style="stroke: #038048; stroke-width: 1.0;"/><text fill="#000000" font-family="sans-serif" font-size="11" lengthAdjust="spacingAndGlyphs" textLength="104" x="763.5" y="366.6479">double getHeight()</text><!--class Flower--><rect fill="#FEFECE" filter="url(#f1niwv2r54yw38)" height="60.8047" id="Flower" style="stroke: #A80036; stroke-width: 1.5;" width="144" x="743" y="620"/><ellipse cx="790.75" cy="636" fill="#ADD1B2" rx="11" ry="11" style="stroke: #A80036; stroke-width: 1.0;"/><path d="M793.7188,641.6406 Q793.1406,641.9375 792.5,642.0859 Q791.8594,642.2344 791.1563,642.2344 Q788.6563,642.2344 787.3359,640.5859 Q786.0156,638.9375 786.0156,635.8125 Q786.0156,632.6875 787.3359,631.0313 Q788.6563,629.375 791.1563,629.375 Q791.8594,629.375 792.5078,629.5313 Q793.1563,629.6875 793.7188,629.9844 L793.7188,632.7031 Q793.0938,632.125 792.5,631.8516 Q791.9063,631.5781 791.2813,631.5781 Q789.9375,631.5781 789.25,632.6484 Q788.5625,633.7188 788.5625,635.8125 Q788.5625,637.9063 789.25,638.9766 Q789.9375,640.0469 791.2813,640.0469 Q791.9063,640.0469 792.5,639.7734 Q793.0938,639.5 793.7188,638.9219 L793.7188,641.6406 Z "/><text fill="#000000" font-family="sans-serif" font-size="12" lengthAdjust="spacingAndGlyphs" textLength="40" x="811.25" y="640.1543">Flower</text><line style="stroke: #A80036; stroke-width: 1.5;" x1="744" x2="886" y1="652" y2="652"/><line style="stroke: #A80036; stroke-width: 1.5;" x1="744" x2="886" y1="660" y2="660"/><ellipse cx="754" cy="671.9023" fill="#84BE84" rx="3" ry="3" style="stroke: #038048; stroke-width: 1.0;"/><text fill="#000000" font-family="sans-serif" font-size="11" lengthAdjust="spacingAndGlyphs" textLength="118" x="763" y="674.2104">PlantColor getColor()</text><!--class Shrub--><rect fill="#FEFECE" filter="url(#f1niwv2r54yw38)" height="60.8047" id="Shrub" style="stroke: #A80036; stroke-width: 1.5;" width="144" x="922" y="620"/><ellipse cx="971.25" cy="636" fill="#ADD1B2" rx="11" ry="11" style="stroke: #A80036; stroke-width: 1.0;"/><path d="M974.2188,641.6406 Q973.6406,641.9375 973,642.0859 Q972.3594,642.2344 971.6563,642.2344 Q969.1563,642.2344 967.8359,640.5859 Q966.5156,638.9375 966.5156,635.8125 Q966.5156,632.6875 967.8359,631.0313 Q969.1563,629.375 971.6563,629.375 Q972.3594,629.375 973.0078,629.5313 Q973.6563,629.6875 974.2188,629.9844 L974.2188,632.7031 Q973.5938,632.125 973,631.8516 Q972.4063,631.5781 971.7813,631.5781 Q970.4375,631.5781 969.75,632.6484 Q969.0625,633.7188 969.0625,635.8125 Q969.0625,637.9063 969.75,638.9766 Q970.4375,640.0469 971.7813,640.0469 Q972.4063,640.0469 973,639.7734 Q973.5938,639.5 974.2188,638.9219 L974.2188,641.6406 Z "/><text fill="#000000" font-family="sans-serif" font-size="12" lengthAdjust="spacingAndGlyphs" textLength="37" x="991.75" y="640.1543">Shrub</text><line style="stroke: #A80036; stroke-width: 1.5;" x1="923" x2="1065" y1="652" y2="652"/><line style="stroke: #A80036; stroke-width: 1.5;" x1="923" x2="1065" y1="660" y2="660"/><ellipse cx="933" cy="671.9023" fill="#84BE84" rx="3" ry="3" style="stroke: #038048; stroke-width: 1.0;"/><text fill="#000000" font-family="sans-serif" font-size="11" lengthAdjust="spacingAndGlyphs" textLength="118" x="942" y="674.2104">PlantColor getColor()</text><!--link Iterable to SimpleList--><path d="M1287.4768,130.5832 C1280.0122,166.4643 1270.0992,214.1141 1263.0011,248.2334 " fill="none" id="Iterable-SimpleList" style="stroke: #A80036; stroke-width: 1.0;"/><polygon fill="none" points="1280.6751,128.9089,1291.602,110.7539,1294.3817,131.7604,1280.6751,128.9089" style="stroke: #A80036; stroke-width: 1.0;"/><!--link SimpleList to SimpleListImpl--><path d="M1254,354.8976 C1254,379.7237 1254,408.4468 1254,434.5 C1254,434.5 1254,434.5 1254,558.5 C1254,578.9444 1254,601.9444 1254,619.8333 " fill="none" id="SimpleList-SimpleListImpl" style="stroke: #A80036; stroke-width: 1.0; stroke-dasharray: 7.0,7.0;"/><polygon fill="none" points="1247.0001,354.6781,1254,334.678,1261.0001,354.678,1247.0001,354.6781" style="stroke: #A80036; stroke-width: 1.0;"/><!--link Iterator to SimpleIteratorImpl--><path d="M1475.0638,137.2996 C1478.0863,179.9169 1482.0587,235.9275 1484.2891,267.3759 " fill="none" id="Iterator-SimpleIteratorImpl" style="stroke: #A80036; stroke-width: 1.0; stroke-dasharray: 7.0,7.0;"/><polygon fill="none" points="1468.0797,137.7702,1473.6472,117.3251,1482.0446,136.7797,1468.0797,137.7702" style="stroke: #A80036; stroke-width: 1.0;"/><!--link SimpleListImpl to Element--><path d="M1222.7383,694.3326 C1215.0632,708.9539 1209,725.7919 1209,742.5 C1209,742.5 1209,742.5 1209,882.5 C1209,904.0641 1217.4863,925.3854 1228.3262,943.8239 " fill="none" id="SimpleListImpl-Element" style="stroke: #A80036; stroke-width: 1.0;"/><ellipse cx="1226.426" cy="687.9868" fill="#FFFFFF" rx="8" ry="8" style="stroke: #A80036; stroke-width: 1.0;"/><line style="stroke: #A80036; stroke-width: 1.0;" x1="1222.4064" x2="1230.4457" y1="694.9036" y2="681.07"/><line style="stroke: #A80036; stroke-width: 1.0;" x1="1219.5092" x2="1233.3428" y1="683.9671" y2="692.0065"/><text fill="#000000" font-family="sans-serif" font-size="13" lengthAdjust="spacingAndGlyphs" textLength="44" x="1210" y="817.0669">nested</text><!--link Element to SimpleListImpl--><path d="M1314.5399,931.5862 C1320.6731,915.9731 1325,899.0821 1325,882.5 C1325,742.5 1325,742.5 1325,742.5 C1325,718.6929 1309.9151,697.2863 1293.6517,681.1254 " fill="none" id="Element-SimpleListImpl" style="stroke: #A80036; stroke-width: 1.0;"/><polygon fill="#FFFFFF" points="1309.2822,943.8034,1315.3282,939.8733,1314.0259,932.7808,1307.9798,936.7109,1309.2822,943.8034" style="stroke: #A80036; stroke-width: 1.0;"/><text fill="#000000" font-family="sans-serif" font-size="13" lengthAdjust="spacingAndGlyphs" textLength="32" x="1326" y="817.0669">head</text><!--link Plant to Flower--><path d="M819.1742,393.1691 C816.6129,406.916 815,420.9516 815,434.5 C815,434.5 815,434.5 815,558.5 C815,578.9444 815,601.9444 815,619.8333 " fill="none" id="Plant-Flower" style="stroke: #A80036; stroke-width: 1.0;"/><polygon fill="none" points="812.4045,391.3603,823.5279,373.3251,826.0792,394.3606,812.4045,391.3603" style="stroke: #A80036; stroke-width: 1.0;"/><!--link Plant to Shrub--><path d="M915.5998,392.0899 C920.1499,405.883 923,420.2216 923,434.5 C923,434.5 923,434.5 923,558.5 C923,582.3071 938.0849,603.7137 954.3483,619.8746 " fill="none" id="Plant-Shrub" style="stroke: #A80036; stroke-width: 1.0;"/><polygon fill="none" points="908.9062,394.1925,908.1548,373.0162,921.948,389.1019,908.9062,394.1925" style="stroke: #A80036; stroke-width: 1.0;"/><!--
@startuml
package java.lang {
	
    interface Iterable<T> {
    	+Iterator<T> iterator()
    }

	interface Iterator<T> {
    	+boolean hasNext()
        +T next()
    }
}

package de.fhro.inf.prg3.a04 {

    package de.fhro.inf.prg3.a04.collections {
        interface SimpleFilter<T> {
            +include(T item): boolean
        }

        interface SimpleList<T> extends Iterable {
            +add(T item)
            +size(): int
            +filter(SimpleFilter<T> filter): SimpleList
        }

        class SimpleListImpl<T> implements SimpleList {
           -head: Element
        }

        class SimpleIteratorImpl implements Iterator {
        }

        -class Element<T> {
        	-T item
            -Element<T> next;
    
            +T getItem()
            +Element<T> getNext()
            +void setNext(Element<T> e)
        }

        SimpleListImpl +- - Element : nested
        Element o- - SimpleListImpl : head
    }

    package de.fhro.inf.prg3.a04.models {
        enum PlantColor {
	        RED,
            YELLOW,
            BLUE,
            ORANGE,
            GREEN
        }

        class Plant {
	        -{static}int instanceCounter
            -int id
            -double height;
            -String family;
            #Plant(double height, String family)
            +abstract PlantColor getColor()
            +int getId()
            +double getHeight()
            +String getFamily
        }

        class Flower extends Plant {
        	+PlantColor getColor()
        }

        class Shrub extends Plant {
        	+PlantColor getColor()
        }
    }

    class PlantBed {

	    -plants: SimpleList<Plant>

        +add(Plant p)
        +getPlants(): SimpleList<Plant>
        +getPlantsWithColor(PlantColor pc): SimpleList<T>
        +addEmpty()
    }

    abstract class PlantUtility {
	    +{static}splitByColor(PlantBed plantBed): Map<PlantColor,Plant> 
    }

}
@enduml

PlantUML version 1.2017.18(Fri Oct 06 18:56:32 CEST 2017)
(GPL source distribution)
Java Runtime: OpenJDK Runtime Environment
JVM: OpenJDK 64-Bit Server VM
Java Version: 1.8.0_144-b01
Operating System: Linux
OS Version: 4.13.7-1-ARCH
Default Encoding: UTF-8
Language: en
Country: US
--></g></svg>