<?xml version="1.0" encoding="UTF-8" standalone="no"?><svg xmlns="http://www.w3.org/2000/svg" xmlns:xlink="http://www.w3.org/1999/xlink" contentScriptType="application/ecmascript" contentStyleType="text/css" height="1084px" preserveAspectRatio="none" style="width:1876px;height:1084px;" version="1.1" viewBox="0 0 1876 1084" width="1876px" zoomAndPan="magnify"><defs><filter height="300%" id="fpfrzaxpnp06g" width="300%" x="-1" y="-1"><feGaussianBlur result="blurOut" stdDeviation="2.0"/><feColorMatrix in="blurOut" result="blurOut2" type="matrix" values="0 0 0 0 0 0 0 0 0 0 0 0 0 0 0 0 0 0 .4 0"/><feOffset dx="4.0" dy="4.0" in="blurOut2" result="blurOut3"/><feBlend in="SourceGraphic" in2="blurOut3" mode="normal"/></filter></defs><g><!--cluster java.lang--><polygon fill="#FFFFFF" filter="url(#fpfrzaxpnp06g)" points="1297,16,1372,16,1379,38.2969,1625,38.2969,1625,125,1297,125,1297,16" style="stroke: #000000; stroke-width: 2.0;"/><line style="stroke: #000000; stroke-width: 2.0;" x1="1297" x2="1379" y1="38.2969" y2="38.2969"/><text fill="#000000" font-family="sans-serif" font-size="14" font-weight="bold" lengthAdjust="spacingAndGlyphs" textLength="69" x="1301" y="30.9951">java.lang</text><!--cluster de.fhro.inf.prg3.a04--><polygon fill="#FFFFFF" filter="url(#fpfrzaxpnp06g)" points="14,156,179,156,186,178.2969,1854,178.2969,1854,1072,14,1072,14,156" style="stroke: #000000; stroke-width: 2.0;"/><line style="stroke: #000000; stroke-width: 2.0;" x1="14" x2="186" y1="178.2969" y2="178.2969"/><text fill="#000000" font-family="sans-serif" font-size="14" font-weight="bold" lengthAdjust="spacingAndGlyphs" textLength="159" x="18" y="170.9951">de.fhro.inf.prg3.a04</text><!--cluster de.fhro.inf.prg3.a04.collections--><polygon fill="#FFFFFF" filter="url(#fpfrzaxpnp06g)" points="1202,215,1457,215,1464,237.2969,1846,237.2969,1846,1064,1202,1064,1202,215" style="stroke: #000000; stroke-width: 2.0;"/><line style="stroke: #000000; stroke-width: 2.0;" x1="1202" x2="1464" y1="237.2969" y2="237.2969"/><text fill="#000000" font-family="sans-serif" font-size="14" font-weight="bold" lengthAdjust="spacingAndGlyphs" textLength="249" x="1206" y="229.9951">de.fhro.inf.prg3.a04.collections</text><!--cluster de.fhro.inf.prg3.a04.models--><polygon fill="#FFFFFF" filter="url(#fpfrzaxpnp06g)" points="816,183,1043,183,1050,205.2969,1183,205.2969,1183,689,816,689,816,183" style="stroke: #000000; stroke-width: 2.0;"/><line style="stroke: #000000; stroke-width: 2.0;" x1="816" x2="1050" y1="205.2969" y2="205.2969"/><text fill="#000000" font-family="sans-serif" font-size="14" font-weight="bold" lengthAdjust="spacingAndGlyphs" textLength="221" x="820" y="197.9951">de.fhro.inf.prg3.a04.models</text><!--class Iterable--><rect fill="#FEFECE" filter="url(#fpfrzaxpnp06g)" height="60.8047" id="Iterable" style="stroke: #A80036; stroke-width: 1.5;" width="147" x="1305.5" y="49.5"/><ellipse cx="1345.25" cy="65.5" fill="#B4A7E5" rx="11" ry="11" style="stroke: #A80036; stroke-width: 1.0;"/><path d="M1341.1719,61.2656 L1341.1719,59.1094 L1348.5625,59.1094 L1348.5625,61.2656 L1346.0938,61.2656 L1346.0938,69.3438 L1348.5625,69.3438 L1348.5625,71.5 L1341.1719,71.5 L1341.1719,69.3438 L1343.6406,69.3438 L1343.6406,61.2656 L1341.1719,61.2656 Z "/><text fill="#000000" font-family="sans-serif" font-size="12" font-style="italic" lengthAdjust="spacingAndGlyphs" textLength="49" x="1364.75" y="69.6543">Iterable</text><rect fill="#FFFFFF" height="15.9688" style="stroke: #000000; stroke-width: 1.0; stroke-dasharray: 2.0,2.0;" width="9" x="1446.5" y="46.5"/><text fill="#000000" font-family="sans-serif" font-size="12" font-style="italic" lengthAdjust="spacingAndGlyphs" textLength="7" x="1447.5" y="58.6387">T</text><line style="stroke: #A80036; stroke-width: 1.5;" x1="1306.5" x2="1451.5" y1="81.5" y2="81.5"/><line style="stroke: #A80036; stroke-width: 1.5;" x1="1306.5" x2="1451.5" y1="89.5" y2="89.5"/><ellipse cx="1316.5" cy="101.4023" fill="#84BE84" rx="3" ry="3" style="stroke: #038048; stroke-width: 1.0;"/><text fill="#000000" font-family="sans-serif" font-size="11" lengthAdjust="spacingAndGlyphs" textLength="121" x="1325.5" y="103.7104">Iterator&lt;T&gt; iterator()</text><!--class Iterator--><rect fill="#FEFECE" filter="url(#fpfrzaxpnp06g)" height="73.6094" id="Iterator" style="stroke: #A80036; stroke-width: 1.5;" width="129" x="1487.5" y="43"/><ellipse cx="1519.6" cy="59" fill="#B4A7E5" rx="11" ry="11" style="stroke: #A80036; stroke-width: 1.0;"/><path d="M1515.5219,54.7656 L1515.5219,52.6094 L1522.9125,52.6094 L1522.9125,54.7656 L1520.4438,54.7656 L1520.4438,62.8438 L1522.9125,62.8438 L1522.9125,65 L1515.5219,65 L1515.5219,62.8438 L1517.9906,62.8438 L1517.9906,54.7656 L1515.5219,54.7656 Z "/><text fill="#000000" font-family="sans-serif" font-size="12" font-style="italic" lengthAdjust="spacingAndGlyphs" textLength="48" x="1537.4" y="63.1543">Iterator</text><rect fill="#FFFFFF" height="15.9688" style="stroke: #000000; stroke-width: 1.0; stroke-dasharray: 2.0,2.0;" width="9" x="1610.5" y="40"/><text fill="#000000" font-family="sans-serif" font-size="12" font-style="italic" lengthAdjust="spacingAndGlyphs" textLength="7" x="1611.5" y="52.1387">T</text><line style="stroke: #A80036; stroke-width: 1.5;" x1="1488.5" x2="1615.5" y1="75" y2="75"/><line style="stroke: #A80036; stroke-width: 1.5;" x1="1488.5" x2="1615.5" y1="83" y2="83"/><ellipse cx="1498.5" cy="94.9023" fill="#84BE84" rx="3" ry="3" style="stroke: #038048; stroke-width: 1.0;"/><text fill="#000000" font-family="sans-serif" font-size="11" lengthAdjust="spacingAndGlyphs" textLength="103" x="1507.5" y="97.2104">boolean hasNext()</text><ellipse cx="1498.5" cy="107.707" fill="#84BE84" rx="3" ry="3" style="stroke: #038048; stroke-width: 1.0;"/><text fill="#000000" font-family="sans-serif" font-size="11" lengthAdjust="spacingAndGlyphs" textLength="43" x="1507.5" y="110.0151">T next()</text><!--class PlantBed--><rect fill="#FEFECE" filter="url(#fpfrzaxpnp06g)" height="99.2188" id="PlantBed" style="stroke: #A80036; stroke-width: 1.5;" width="307" x="482.5" y="242"/><ellipse cx="603.75" cy="258" fill="#ADD1B2" rx="11" ry="11" style="stroke: #A80036; stroke-width: 1.0;"/><path d="M606.7188,263.6406 Q606.1406,263.9375 605.5,264.0859 Q604.8594,264.2344 604.1563,264.2344 Q601.6563,264.2344 600.3359,262.5859 Q599.0156,260.9375 599.0156,257.8125 Q599.0156,254.6875 600.3359,253.0313 Q601.6563,251.375 604.1563,251.375 Q604.8594,251.375 605.5078,251.5313 Q606.1563,251.6875 606.7188,251.9844 L606.7188,254.7031 Q606.0938,254.125 605.5,253.8516 Q604.9063,253.5781 604.2813,253.5781 Q602.9375,253.5781 602.25,254.6484 Q601.5625,255.7188 601.5625,257.8125 Q601.5625,259.9063 602.25,260.9766 Q602.9375,262.0469 604.2813,262.0469 Q604.9063,262.0469 605.5,261.7734 Q606.0938,261.5 606.7188,260.9219 L606.7188,263.6406 Z "/><text fill="#000000" font-family="sans-serif" font-size="12" lengthAdjust="spacingAndGlyphs" textLength="56" x="624.25" y="262.1543">PlantBed</text><line style="stroke: #A80036; stroke-width: 1.5;" x1="483.5" x2="788.5" y1="274" y2="274"/><rect fill="none" height="6" style="stroke: #C82930; stroke-width: 1.0;" width="6" x="490.5" y="282.9023"/><text fill="#000000" font-family="sans-serif" font-size="11" lengthAdjust="spacingAndGlyphs" textLength="148" x="502.5" y="288.2104">plants: SimpleList&lt;Plant&gt;</text><line style="stroke: #A80036; stroke-width: 1.5;" x1="483.5" x2="788.5" y1="294.8047" y2="294.8047"/><ellipse cx="493.5" cy="306.707" fill="#84BE84" rx="3" ry="3" style="stroke: #038048; stroke-width: 1.0;"/><text fill="#000000" font-family="sans-serif" font-size="11" lengthAdjust="spacingAndGlyphs" textLength="68" x="502.5" y="309.0151">add(Plant p)</text><ellipse cx="493.5" cy="319.5117" fill="#84BE84" rx="3" ry="3" style="stroke: #038048; stroke-width: 1.0;"/><text fill="#000000" font-family="sans-serif" font-size="11" lengthAdjust="spacingAndGlyphs" textLength="174" x="502.5" y="321.8198">getPlants(): SimpleList&lt;Plant&gt;</text><ellipse cx="493.5" cy="332.3164" fill="#84BE84" rx="3" ry="3" style="stroke: #038048; stroke-width: 1.0;"/><text fill="#000000" font-family="sans-serif" font-size="11" lengthAdjust="spacingAndGlyphs" textLength="281" x="502.5" y="334.6245">getPlantsWithColor(PlantColor pc): SimpleList&lt;T&gt;</text><!--class PlantUtility--><rect fill="#FEFECE" filter="url(#fpfrzaxpnp06g)" height="60.8047" id="PlantUtility" style="stroke: #A80036; stroke-width: 1.5;" width="426" x="22" y="261"/><ellipse cx="197.75" cy="277" fill="#A9DCDF" rx="11" ry="11" style="stroke: #A80036; stroke-width: 1.0;"/><path d="M197.8594,272.3438 L196.7031,277.4219 L199.0313,277.4219 L197.8594,272.3438 Z M196.375,270.1094 L199.3594,270.1094 L202.7188,282.5 L200.2656,282.5 L199.5,279.4375 L196.2188,279.4375 L195.4688,282.5 L193.0313,282.5 L196.375,270.1094 Z "/><text fill="#000000" font-family="sans-serif" font-size="12" font-style="italic" lengthAdjust="spacingAndGlyphs" textLength="66" x="218.25" y="281.1543">PlantUtility</text><line style="stroke: #A80036; stroke-width: 1.5;" x1="23" x2="447" y1="293" y2="293"/><line style="stroke: #A80036; stroke-width: 1.5;" x1="23" x2="447" y1="301" y2="301"/><ellipse cx="33" cy="312.9023" fill="#84BE84" rx="3" ry="3" style="stroke: #038048; stroke-width: 1.0;"/><text fill="#000000" font-family="sans-serif" font-size="11" lengthAdjust="spacingAndGlyphs" text-decoration="underline" textLength="400" x="42" y="315.2104">splitByColor(PlantBed plantBed): Map&lt;PlantColor, SimpleList&lt;Plant&gt;&gt;</text><line style="stroke: #000000; stroke-width: 1.0;" x1="42" x2="442" y1="317.2104" y2="317.2104"/><!--class SimpleFilter--><rect fill="#FEFECE" filter="url(#fpfrzaxpnp06g)" height="60.8047" id="SimpleFilter" style="stroke: #A80036; stroke-width: 1.5;" width="163" x="1674.5" y="261"/><ellipse cx="1711.1" cy="277" fill="#B4A7E5" rx="11" ry="11" style="stroke: #A80036; stroke-width: 1.0;"/><path d="M1707.0219,272.7656 L1707.0219,270.6094 L1714.4125,270.6094 L1714.4125,272.7656 L1711.9438,272.7656 L1711.9438,280.8438 L1714.4125,280.8438 L1714.4125,283 L1707.0219,283 L1707.0219,280.8438 L1709.4906,280.8438 L1709.4906,272.7656 L1707.0219,272.7656 Z "/><text fill="#000000" font-family="sans-serif" font-size="12" font-style="italic" lengthAdjust="spacingAndGlyphs" textLength="72" x="1729.9" y="281.1543">SimpleFilter</text><rect fill="#FFFFFF" height="15.9688" style="stroke: #000000; stroke-width: 1.0; stroke-dasharray: 2.0,2.0;" width="9" x="1831.5" y="258"/><text fill="#000000" font-family="sans-serif" font-size="12" font-style="italic" lengthAdjust="spacingAndGlyphs" textLength="7" x="1832.5" y="270.1387">T</text><line style="stroke: #A80036; stroke-width: 1.5;" x1="1675.5" x2="1836.5" y1="293" y2="293"/><line style="stroke: #A80036; stroke-width: 1.5;" x1="1675.5" x2="1836.5" y1="301" y2="301"/><ellipse cx="1685.5" cy="312.9023" fill="#84BE84" rx="3" ry="3" style="stroke: #038048; stroke-width: 1.0;"/><text fill="#000000" font-family="sans-serif" font-size="11" lengthAdjust="spacingAndGlyphs" textLength="137" x="1694.5" y="315.2104">include(T item): boolean</text><!--class SimpleList--><rect fill="#FEFECE" filter="url(#fpfrzaxpnp06g)" height="99.2188" id="SimpleList" style="stroke: #A80036; stroke-width: 1.5;" width="249" x="1210.5" y="242"/><ellipse cx="1294.25" cy="258" fill="#B4A7E5" rx="11" ry="11" style="stroke: #A80036; stroke-width: 1.0;"/><path d="M1290.1719,253.7656 L1290.1719,251.6094 L1297.5625,251.6094 L1297.5625,253.7656 L1295.0938,253.7656 L1295.0938,261.8438 L1297.5625,261.8438 L1297.5625,264 L1290.1719,264 L1290.1719,261.8438 L1292.6406,261.8438 L1292.6406,253.7656 L1290.1719,253.7656 Z "/><text fill="#000000" font-family="sans-serif" font-size="12" font-style="italic" lengthAdjust="spacingAndGlyphs" textLength="62" x="1314.75" y="262.1543">SimpleList</text><rect fill="#FFFFFF" height="15.9688" style="stroke: #000000; stroke-width: 1.0; stroke-dasharray: 2.0,2.0;" width="9" x="1453.5" y="239"/><text fill="#000000" font-family="sans-serif" font-size="12" font-style="italic" lengthAdjust="spacingAndGlyphs" textLength="7" x="1454.5" y="251.1387">T</text><line style="stroke: #A80036; stroke-width: 1.5;" x1="1211.5" x2="1458.5" y1="274" y2="274"/><line style="stroke: #A80036; stroke-width: 1.5;" x1="1211.5" x2="1458.5" y1="282" y2="282"/><ellipse cx="1221.5" cy="293.9023" fill="#84BE84" rx="3" ry="3" style="stroke: #038048; stroke-width: 1.0;"/><text fill="#000000" font-family="sans-serif" font-size="11" lengthAdjust="spacingAndGlyphs" textLength="65" x="1230.5" y="296.2104">add(T item)</text><ellipse cx="1221.5" cy="306.707" fill="#84BE84" rx="3" ry="3" style="stroke: #038048; stroke-width: 1.0;"/><text fill="#000000" font-family="sans-serif" font-size="11" lengthAdjust="spacingAndGlyphs" textLength="64" x="1230.5" y="309.0151">addEmpty()</text><ellipse cx="1221.5" cy="319.5117" fill="#84BE84" rx="3" ry="3" style="stroke: #038048; stroke-width: 1.0;"/><text fill="#000000" font-family="sans-serif" font-size="11" lengthAdjust="spacingAndGlyphs" textLength="52" x="1230.5" y="321.8198">size(): int</text><ellipse cx="1221.5" cy="332.3164" fill="#84BE84" rx="3" ry="3" style="stroke: #038048; stroke-width: 1.0;"/><text fill="#000000" font-family="sans-serif" font-size="11" lengthAdjust="spacingAndGlyphs" textLength="223" x="1230.5" y="334.6245">filter(SimpleFilter&lt;T&gt; filter): SimpleList</text><!--class SimpleListImpl--><rect fill="#FEFECE" filter="url(#fpfrzaxpnp06g)" height="60.8047" id="SimpleListImpl" style="stroke: #A80036; stroke-width: 1.5;" width="130" x="1270" y="620"/><ellipse cx="1285" cy="636" fill="#ADD1B2" rx="11" ry="11" style="stroke: #A80036; stroke-width: 1.0;"/><path d="M1287.9688,641.6406 Q1287.3906,641.9375 1286.75,642.0859 Q1286.1094,642.2344 1285.4063,642.2344 Q1282.9063,642.2344 1281.5859,640.5859 Q1280.2656,638.9375 1280.2656,635.8125 Q1280.2656,632.6875 1281.5859,631.0313 Q1282.9063,629.375 1285.4063,629.375 Q1286.1094,629.375 1286.7578,629.5313 Q1287.4063,629.6875 1287.9688,629.9844 L1287.9688,632.7031 Q1287.3438,632.125 1286.75,631.8516 Q1286.1563,631.5781 1285.5313,631.5781 Q1284.1875,631.5781 1283.5,632.6484 Q1282.8125,633.7188 1282.8125,635.8125 Q1282.8125,637.9063 1283.5,638.9766 Q1284.1875,640.0469 1285.5313,640.0469 Q1286.1563,640.0469 1286.75,639.7734 Q1287.3438,639.5 1287.9688,638.9219 L1287.9688,641.6406 Z "/><text fill="#000000" font-family="sans-serif" font-size="12" lengthAdjust="spacingAndGlyphs" textLength="87" x="1299" y="640.1543">SimpleListImpl</text><rect fill="#FFFFFF" height="15.9688" style="stroke: #000000; stroke-width: 1.0; stroke-dasharray: 2.0,2.0;" width="9" x="1394" y="617"/><text fill="#000000" font-family="sans-serif" font-size="12" font-style="italic" lengthAdjust="spacingAndGlyphs" textLength="7" x="1395" y="629.1387">T</text><line style="stroke: #A80036; stroke-width: 1.5;" x1="1271" x2="1399" y1="652" y2="652"/><rect fill="none" height="6" style="stroke: #C82930; stroke-width: 1.0;" width="6" x="1278" y="660.9023"/><text fill="#000000" font-family="sans-serif" font-size="11" lengthAdjust="spacingAndGlyphs" textLength="82" x="1290" y="666.2104">head: Element</text><line style="stroke: #A80036; stroke-width: 1.5;" x1="1271" x2="1399" y1="672.8047" y2="672.8047"/><!--class SimpleIteratorImpl--><rect fill="#FEFECE" filter="url(#fpfrzaxpnp06g)" height="48" id="SimpleIteratorImpl" style="stroke: #A80036; stroke-width: 1.5;" width="145" x="1494.5" y="267.5"/><ellipse cx="1509.5" cy="283.5" fill="#ADD1B2" rx="11" ry="11" style="stroke: #A80036; stroke-width: 1.0;"/><path d="M1512.4688,289.1406 Q1511.8906,289.4375 1511.25,289.5859 Q1510.6094,289.7344 1509.9063,289.7344 Q1507.4063,289.7344 1506.0859,288.0859 Q1504.7656,286.4375 1504.7656,283.3125 Q1504.7656,280.1875 1506.0859,278.5313 Q1507.4063,276.875 1509.9063,276.875 Q1510.6094,276.875 1511.2578,277.0313 Q1511.9063,277.1875 1512.4688,277.4844 L1512.4688,280.2031 Q1511.8438,279.625 1511.25,279.3516 Q1510.6563,279.0781 1510.0313,279.0781 Q1508.6875,279.0781 1508,280.1484 Q1507.3125,281.2188 1507.3125,283.3125 Q1507.3125,285.4063 1508,286.4766 Q1508.6875,287.5469 1510.0313,287.5469 Q1510.6563,287.5469 1511.25,287.2734 Q1511.8438,287 1512.4688,286.4219 L1512.4688,289.1406 Z "/><text fill="#000000" font-family="sans-serif" font-size="12" lengthAdjust="spacingAndGlyphs" textLength="113" x="1523.5" y="287.6543">SimpleIteratorImpl</text><line style="stroke: #A80036; stroke-width: 1.5;" x1="1495.5" x2="1638.5" y1="299.5" y2="299.5"/><line style="stroke: #A80036; stroke-width: 1.5;" x1="1495.5" x2="1638.5" y1="307.5" y2="307.5"/><!--class Element--><rect fill="#FEFECE" filter="url(#fpfrzaxpnp06g)" height="112.0234" id="Element" style="stroke: #A80036; stroke-width: 1.5;" width="186" x="1262" y="944"/><ellipse cx="1314.25" cy="960" fill="#ADD1B2" rx="11" ry="11" style="stroke: #A80036; stroke-width: 1.0;"/><path d="M1317.2188,965.6406 Q1316.6406,965.9375 1316,966.0859 Q1315.3594,966.2344 1314.6563,966.2344 Q1312.1563,966.2344 1310.8359,964.5859 Q1309.5156,962.9375 1309.5156,959.8125 Q1309.5156,956.6875 1310.8359,955.0313 Q1312.1563,953.375 1314.6563,953.375 Q1315.3594,953.375 1316.0078,953.5313 Q1316.6563,953.6875 1317.2188,953.9844 L1317.2188,956.7031 Q1316.5938,956.125 1316,955.8516 Q1315.4063,955.5781 1314.7813,955.5781 Q1313.4375,955.5781 1312.75,956.6484 Q1312.0625,957.7188 1312.0625,959.8125 Q1312.0625,961.9063 1312.75,962.9766 Q1313.4375,964.0469 1314.7813,964.0469 Q1315.4063,964.0469 1316,963.7734 Q1316.5938,963.5 1317.2188,962.9219 L1317.2188,965.6406 Z "/><rect fill="#F24D5C" height="6" style="stroke: #C82930; stroke-width: 1.0;" width="6" x="1336.75" y="956.5"/><text fill="#000000" font-family="sans-serif" font-size="12" lengthAdjust="spacingAndGlyphs" textLength="51" x="1345.75" y="964.1543">Element</text><rect fill="#FFFFFF" height="15.9688" style="stroke: #000000; stroke-width: 1.0; stroke-dasharray: 2.0,2.0;" width="9" x="1442" y="941"/><text fill="#000000" font-family="sans-serif" font-size="12" font-style="italic" lengthAdjust="spacingAndGlyphs" textLength="7" x="1443" y="953.1387">T</text><line style="stroke: #A80036; stroke-width: 1.5;" x1="1263" x2="1447" y1="976" y2="976"/><rect fill="none" height="6" style="stroke: #C82930; stroke-width: 1.0;" width="6" x="1270" y="984.9023"/><text fill="#000000" font-family="sans-serif" font-size="11" lengthAdjust="spacingAndGlyphs" textLength="36" x="1282" y="990.2104">T item</text><rect fill="none" height="6" style="stroke: #C82930; stroke-width: 1.0;" width="6" x="1270" y="997.707"/><text fill="#000000" font-family="sans-serif" font-size="11" lengthAdjust="spacingAndGlyphs" textLength="103" x="1282" y="1003.0151">Element&lt;T&gt; next;</text><line style="stroke: #A80036; stroke-width: 1.5;" x1="1263" x2="1447" y1="1009.6094" y2="1009.6094"/><ellipse cx="1273" cy="1021.5117" fill="#84BE84" rx="3" ry="3" style="stroke: #038048; stroke-width: 1.0;"/><text fill="#000000" font-family="sans-serif" font-size="11" lengthAdjust="spacingAndGlyphs" textLength="62" x="1282" y="1023.8198">T getItem()</text><ellipse cx="1273" cy="1034.3164" fill="#84BE84" rx="3" ry="3" style="stroke: #038048; stroke-width: 1.0;"/><text fill="#000000" font-family="sans-serif" font-size="11" lengthAdjust="spacingAndGlyphs" textLength="126" x="1282" y="1036.6245">Element&lt;T&gt; getNext()</text><ellipse cx="1273" cy="1047.1211" fill="#84BE84" rx="3" ry="3" style="stroke: #038048; stroke-width: 1.0;"/><text fill="#000000" font-family="sans-serif" font-size="11" lengthAdjust="spacingAndGlyphs" textLength="160" x="1282" y="1049.4292">void setNext(Element&lt;T&gt; e)</text><!--class PlantColor--><rect fill="#FEFECE" filter="url(#fpfrzaxpnp06g)" height="112.0234" id="PlantColor" style="stroke: #A80036; stroke-width: 1.5;" width="96" x="1079" y="235.5"/><ellipse cx="1094" cy="251.5" fill="#EB937F" rx="11" ry="11" style="stroke: #A80036; stroke-width: 1.0;"/><path d="M1098.1094,257.5 L1090.3906,257.5 L1090.3906,245.1094 L1098.1094,245.1094 L1098.1094,247.2656 L1092.8438,247.2656 L1092.8438,249.9375 L1097.6094,249.9375 L1097.6094,252.0938 L1092.8438,252.0938 L1092.8438,255.3438 L1098.1094,255.3438 L1098.1094,257.5 Z "/><text fill="#000000" font-family="sans-serif" font-size="12" lengthAdjust="spacingAndGlyphs" textLength="64" x="1108" y="255.6543">PlantColor</text><line style="stroke: #A80036; stroke-width: 1.5;" x1="1080" x2="1174" y1="267.5" y2="267.5"/><text fill="#000000" font-family="sans-serif" font-size="11" lengthAdjust="spacingAndGlyphs" textLength="26" x="1085" y="281.7104">RED,</text><text fill="#000000" font-family="sans-serif" font-size="11" lengthAdjust="spacingAndGlyphs" textLength="48" x="1085" y="294.5151">YELLOW,</text><text fill="#000000" font-family="sans-serif" font-size="11" lengthAdjust="spacingAndGlyphs" textLength="33" x="1085" y="307.3198">BLUE,</text><text fill="#000000" font-family="sans-serif" font-size="11" lengthAdjust="spacingAndGlyphs" textLength="51" x="1085" y="320.1245">ORANGE,</text><text fill="#000000" font-family="sans-serif" font-size="11" lengthAdjust="spacingAndGlyphs" textLength="38" x="1085" y="332.9292">GREEN</text><line style="stroke: #A80036; stroke-width: 1.5;" x1="1080" x2="1174" y1="339.5234" y2="339.5234"/><!--class Plant--><rect fill="#FEFECE" filter="url(#fpfrzaxpnp06g)" height="163.2422" id="Plant" style="stroke: #A80036; stroke-width: 1.5;" width="219" x="824.5" y="210"/><ellipse cx="913.75" cy="226" fill="#ADD1B2" rx="11" ry="11" style="stroke: #A80036; stroke-width: 1.0;"/><path d="M916.7188,231.6406 Q916.1406,231.9375 915.5,232.0859 Q914.8594,232.2344 914.1563,232.2344 Q911.6563,232.2344 910.3359,230.5859 Q909.0156,228.9375 909.0156,225.8125 Q909.0156,222.6875 910.3359,221.0313 Q911.6563,219.375 914.1563,219.375 Q914.8594,219.375 915.5078,219.5313 Q916.1563,219.6875 916.7188,219.9844 L916.7188,222.7031 Q916.0938,222.125 915.5,221.8516 Q914.9063,221.5781 914.2813,221.5781 Q912.9375,221.5781 912.25,222.6484 Q911.5625,223.7188 911.5625,225.8125 Q911.5625,227.9063 912.25,228.9766 Q912.9375,230.0469 914.2813,230.0469 Q914.9063,230.0469 915.5,229.7734 Q916.0938,229.5 916.7188,228.9219 L916.7188,231.6406 Z "/><text fill="#000000" font-family="sans-serif" font-size="12" lengthAdjust="spacingAndGlyphs" textLength="32" x="934.25" y="230.1543">Plant</text><line style="stroke: #A80036; stroke-width: 1.5;" x1="825.5" x2="1042.5" y1="242" y2="242"/><rect fill="none" height="6" style="stroke: #C82930; stroke-width: 1.0;" width="6" x="832.5" y="250.9023"/><text fill="#000000" font-family="sans-serif" font-size="11" lengthAdjust="spacingAndGlyphs" text-decoration="underline" textLength="111" x="844.5" y="256.2104">int instanceCounter</text><line style="stroke: #000000; stroke-width: 1.0;" x1="844.5" x2="955.5" y1="258.2104" y2="258.2104"/><rect fill="none" height="6" style="stroke: #C82930; stroke-width: 1.0;" width="6" x="832.5" y="263.707"/><text fill="#000000" font-family="sans-serif" font-size="11" lengthAdjust="spacingAndGlyphs" textLength="28" x="844.5" y="269.0151">int id</text><rect fill="none" height="6" style="stroke: #C82930; stroke-width: 1.0;" width="6" x="832.5" y="276.5117"/><text fill="#000000" font-family="sans-serif" font-size="11" lengthAdjust="spacingAndGlyphs" textLength="81" x="844.5" y="281.8198">double height;</text><rect fill="none" height="6" style="stroke: #C82930; stroke-width: 1.0;" width="6" x="832.5" y="289.3164"/><text fill="#000000" font-family="sans-serif" font-size="11" lengthAdjust="spacingAndGlyphs" textLength="76" x="844.5" y="294.6245">String family;</text><ellipse cx="835.5" cy="305.1211" fill="none" rx="3" ry="3" style="stroke: #038048; stroke-width: 1.0;"/><text fill="#000000" font-family="sans-serif" font-size="11" lengthAdjust="spacingAndGlyphs" textLength="92" x="844.5" y="307.4292">String getFamily</text><line style="stroke: #A80036; stroke-width: 1.5;" x1="825.5" x2="1042.5" y1="314.0234" y2="314.0234"/><polygon fill="#FFFF44" points="835.5,320.9258,839.5,324.9258,835.5,328.9258,831.5,324.9258" style="stroke: #B38D22; stroke-width: 1.0;"/><text fill="#000000" font-family="sans-serif" font-size="11" lengthAdjust="spacingAndGlyphs" textLength="193" x="844.5" y="328.2339">Plant(double height, String family)</text><ellipse cx="835.5" cy="338.7305" fill="#84BE84" rx="3" ry="3" style="stroke: #038048; stroke-width: 1.0;"/><text fill="#000000" font-family="sans-serif" font-size="11" lengthAdjust="spacingAndGlyphs" textLength="169" x="844.5" y="341.0386">abstract PlantColor getColor()</text><ellipse cx="835.5" cy="351.5352" fill="#84BE84" rx="3" ry="3" style="stroke: #038048; stroke-width: 1.0;"/><text fill="#000000" font-family="sans-serif" font-size="11" lengthAdjust="spacingAndGlyphs" textLength="54" x="844.5" y="353.8433">int getId()</text><ellipse cx="835.5" cy="364.3398" fill="#84BE84" rx="3" ry="3" style="stroke: #038048; stroke-width: 1.0;"/><text fill="#000000" font-family="sans-serif" font-size="11" lengthAdjust="spacingAndGlyphs" textLength="104" x="844.5" y="366.6479">double getHeight()</text><!--class Flower--><rect fill="#FEFECE" filter="url(#fpfrzaxpnp06g)" height="60.8047" id="Flower" style="stroke: #A80036; stroke-width: 1.5;" width="144" x="824" y="620"/><ellipse cx="871.75" cy="636" fill="#ADD1B2" rx="11" ry="11" style="stroke: #A80036; stroke-width: 1.0;"/><path d="M874.7188,641.6406 Q874.1406,641.9375 873.5,642.0859 Q872.8594,642.2344 872.1563,642.2344 Q869.6563,642.2344 868.3359,640.5859 Q867.0156,638.9375 867.0156,635.8125 Q867.0156,632.6875 868.3359,631.0313 Q869.6563,629.375 872.1563,629.375 Q872.8594,629.375 873.5078,629.5313 Q874.1563,629.6875 874.7188,629.9844 L874.7188,632.7031 Q874.0938,632.125 873.5,631.8516 Q872.9063,631.5781 872.2813,631.5781 Q870.9375,631.5781 870.25,632.6484 Q869.5625,633.7188 869.5625,635.8125 Q869.5625,637.9063 870.25,638.9766 Q870.9375,640.0469 872.2813,640.0469 Q872.9063,640.0469 873.5,639.7734 Q874.0938,639.5 874.7188,638.9219 L874.7188,641.6406 Z "/><text fill="#000000" font-family="sans-serif" font-size="12" lengthAdjust="spacingAndGlyphs" textLength="40" x="892.25" y="640.1543">Flower</text><line style="stroke: #A80036; stroke-width: 1.5;" x1="825" x2="967" y1="652" y2="652"/><line style="stroke: #A80036; stroke-width: 1.5;" x1="825" x2="967" y1="660" y2="660"/><ellipse cx="835" cy="671.9023" fill="#84BE84" rx="3" ry="3" style="stroke: #038048; stroke-width: 1.0;"/><text fill="#000000" font-family="sans-serif" font-size="11" lengthAdjust="spacingAndGlyphs" textLength="118" x="844" y="674.2104">PlantColor getColor()</text><!--class Shrub--><rect fill="#FEFECE" filter="url(#fpfrzaxpnp06g)" height="60.8047" id="Shrub" style="stroke: #A80036; stroke-width: 1.5;" width="144" x="1003" y="620"/><ellipse cx="1052.25" cy="636" fill="#ADD1B2" rx="11" ry="11" style="stroke: #A80036; stroke-width: 1.0;"/><path d="M1055.2188,641.6406 Q1054.6406,641.9375 1054,642.0859 Q1053.3594,642.2344 1052.6563,642.2344 Q1050.1563,642.2344 1048.8359,640.5859 Q1047.5156,638.9375 1047.5156,635.8125 Q1047.5156,632.6875 1048.8359,631.0313 Q1050.1563,629.375 1052.6563,629.375 Q1053.3594,629.375 1054.0078,629.5313 Q1054.6563,629.6875 1055.2188,629.9844 L1055.2188,632.7031 Q1054.5938,632.125 1054,631.8516 Q1053.4063,631.5781 1052.7813,631.5781 Q1051.4375,631.5781 1050.75,632.6484 Q1050.0625,633.7188 1050.0625,635.8125 Q1050.0625,637.9063 1050.75,638.9766 Q1051.4375,640.0469 1052.7813,640.0469 Q1053.4063,640.0469 1054,639.7734 Q1054.5938,639.5 1055.2188,638.9219 L1055.2188,641.6406 Z "/><text fill="#000000" font-family="sans-serif" font-size="12" lengthAdjust="spacingAndGlyphs" textLength="37" x="1072.75" y="640.1543">Shrub</text><line style="stroke: #A80036; stroke-width: 1.5;" x1="1004" x2="1146" y1="652" y2="652"/><line style="stroke: #A80036; stroke-width: 1.5;" x1="1004" x2="1146" y1="660" y2="660"/><ellipse cx="1014" cy="671.9023" fill="#84BE84" rx="3" ry="3" style="stroke: #038048; stroke-width: 1.0;"/><text fill="#000000" font-family="sans-serif" font-size="11" lengthAdjust="spacingAndGlyphs" textLength="118" x="1023" y="674.2104">PlantColor getColor()</text><!--link Iterable to SimpleList--><path d="M1368.4535,130.6949 C1361.4451,164.3833 1352.2861,208.4086 1345.3239,241.8751 " fill="none" id="Iterable-SimpleList" style="stroke: #A80036; stroke-width: 1.0;"/><polygon fill="none" points="1361.6751,128.9089,1372.602,110.7539,1375.3817,131.7604,1361.6751,128.9089" style="stroke: #A80036; stroke-width: 1.0;"/><!--link SimpleList to SimpleListImpl--><path d="M1335,361.185 C1335,384.495 1335,410.6191 1335,434.5 C1335,434.5 1335,434.5 1335,558.5 C1335,578.9444 1335,601.9444 1335,619.8333 " fill="none" id="SimpleList-SimpleListImpl" style="stroke: #A80036; stroke-width: 1.0; stroke-dasharray: 7.0,7.0;"/><polygon fill="none" points="1328.0001,361.1347,1335,341.1347,1342.0001,361.1346,1328.0001,361.1347" style="stroke: #A80036; stroke-width: 1.0;"/><!--link Iterator to SimpleIteratorImpl--><path d="M1556.0638,137.2996 C1559.0863,179.9169 1563.0587,235.9275 1565.2891,267.3759 " fill="none" id="Iterator-SimpleIteratorImpl" style="stroke: #A80036; stroke-width: 1.0; stroke-dasharray: 7.0,7.0;"/><polygon fill="none" points="1549.0797,137.7702,1554.6472,117.3251,1563.0446,136.7797,1549.0797,137.7702" style="stroke: #A80036; stroke-width: 1.0;"/><!--link SimpleListImpl to Element--><path d="M1303.7383,694.3326 C1296.0632,708.9539 1290,725.7919 1290,742.5 C1290,742.5 1290,742.5 1290,882.5 C1290,904.0641 1298.4863,925.3854 1309.3262,943.8239 " fill="none" id="SimpleListImpl-Element" style="stroke: #A80036; stroke-width: 1.0;"/><ellipse cx="1307.426" cy="687.9868" fill="#FFFFFF" rx="8" ry="8" style="stroke: #A80036; stroke-width: 1.0;"/><line style="stroke: #A80036; stroke-width: 1.0;" x1="1303.4064" x2="1311.4457" y1="694.9036" y2="681.07"/><line style="stroke: #A80036; stroke-width: 1.0;" x1="1300.5092" x2="1314.3428" y1="683.9671" y2="692.0065"/><text fill="#000000" font-family="sans-serif" font-size="13" lengthAdjust="spacingAndGlyphs" textLength="44" x="1291" y="817.0669">nested</text><!--link Element to SimpleListImpl--><path d="M1395.5399,931.5862 C1401.6731,915.9731 1406,899.0821 1406,882.5 C1406,742.5 1406,742.5 1406,742.5 C1406,718.6929 1390.9151,697.2863 1374.6517,681.1254 " fill="none" id="Element-SimpleListImpl" style="stroke: #A80036; stroke-width: 1.0;"/><polygon fill="#FFFFFF" points="1390.2822,943.8034,1396.3282,939.8733,1395.0259,932.7808,1388.9798,936.7109,1390.2822,943.8034" style="stroke: #A80036; stroke-width: 1.0;"/><text fill="#000000" font-family="sans-serif" font-size="13" lengthAdjust="spacingAndGlyphs" textLength="32" x="1407" y="817.0669">head</text><!--link Plant to Flower--><path d="M900.1742,393.1691 C897.6129,406.916 896,420.9516 896,434.5 C896,434.5 896,434.5 896,558.5 C896,578.9444 896,601.9444 896,619.8333 " fill="none" id="Plant-Flower" style="stroke: #A80036; stroke-width: 1.0;"/><polygon fill="none" points="893.4045,391.3603,904.5279,373.3251,907.0792,394.3606,893.4045,391.3603" style="stroke: #A80036; stroke-width: 1.0;"/><!--link Plant to Shrub--><path d="M996.5998,392.0899 C1001.1499,405.883 1004,420.2216 1004,434.5 C1004,434.5 1004,434.5 1004,558.5 C1004,582.3071 1019.0849,603.7137 1035.3483,619.8746 " fill="none" id="Plant-Shrub" style="stroke: #A80036; stroke-width: 1.0;"/><polygon fill="none" points="989.9062,394.1925,989.1548,373.0162,1002.948,389.1019,989.9062,394.1925" style="stroke: #A80036; stroke-width: 1.0;"/><!--
@startuml
package java.lang {
	
    interface Iterable<T> {
    	+Iterator<T> iterator()
    }

	interface Iterator<T> {
    	+boolean hasNext()
        +T next()
    }
}

package de.fhro.inf.prg3.a04 {

    package de.fhro.inf.prg3.a04.collections {
        interface SimpleFilter<T> {
            +include(T item): boolean
        }

        interface SimpleList<T> extends Iterable {
            +add(T item)
            +addEmpty()
            +size(): int
            +filter(SimpleFilter<T> filter): SimpleList
        }

        class SimpleListImpl<T> implements SimpleList {
           -head: Element
        }

        class SimpleIteratorImpl implements Iterator {
        }

        -class Element<T> {
        	-T item
            -Element<T> next;
    
            +T getItem()
            +Element<T> getNext()
            +void setNext(Element<T> e)
        }

        SimpleListImpl +- - Element : nested
        Element o- - SimpleListImpl : head
    }

    package de.fhro.inf.prg3.a04.models {
        enum PlantColor {
	        RED,
            YELLOW,
            BLUE,
            ORANGE,
            GREEN
        }

        class Plant {
	        -{static}int instanceCounter
            -int id
            -double height;
            -String family;
            #Plant(double height, String family)
            +abstract PlantColor getColor()
            +int getId()
            +double getHeight()
            +String getFamily
        }

        class Flower extends Plant {
        	+PlantColor getColor()
        }

        class Shrub extends Plant {
        	+PlantColor getColor()
        }
    }

    class PlantBed {

	    -plants: SimpleList<Plant>

        +add(Plant p)
        +getPlants(): SimpleList<Plant>
        +getPlantsWithColor(PlantColor pc): SimpleList<T>
    }

    abstract class PlantUtility {
	    +{static}splitByColor(PlantBed plantBed): Map<PlantColor, SimpleList<Plant>> 
    }

}
@enduml

PlantUML version 1.2017.18(Fri Oct 06 18:56:32 CEST 2017)
(GPL source distribution)
Java Runtime: OpenJDK Runtime Environment
JVM: OpenJDK 64-Bit Server VM
Java Version: 1.8.0_144-b01
Operating System: Linux
OS Version: 4.13.7-1-ARCH
Default Encoding: UTF-8
Language: en
Country: US
--></g></svg>