<?xml version="1.0" encoding="UTF-8" standalone="no"?><svg xmlns="http://www.w3.org/2000/svg" xmlns:xlink="http://www.w3.org/1999/xlink" contentScriptType="application/ecmascript" contentStyleType="text/css" height="591px" preserveAspectRatio="none" style="width:655px;height:591px;" version="1.1" viewBox="0 0 655 591" width="655px" zoomAndPan="magnify"><defs><filter height="300%" id="ffv7th5v9c08l" width="300%" x="-1" y="-1"><feGaussianBlur result="blurOut" stdDeviation="2.0"/><feColorMatrix in="blurOut" result="blurOut2" type="matrix" values="0 0 0 0 0 0 0 0 0 0 0 0 0 0 0 0 0 0 .4 0"/><feOffset dx="4.0" dy="4.0" in="blurOut2" result="blurOut3"/><feBlend in="SourceGraphic" in2="blurOut3" mode="normal"/></filter></defs><g><!--cluster java.lang--><polygon fill="#FFFFFF" filter="url(#ffv7th5v9c08l)" points="44,16,113,16,120,38.4883,368,38.4883,368,125,44,125,44,16" style="stroke: #000000; stroke-width: 2.0;"/><line style="stroke: #000000; stroke-width: 2.0;" x1="44" x2="120" y1="38.4883" y2="38.4883"/><text fill="#000000" font-family="sans-serif" font-size="14" font-weight="bold" lengthAdjust="spacingAndGlyphs" textLength="63" x="48" y="31.5352">java.lang</text><!--cluster de.fhro.inf.prg3.a04.collections--><polygon fill="#FFFFFF" filter="url(#ffv7th5v9c08l)" points="14,150,239,150,246,172.4883,633,172.4883,633,579,14,579,14,150" style="stroke: #000000; stroke-width: 2.0;"/><line style="stroke: #000000; stroke-width: 2.0;" x1="14" x2="246" y1="172.4883" y2="172.4883"/><text fill="#000000" font-family="sans-serif" font-size="14" font-weight="bold" lengthAdjust="spacingAndGlyphs" textLength="219" x="18" y="165.5352">de.fhro.inf.prg3.a04.collections</text><!--class Iterable--><rect fill="#FEFECE" filter="url(#ffv7th5v9c08l)" height="60.9551" id="Iterable" style="stroke: #A80036; stroke-width: 1.5;" width="145" x="214.5" y="49.5"/><ellipse cx="255.15" cy="65.5" fill="#B4A7E5" rx="11" ry="11" style="stroke: #A80036; stroke-width: 1.0;"/><path d="M251.0777,61.2651 L251.0777,59.1069 L258.4571,59.1069 L258.4571,61.2651 L255.9918,61.2651 L255.9918,69.3418 L258.4571,69.3418 L258.4571,71.5 L251.0777,71.5 L251.0777,69.3418 L253.5431,69.3418 L253.5431,61.2651 Z "/><text fill="#000000" font-family="sans-serif" font-size="12" font-style="italic" lengthAdjust="spacingAndGlyphs" textLength="44" x="274.85" y="70.0352">Iterable</text><rect fill="#FFFFFF" height="16.1328" style="stroke: #000000; stroke-width: 1.0; stroke-dasharray: 2.0,2.0;" width="10" x="352.5" y="46.5"/><text fill="#000000" font-family="sans-serif" font-size="12" font-style="italic" lengthAdjust="spacingAndGlyphs" textLength="8" x="353.5" y="59.1016">T</text><line style="stroke: #A80036; stroke-width: 1.5;" x1="215.5" x2="358.5" y1="81.5" y2="81.5"/><line style="stroke: #A80036; stroke-width: 1.5;" x1="215.5" x2="358.5" y1="89.5" y2="89.5"/><ellipse cx="225.5" cy="101.4775" fill="#84BE84" rx="3" ry="3" style="stroke: #038048; stroke-width: 1.0;"/><text fill="#000000" font-family="sans-serif" font-size="11" lengthAdjust="spacingAndGlyphs" textLength="119" x="234.5" y="104.1348">iterator(): Iterator&lt;T&gt;</text><!--class Iterator--><rect fill="#FEFECE" filter="url(#ffv7th5v9c08l)" height="73.9102" id="Iterator" style="stroke: #A80036; stroke-width: 1.5;" width="127" x="52.5" y="43"/><ellipse cx="85.95" cy="59" fill="#B4A7E5" rx="11" ry="11" style="stroke: #A80036; stroke-width: 1.0;"/><path d="M81.8777,54.7651 L81.8777,52.6069 L89.2571,52.6069 L89.2571,54.7651 L86.7918,54.7651 L86.7918,62.8418 L89.2571,62.8418 L89.2571,65 L81.8777,65 L81.8777,62.8418 L84.3431,62.8418 L84.3431,54.7651 Z "/><text fill="#000000" font-family="sans-serif" font-size="12" font-style="italic" lengthAdjust="spacingAndGlyphs" textLength="42" x="104.05" y="63.5352">Iterator</text><rect fill="#FFFFFF" height="16.1328" style="stroke: #000000; stroke-width: 1.0; stroke-dasharray: 2.0,2.0;" width="10" x="172.5" y="40"/><text fill="#000000" font-family="sans-serif" font-size="12" font-style="italic" lengthAdjust="spacingAndGlyphs" textLength="8" x="173.5" y="52.6016">T</text><line style="stroke: #A80036; stroke-width: 1.5;" x1="53.5" x2="178.5" y1="75" y2="75"/><line style="stroke: #A80036; stroke-width: 1.5;" x1="53.5" x2="178.5" y1="83" y2="83"/><ellipse cx="63.5" cy="94.9775" fill="#84BE84" rx="3" ry="3" style="stroke: #038048; stroke-width: 1.0;"/><text fill="#000000" font-family="sans-serif" font-size="11" lengthAdjust="spacingAndGlyphs" textLength="101" x="72.5" y="97.6348">hasNext(): boolean</text><ellipse cx="63.5" cy="107.9326" fill="#84BE84" rx="3" ry="3" style="stroke: #038048; stroke-width: 1.0;"/><text fill="#000000" font-family="sans-serif" font-size="11" lengthAdjust="spacingAndGlyphs" textLength="45" x="72.5" y="110.5898">next(): T</text><!--class SimpleFilter--><rect fill="#FEFECE" filter="url(#ffv7th5v9c08l)" height="60.9551" id="SimpleFilter" style="stroke: #A80036; stroke-width: 1.5;" width="158" x="467" y="196.5"/><ellipse cx="503.6" cy="212.5" fill="#B4A7E5" rx="11" ry="11" style="stroke: #A80036; stroke-width: 1.0;"/><path d="M499.5277,208.2651 L499.5277,206.1069 L506.9071,206.1069 L506.9071,208.2651 L504.4418,208.2651 L504.4418,216.3418 L506.9071,216.3418 L506.9071,218.5 L499.5277,218.5 L499.5277,216.3418 L501.9931,216.3418 L501.9931,208.2651 Z "/><text fill="#000000" font-family="sans-serif" font-size="12" font-style="italic" lengthAdjust="spacingAndGlyphs" textLength="66" x="522.4" y="217.0352">SimpleFilter</text><rect fill="#FFFFFF" height="16.1328" style="stroke: #000000; stroke-width: 1.0; stroke-dasharray: 2.0,2.0;" width="10" x="618" y="193.5"/><text fill="#000000" font-family="sans-serif" font-size="12" font-style="italic" lengthAdjust="spacingAndGlyphs" textLength="8" x="619" y="206.1016">T</text><line style="stroke: #A80036; stroke-width: 1.5;" x1="468" x2="624" y1="228.5" y2="228.5"/><line style="stroke: #A80036; stroke-width: 1.5;" x1="468" x2="624" y1="236.5" y2="236.5"/><ellipse cx="478" cy="248.4775" fill="#84BE84" rx="3" ry="3" style="stroke: #038048; stroke-width: 1.0;"/><text fill="#000000" font-family="sans-serif" font-size="11" lengthAdjust="spacingAndGlyphs" textLength="132" x="487" y="251.1348">include(item: T): boolean</text><!--class SimpleList--><rect fill="#FEFECE" filter="url(#ffv7th5v9c08l)" height="99.8203" id="SimpleList" style="stroke: #A80036; stroke-width: 1.5;" width="237" x="194.5" y="177"/><ellipse cx="274.25" cy="193" fill="#B4A7E5" rx="11" ry="11" style="stroke: #A80036; stroke-width: 1.0;"/><path d="M270.1777,188.7651 L270.1777,186.6069 L277.5571,186.6069 L277.5571,188.7651 L275.0918,188.7651 L275.0918,196.8418 L277.5571,196.8418 L277.5571,199 L270.1777,199 L270.1777,196.8418 L272.6431,196.8418 L272.6431,188.7651 Z "/><text fill="#000000" font-family="sans-serif" font-size="12" font-style="italic" lengthAdjust="spacingAndGlyphs" textLength="57" x="294.75" y="197.5352">SimpleList</text><rect fill="#FFFFFF" height="16.1328" style="stroke: #000000; stroke-width: 1.0; stroke-dasharray: 2.0,2.0;" width="10" x="424.5" y="174"/><text fill="#000000" font-family="sans-serif" font-size="12" font-style="italic" lengthAdjust="spacingAndGlyphs" textLength="8" x="425.5" y="186.6016">T</text><line style="stroke: #A80036; stroke-width: 1.5;" x1="195.5" x2="430.5" y1="209" y2="209"/><line style="stroke: #A80036; stroke-width: 1.5;" x1="195.5" x2="430.5" y1="217" y2="217"/><ellipse cx="205.5" cy="228.9775" fill="#84BE84" rx="3" ry="3" style="stroke: #038048; stroke-width: 1.0;"/><text fill="#000000" font-family="sans-serif" font-size="11" lengthAdjust="spacingAndGlyphs" textLength="64" x="214.5" y="231.6348">add(item: T)</text><ellipse cx="205.5" cy="241.9326" fill="#84BE84" rx="3" ry="3" style="stroke: #038048; stroke-width: 1.0;"/><text fill="#000000" font-family="sans-serif" font-size="11" lengthAdjust="spacingAndGlyphs" textLength="66" x="214.5" y="244.5898">addDefault()</text><ellipse cx="205.5" cy="254.8877" fill="#84BE84" rx="3" ry="3" style="stroke: #038048; stroke-width: 1.0;"/><text fill="#000000" font-family="sans-serif" font-size="11" lengthAdjust="spacingAndGlyphs" textLength="49" x="214.5" y="257.5449">size(): int</text><ellipse cx="205.5" cy="267.8428" fill="#84BE84" rx="3" ry="3" style="stroke: #038048; stroke-width: 1.0;"/><text fill="#000000" font-family="sans-serif" font-size="11" lengthAdjust="spacingAndGlyphs" textLength="211" x="214.5" y="270.5">filter(filter: SimpleFilter&lt;T&gt;): SimpleList</text><!--class SimpleListImpl--><rect fill="#FEFECE" filter="url(#ffv7th5v9c08l)" height="60.9551" id="SimpleListImpl" style="stroke: #A80036; stroke-width: 1.5;" width="126" x="250" y="337"/><ellipse cx="265" cy="353" fill="#ADD1B2" rx="11" ry="11" style="stroke: #A80036; stroke-width: 1.0;"/><path d="M267.9731,358.6431 Q267.3921,358.9419 266.7529,359.0913 Q266.1138,359.2407 265.4082,359.2407 Q262.9014,359.2407 261.5815,357.5889 Q260.2617,355.937 260.2617,352.8159 Q260.2617,349.6865 261.5815,348.0347 Q262.9014,346.3828 265.4082,346.3828 Q266.1138,346.3828 266.7612,346.5322 Q267.4087,346.6816 267.9731,346.9805 L267.9731,349.7031 Q267.3423,349.1221 266.7488,348.8523 Q266.1553,348.5825 265.5244,348.5825 Q264.1797,348.5825 263.4949,349.6492 Q262.8101,350.7158 262.8101,352.8159 Q262.8101,354.9077 263.4949,355.9744 Q264.1797,357.041 265.5244,357.041 Q266.1553,357.041 266.7488,356.7712 Q267.3423,356.5015 267.9731,355.9204 Z "/><text fill="#000000" font-family="sans-serif" font-size="12" lengthAdjust="spacingAndGlyphs" textLength="82" x="279" y="357.5352">SimpleListImpl</text><rect fill="#FFFFFF" height="16.1328" style="stroke: #000000; stroke-width: 1.0; stroke-dasharray: 2.0,2.0;" width="10" x="369" y="334"/><text fill="#000000" font-family="sans-serif" font-size="12" font-style="italic" lengthAdjust="spacingAndGlyphs" textLength="8" x="370" y="346.6016">T</text><line style="stroke: #A80036; stroke-width: 1.5;" x1="251" x2="375" y1="369" y2="369"/><rect fill="none" height="6" style="stroke: #C82930; stroke-width: 1.0;" width="6" x="258" y="377.9775"/><text fill="#000000" font-family="sans-serif" font-size="11" lengthAdjust="spacingAndGlyphs" textLength="74" x="270" y="383.6348">head: Element</text><line style="stroke: #A80036; stroke-width: 1.5;" x1="251" x2="375" y1="389.9551" y2="389.9551"/><!--class SimpleIteratorImpl--><rect fill="#FEFECE" filter="url(#ffv7th5v9c08l)" height="48" id="SimpleIteratorImpl" style="stroke: #A80036; stroke-width: 1.5;" width="137" x="22.5" y="203"/><ellipse cx="37.5" cy="219" fill="#ADD1B2" rx="11" ry="11" style="stroke: #A80036; stroke-width: 1.0;"/><path d="M40.4731,224.6431 Q39.8921,224.9419 39.2529,225.0913 Q38.6138,225.2407 37.9082,225.2407 Q35.4014,225.2407 34.0815,223.5889 Q32.7617,221.937 32.7617,218.8159 Q32.7617,215.6865 34.0815,214.0347 Q35.4014,212.3828 37.9082,212.3828 Q38.6138,212.3828 39.2612,212.5322 Q39.9087,212.6816 40.4731,212.9805 L40.4731,215.7031 Q39.8423,215.1221 39.2488,214.8523 Q38.6553,214.5825 38.0244,214.5825 Q36.6797,214.5825 35.9949,215.6492 Q35.3101,216.7158 35.3101,218.8159 Q35.3101,220.9077 35.9949,221.9744 Q36.6797,223.041 38.0244,223.041 Q38.6553,223.041 39.2488,222.7712 Q39.8423,222.5015 40.4731,221.9204 Z "/><text fill="#000000" font-family="sans-serif" font-size="12" lengthAdjust="spacingAndGlyphs" textLength="105" x="51.5" y="223.5352">SimpleIteratorImpl</text><line style="stroke: #A80036; stroke-width: 1.5;" x1="23.5" x2="158.5" y1="235" y2="235"/><line style="stroke: #A80036; stroke-width: 1.5;" x1="23.5" x2="158.5" y1="243" y2="243"/><!--class Element--><rect fill="#FEFECE" filter="url(#ffv7th5v9c08l)" height="112.7754" id="Element" style="stroke: #A80036; stroke-width: 1.5;" width="154" x="236" y="458"/><ellipse cx="274.85" cy="474" fill="#ADD1B2" rx="11" ry="11" style="stroke: #A80036; stroke-width: 1.0;"/><path d="M277.8231,479.6431 Q277.2421,479.9419 276.6029,480.0913 Q275.9638,480.2407 275.2582,480.2407 Q272.7514,480.2407 271.4315,478.5889 Q270.1117,476.937 270.1117,473.8159 Q270.1117,470.6865 271.4315,469.0347 Q272.7514,467.3828 275.2582,467.3828 Q275.9638,467.3828 276.6112,467.5322 Q277.2587,467.6816 277.8231,467.9805 L277.8231,470.7031 Q277.1923,470.1221 276.5988,469.8523 Q276.0053,469.5825 275.3744,469.5825 Q274.0297,469.5825 273.3449,470.6492 Q272.6601,471.7158 272.6601,473.8159 Q272.6601,475.9077 273.3449,476.9744 Q274.0297,478.041 275.3744,478.041 Q276.0053,478.041 276.5988,477.7712 Q277.1923,477.5015 277.8231,476.9204 Z "/><rect fill="#F24D5C" height="6" style="stroke: #C82930; stroke-width: 1.0;" width="6" x="296.15" y="470.5"/><text fill="#000000" font-family="sans-serif" font-size="12" lengthAdjust="spacingAndGlyphs" textLength="46" x="305.15" y="478.5352">Element</text><rect fill="#FFFFFF" height="16.1328" style="stroke: #000000; stroke-width: 1.0; stroke-dasharray: 2.0,2.0;" width="10" x="383" y="455"/><text fill="#000000" font-family="sans-serif" font-size="12" font-style="italic" lengthAdjust="spacingAndGlyphs" textLength="8" x="384" y="467.6016">T</text><line style="stroke: #A80036; stroke-width: 1.5;" x1="237" x2="389" y1="490" y2="490"/><rect fill="none" height="6" style="stroke: #C82930; stroke-width: 1.0;" width="6" x="244" y="498.9775"/><text fill="#000000" font-family="sans-serif" font-size="11" lengthAdjust="spacingAndGlyphs" textLength="36" x="256" y="504.6348">item: T</text><rect fill="none" height="6" style="stroke: #C82930; stroke-width: 1.0;" width="6" x="244" y="511.9326"/><text fill="#000000" font-family="sans-serif" font-size="11" lengthAdjust="spacingAndGlyphs" textLength="97" x="256" y="517.5898">next: Element&lt;T&gt;</text><line style="stroke: #A80036; stroke-width: 1.5;" x1="237" x2="389" y1="523.9102" y2="523.9102"/><ellipse cx="247" cy="535.8877" fill="#84BE84" rx="3" ry="3" style="stroke: #038048; stroke-width: 1.0;"/><text fill="#000000" font-family="sans-serif" font-size="11" lengthAdjust="spacingAndGlyphs" textLength="61" x="256" y="538.5449">getItem(): T</text><ellipse cx="247" cy="548.8428" fill="#84BE84" rx="3" ry="3" style="stroke: #038048; stroke-width: 1.0;"/><text fill="#000000" font-family="sans-serif" font-size="11" lengthAdjust="spacingAndGlyphs" textLength="123" x="256" y="551.5">getNext(): Element&lt;T&gt;</text><ellipse cx="247" cy="561.7979" fill="#84BE84" rx="3" ry="3" style="stroke: #038048; stroke-width: 1.0;"/><text fill="#000000" font-family="sans-serif" font-size="11" lengthAdjust="spacingAndGlyphs" textLength="128" x="256" y="564.4551">setNext(e: Element&lt;T&gt;)</text><!--link Iterable to SimpleList--><path d="M295.9672,130.6989 C298.6076,145.6276 301.4944,161.9492 304.1288,176.8437 " fill="none" id="Iterable-SimpleList" style="stroke: #A80036; stroke-width: 1.0;"/><polygon fill="none" points="289.0409,131.7295,292.4505,110.816,302.8269,129.2911,289.0409,131.7295" style="stroke: #A80036; stroke-width: 1.0;"/><!--link SimpleList to SimpleListImpl--><path d="M313,297.3559 C313,311.1946 313,325.0278 313,336.7074 " fill="none" id="SimpleList-SimpleListImpl" style="stroke: #A80036; stroke-width: 1.0; stroke-dasharray: 7.0,7.0;"/><polygon fill="none" points="306.0001,297.3269,313,277.3269,320.0001,297.3268,306.0001,297.3269" style="stroke: #A80036; stroke-width: 1.0;"/><!--link Iterator to SimpleIteratorImpl--><path d="M106.2799,137.1542 C102.3999,159.9686 98.1435,184.9963 95.1107,202.8289 " fill="none" id="Iterator-SimpleIteratorImpl" style="stroke: #A80036; stroke-width: 1.0; stroke-dasharray: 7.0,7.0;"/><polygon fill="none" points="99.4372,135.6376,109.6914,117.0943,113.2391,137.9849,99.4372,135.6376" style="stroke: #A80036; stroke-width: 1.0;"/><!--link SimpleListImpl to Element--><path d="M301.0841,413.4163 C300.1922,427.5059 300.0156,443.1773 300.5542,457.8935 " fill="none" id="SimpleListImpl-Element" style="stroke: #A80036; stroke-width: 1.0;"/><ellipse cx="301.703" cy="406.286" fill="#FFFFFF" rx="8" ry="8" style="stroke: #A80036; stroke-width: 1.0;"/><line style="stroke: #A80036; stroke-width: 1.0;" x1="301.0111" x2="302.3949" y1="414.256" y2="398.316"/><line style="stroke: #A80036; stroke-width: 1.0;" x1="293.733" x2="309.673" y1="405.5941" y2="406.9779"/><!--link Element to SimpleListImpl--><path d="M326.1779,457.8935 C326.7727,442.5443 326.5437,426.156 325.4908,411.6072 " fill="none" id="Element-SimpleListImpl" style="stroke: #A80036; stroke-width: 1.0;"/><polygon fill="#A80036" points="324.2289,398.316,320.814,404.6672,325.3632,410.2623,328.7782,403.911,324.2289,398.316" style="stroke: #A80036; stroke-width: 1.0;"/><!--
@startuml
package java.lang {
    
    interface Iterable<T> {
        +iterator(): Iterator<T>
    }

    interface Iterator<T> {
        +hasNext(): boolean
        +next(): T
    }
}

package de.fhro.inf.prg3.a04.collections {
        interface SimpleFilter<T> {
            +include(item: T): boolean
        }

        interface SimpleList<T> extends Iterable {
            +add(item: T)
            +addDefault()
            +size(): int
            +filter(filter: SimpleFilter<T>): SimpleList
        }

        class SimpleListImpl<T> implements SimpleList {
           -head: Element
        }

        class SimpleIteratorImpl implements Iterator {
        }

        -class Element<T> {
            -item: T
            -next: Element<T>
    
            +getItem(): T
            +getNext(): Element<T>
            +setNext(e: Element<T>)
        }

        SimpleListImpl +- - Element
        Element - -* SimpleListImpl
    }
@enduml

PlantUML version 1.2017.16(Sun Sep 03 12:53:37 CEST 2017)
(GPL source distribution)
Java Runtime: Java(TM) SE Runtime Environment
JVM: Java HotSpot(TM) 64-Bit Server VM
Java Version: 1.8.0_144-b01
Operating System: Mac OS X
OS Version: 10.12.6
Default Encoding: UTF-8
Language: en
Country: US
--></g></svg>