<?xml version="1.0" encoding="UTF-8" standalone="no"?><svg xmlns="http://www.w3.org/2000/svg" xmlns:xlink="http://www.w3.org/1999/xlink" contentScriptType="application/ecmascript" contentStyleType="text/css" height="296px" preserveAspectRatio="none" style="width:871px;height:296px;" version="1.1" viewBox="0 0 871 296" width="871px" zoomAndPan="magnify"><defs><filter height="300%" id="fdu4307yg3d4k" width="300%" x="-1" y="-1"><feGaussianBlur result="blurOut" stdDeviation="2.0"/><feColorMatrix in="blurOut" result="blurOut2" type="matrix" values="0 0 0 0 0 0 0 0 0 0 0 0 0 0 0 0 0 0 .4 0"/><feOffset dx="4.0" dy="4.0" in="blurOut2" result="blurOut3"/><feBlend in="SourceGraphic" in2="blurOut3" mode="normal"/></filter></defs><g><!--cluster java.lang--><polygon fill="#FFFFFF" filter="url(#fdu4307yg3d4k)" points="571,16,646,16,653,38.2969,739,38.2969,739,112,571,112,571,16" style="stroke: #000000; stroke-width: 2.0;"/><line style="stroke: #000000; stroke-width: 2.0;" x1="571" x2="653" y1="38.2969" y2="38.2969"/><text fill="#000000" font-family="sans-serif" font-size="14" font-weight="bold" lengthAdjust="spacingAndGlyphs" textLength="69" x="575" y="30.9951">java.lang</text><!--cluster de.fhro.inf.prg3.a04.collections--><polygon fill="#FFFFFF" filter="url(#fdu4307yg3d4k)" points="14,137,269,137,276,159.2969,849,159.2969,849,284,14,284,14,137" style="stroke: #000000; stroke-width: 2.0;"/><line style="stroke: #000000; stroke-width: 2.0;" x1="14" x2="276" y1="159.2969" y2="159.2969"/><text fill="#000000" font-family="sans-serif" font-size="14" font-weight="bold" lengthAdjust="spacingAndGlyphs" textLength="249" x="18" y="151.9951">de.fhro.inf.prg3.a04.collections</text><!--class Iterable--><rect fill="#FEFECE" filter="url(#fdu4307yg3d4k)" height="60.8047" id="Iterable" style="stroke: #A80036; stroke-width: 1.5;" width="151" x="579.5" y="43"/><ellipse cx="616.1" cy="59" fill="#B4A7E5" rx="11" ry="11" style="stroke: #A80036; stroke-width: 1.0;"/><path d="M612.0219,54.7656 L612.0219,52.6094 L619.4125,52.6094 L619.4125,54.7656 L616.9438,54.7656 L616.9438,62.8438 L619.4125,62.8438 L619.4125,65 L612.0219,65 L612.0219,62.8438 L614.4906,62.8438 L614.4906,54.7656 L612.0219,54.7656 Z "/><ellipse cx="639.9" cy="58.5" fill="#84BE84" rx="3" ry="3" style="stroke: #038048; stroke-width: 1.0;"/><text fill="#000000" font-family="sans-serif" font-size="12" font-style="italic" lengthAdjust="spacingAndGlyphs" textLength="49" x="645.9" y="63.1543">Iterable</text><rect fill="#FFFFFF" height="15.9688" style="stroke: #000000; stroke-width: 1.0; stroke-dasharray: 2.0,2.0;" width="9" x="724.5" y="40"/><text fill="#000000" font-family="sans-serif" font-size="12" font-style="italic" lengthAdjust="spacingAndGlyphs" textLength="7" x="725.5" y="52.1387">T</text><line style="stroke: #A80036; stroke-width: 1.5;" x1="580.5" x2="729.5" y1="75" y2="75"/><line style="stroke: #A80036; stroke-width: 1.5;" x1="580.5" x2="729.5" y1="83" y2="83"/><ellipse cx="590.5" cy="94.9023" fill="#84BE84" rx="3" ry="3" style="stroke: #038048; stroke-width: 1.0;"/><text fill="#000000" font-family="sans-serif" font-size="11" lengthAdjust="spacingAndGlyphs" textLength="125" x="599.5" y="97.2104">iterator(): Iterator&lt;T&gt;</text><!--class SimpleList--><rect fill="#FEFECE" filter="url(#fdu4307yg3d4k)" height="112.0234" id="SimpleList" style="stroke: #A80036; stroke-width: 1.5;" width="371" x="469.5" y="164"/><ellipse cx="608.75" cy="180" fill="#B4A7E5" rx="11" ry="11" style="stroke: #A80036; stroke-width: 1.0;"/><path d="M604.6719,175.7656 L604.6719,173.6094 L612.0625,173.6094 L612.0625,175.7656 L609.5938,175.7656 L609.5938,183.8438 L612.0625,183.8438 L612.0625,186 L604.6719,186 L604.6719,183.8438 L607.1406,183.8438 L607.1406,175.7656 L604.6719,175.7656 Z "/><ellipse cx="634.25" cy="179.5" fill="#84BE84" rx="3" ry="3" style="stroke: #038048; stroke-width: 1.0;"/><text fill="#000000" font-family="sans-serif" font-size="12" font-style="italic" lengthAdjust="spacingAndGlyphs" textLength="62" x="640.25" y="184.1543">SimpleList</text><rect fill="#FFFFFF" height="15.9688" style="stroke: #000000; stroke-width: 1.0; stroke-dasharray: 2.0,2.0;" width="9" x="834.5" y="161"/><text fill="#000000" font-family="sans-serif" font-size="12" font-style="italic" lengthAdjust="spacingAndGlyphs" textLength="7" x="835.5" y="173.1387">T</text><line style="stroke: #A80036; stroke-width: 1.5;" x1="470.5" x2="839.5" y1="196" y2="196"/><line style="stroke: #A80036; stroke-width: 1.5;" x1="470.5" x2="839.5" y1="204" y2="204"/><ellipse cx="480.5" cy="215.9023" fill="#84BE84" rx="3" ry="3" style="stroke: #038048; stroke-width: 1.0;"/><text fill="#000000" font-family="sans-serif" font-size="11" lengthAdjust="spacingAndGlyphs" textLength="69" x="489.5" y="218.2104">add(item: T)</text><ellipse cx="480.5" cy="228.707" fill="#84BE84" rx="3" ry="3" style="stroke: #038048; stroke-width: 1.0;"/><text fill="#000000" font-family="sans-serif" font-size="11" lengthAdjust="spacingAndGlyphs" textLength="69" x="489.5" y="231.0151">addDefault()</text><ellipse cx="480.5" cy="241.5117" fill="#84BE84" rx="3" ry="3" style="stroke: #038048; stroke-width: 1.0;"/><text fill="#000000" font-family="sans-serif" font-size="11" lengthAdjust="spacingAndGlyphs" textLength="52" x="489.5" y="243.8198">size(): int</text><ellipse cx="480.5" cy="254.3164" fill="#84BE84" rx="3" ry="3" style="stroke: #038048; stroke-width: 1.0;"/><text fill="#000000" font-family="sans-serif" font-size="11" lengthAdjust="spacingAndGlyphs" textLength="270" x="489.5" y="256.6245">default filter(filter: SimpleFilter&lt;T&gt;): SimpleList</text><ellipse cx="480.5" cy="267.1211" fill="#84BE84" rx="3" ry="3" style="stroke: #038048; stroke-width: 1.0;"/><text fill="#000000" font-family="sans-serif" font-size="11" lengthAdjust="spacingAndGlyphs" textLength="345" x="489.5" y="269.4292">default &lt;R&gt; map(Function&lt;T, R&gt; transform): SimpleList&lt;R&gt;</text><!--class CollectionsUtility--><rect fill="#FEFECE" filter="url(#fdu4307yg3d4k)" height="60.8047" id="CollectionsUtility" style="stroke: #A80036; stroke-width: 1.5;" width="412" x="22" y="189.5"/><ellipse cx="167.25" cy="205.5" fill="#A9DCDF" rx="11" ry="11" style="stroke: #A80036; stroke-width: 1.0;"/><path d="M167.3594,200.8438 L166.2031,205.9219 L168.5313,205.9219 L167.3594,200.8438 Z M165.875,198.6094 L168.8594,198.6094 L172.2188,211 L169.7656,211 L169,207.9375 L165.7188,207.9375 L164.9688,211 L162.5313,211 L165.875,198.6094 Z "/><ellipse cx="192.75" cy="205" fill="#84BE84" rx="3" ry="3" style="stroke: #038048; stroke-width: 1.0;"/><text fill="#000000" font-family="sans-serif" font-size="12" font-style="italic" lengthAdjust="spacingAndGlyphs" textLength="102" x="198.75" y="209.6543">CollectionsUtility</text><line style="stroke: #A80036; stroke-width: 1.5;" x1="23" x2="433" y1="221.5" y2="221.5"/><line style="stroke: #A80036; stroke-width: 1.5;" x1="23" x2="433" y1="229.5" y2="229.5"/><ellipse cx="33" cy="241.4023" fill="#84BE84" rx="3" ry="3" style="stroke: #038048; stroke-width: 1.0;"/><text fill="#000000" font-family="sans-serif" font-size="11" lengthAdjust="spacingAndGlyphs" text-decoration="underline" textLength="386" x="42" y="243.7104">&lt;T&gt; sort(SimpleList&lt;T&gt; list, Comparator&lt;T&gt; cmp): SimpleList&lt;T&gt;</text><line style="stroke: #000000; stroke-width: 1.0;" x1="42" x2="428" y1="245.7104" y2="245.7104"/><!--link Iterable to SimpleList--><path d="M655,124.4087 C655,137.1545 655,150.8982 655,163.8813 " fill="none" id="Iterable-SimpleList" style="stroke: #A80036; stroke-width: 1.0;"/><polygon fill="none" points="648.0001,124.2112,655,104.2112,662.0001,124.2112,648.0001,124.2112" style="stroke: #A80036; stroke-width: 1.0;"/><!--
@startuml

package java.lang {

    +interface Iterable<T> {
        +iterator(): Iterator<T>
    }
}

package de.fhro.inf.prg3.a04.collections {
    +interface SimpleList<T> extends Iterable {
        +add(item: T)
        +addDefault()
        +size(): int
        +default filter(filter: SimpleFilter<T>): SimpleList
        +default <R> map(Function<T, R> transform): SimpleList<R>
    }
    +abstract class CollectionsUtility {
        +{static}<T> sort(SimpleList<T> list, Comparator<T> cmp): SimpleList<T>
    }
}
@enduml

PlantUML version 1.2017.18(Fri Oct 06 18:56:32 CEST 2017)
(GPL source distribution)
Java Runtime: OpenJDK Runtime Environment
JVM: OpenJDK 64-Bit Server VM
Java Version: 1.8.0_144-b01
Operating System: Linux
OS Version: 4.13.8-1-ARCH
Default Encoding: UTF-8
Language: en
Country: US
--></g></svg>