<?xml version="1.0" encoding="UTF-8" standalone="no"?><svg xmlns="http://www.w3.org/2000/svg" xmlns:xlink="http://www.w3.org/1999/xlink" contentScriptType="application/ecmascript" contentStyleType="text/css" height="312px" preserveAspectRatio="none" style="width:769px;height:312px;" version="1.1" viewBox="0 0 769 312" width="769px" zoomAndPan="magnify"><defs><filter height="300%" id="f1ibjq6gxabqpu" width="300%" x="-1" y="-1"><feGaussianBlur result="blurOut" stdDeviation="2.0"/><feColorMatrix in="blurOut" result="blurOut2" type="matrix" values="0 0 0 0 0 0 0 0 0 0 0 0 0 0 0 0 0 0 .4 0"/><feOffset dx="4.0" dy="4.0" in="blurOut2" result="blurOut3"/><feBlend in="SourceGraphic" in2="blurOut3" mode="normal"/></filter></defs><g><!--cluster java.lang--><polygon fill="#FFFFFF" filter="url(#f1ibjq6gxabqpu)" points="498,16,566,16,573,41.0679,652,41.0679,652,117,498,117,498,16" style="stroke: #000000; stroke-width: 1.5;"/><line style="stroke: #000000; stroke-width: 1.5;" x1="498" x2="573" y1="41.0679" y2="41.0679"/><text fill="#000000" font-family="sans-serif" font-size="14" font-weight="bold" lengthAdjust="spacingAndGlyphs" textLength="62" x="502" y="32.9659">java.lang</text><!--cluster de.thro.inf.prg3.a04.collections--><polygon fill="#FFFFFF" filter="url(#f1ibjq6gxabqpu)" points="14,139,235,139,242,164.0679,747,164.0679,747,300,14,300,14,139" style="stroke: #000000; stroke-width: 1.5;"/><line style="stroke: #000000; stroke-width: 1.5;" x1="14" x2="242" y1="164.0679" y2="164.0679"/><text fill="#000000" font-family="sans-serif" font-size="14" font-weight="bold" lengthAdjust="spacingAndGlyphs" textLength="215" x="18" y="155.9659">de.thro.inf.prg3.a04.collections</text><!--class Iterable--><rect fill="#FEFECE" filter="url(#f1ibjq6gxabqpu)" height="62.9819" id="Iterable" style="stroke: #A80036; stroke-width: 1.5;" width="137" x="506.5" y="46"/><ellipse cx="540.4" cy="62" fill="#B4A7E5" rx="11" ry="11" style="stroke: #A80036; stroke-width: 1.0;"/><path d="M542.9625,68.5 L537.4469,68.5 L537.4469,67.0313 L538.9156,66.3594 L538.9156,58.5 L537.4469,57.8281 L537.4469,56.3594 L542.9625,56.3594 L542.9625,57.8281 L541.4938,58.5 L541.4938,66.3594 L542.9625,67.0313 L542.9625,68.5 Z "/><ellipse cx="563.6" cy="61.5" fill="#84BE84" rx="3" ry="3" style="stroke: #038048; stroke-width: 1.0;"/><text fill="#000000" font-family="sans-serif" font-size="12" font-style="italic" lengthAdjust="spacingAndGlyphs" textLength="42" x="569.6" y="66.656">Iterable</text><rect fill="#FFFFFF" height="18.3441" style="stroke: #000000; stroke-width: 1.0; stroke-dasharray: 2.0,2.0;" width="8" x="638.5" y="43"/><text fill="#000000" font-family="sans-serif" font-size="12" font-style="italic" lengthAdjust="spacingAndGlyphs" textLength="6" x="639.5" y="56.8281">T</text><line style="stroke: #A80036; stroke-width: 1.5;" x1="507.5" x2="642.5" y1="78" y2="78"/><line style="stroke: #A80036; stroke-width: 1.5;" x1="507.5" x2="642.5" y1="86" y2="86"/><ellipse cx="517.5" cy="98.9909" fill="#84BE84" rx="3" ry="3" style="stroke: #038048; stroke-width: 1.0;"/><text fill="#000000" font-family="sans-serif" font-size="11" lengthAdjust="spacingAndGlyphs" textLength="111" x="526.5" y="101.7589">iterator(): Iterator&lt;T&gt;</text><!--class SimpleList--><rect fill="#FEFECE" filter="url(#f1ibjq6gxabqpu)" height="122.9094" id="SimpleList" style="stroke: #A80036; stroke-width: 1.5;" width="328" x="411" y="169"/><ellipse cx="533.25" cy="185" fill="#B4A7E5" rx="11" ry="11" style="stroke: #A80036; stroke-width: 1.0;"/><path d="M535.8125,191.5 L530.2969,191.5 L530.2969,190.0313 L531.7656,189.3594 L531.7656,181.5 L530.2969,180.8281 L530.2969,179.3594 L535.8125,179.3594 L535.8125,180.8281 L534.3438,181.5 L534.3438,189.3594 L535.8125,190.0313 L535.8125,191.5 Z "/><ellipse cx="558.75" cy="184.5" fill="#84BE84" rx="3" ry="3" style="stroke: #038048; stroke-width: 1.0;"/><text fill="#000000" font-family="sans-serif" font-size="12" font-style="italic" lengthAdjust="spacingAndGlyphs" textLength="54" x="564.75" y="189.656">SimpleList</text><rect fill="#FFFFFF" height="18.3441" style="stroke: #000000; stroke-width: 1.0; stroke-dasharray: 2.0,2.0;" width="8" x="734" y="166"/><text fill="#000000" font-family="sans-serif" font-size="12" font-style="italic" lengthAdjust="spacingAndGlyphs" textLength="6" x="735" y="179.8281">T</text><line style="stroke: #A80036; stroke-width: 1.5;" x1="412" x2="738" y1="201" y2="201"/><line style="stroke: #A80036; stroke-width: 1.5;" x1="412" x2="738" y1="209" y2="209"/><ellipse cx="422" cy="221.9909" fill="#84BE84" rx="3" ry="3" style="stroke: #038048; stroke-width: 1.0;"/><text fill="#000000" font-family="sans-serif" font-size="11" lengthAdjust="spacingAndGlyphs" textLength="61" x="431" y="224.7589">add(item: T)</text><ellipse cx="422" cy="236.9728" fill="#84BE84" rx="3" ry="3" style="stroke: #038048; stroke-width: 1.0;"/><text fill="#000000" font-family="sans-serif" font-size="11" lengthAdjust="spacingAndGlyphs" textLength="64" x="431" y="239.7408">addDefault()</text><ellipse cx="422" cy="251.9547" fill="#84BE84" rx="3" ry="3" style="stroke: #038048; stroke-width: 1.0;"/><text fill="#000000" font-family="sans-serif" font-size="11" lengthAdjust="spacingAndGlyphs" textLength="45" x="431" y="254.7227">size(): int</text><ellipse cx="422" cy="266.9366" fill="#84BE84" rx="3" ry="3" style="stroke: #038048; stroke-width: 1.0;"/><text fill="#000000" font-family="sans-serif" font-size="11" lengthAdjust="spacingAndGlyphs" textLength="241" x="431" y="269.7046">default filter(filter: SimpleFilter&lt;T&gt;): SimpleList</text><ellipse cx="422" cy="281.9185" fill="#84BE84" rx="3" ry="3" style="stroke: #038048; stroke-width: 1.0;"/><text fill="#000000" font-family="sans-serif" font-size="11" lengthAdjust="spacingAndGlyphs" textLength="302" x="431" y="284.6865">default &lt;R&gt; map(Function&lt;T, R&gt; transform): SimpleList&lt;R&gt;</text><!--class CollectionsUtility--><rect fill="#FEFECE" filter="url(#f1ibjq6gxabqpu)" height="62.9819" id="CollectionsUtility" style="stroke: #A80036; stroke-width: 1.5;" width="353" x="22.5" y="199"/><ellipse cx="145.25" cy="215" fill="#A9DCDF" rx="11" ry="11" style="stroke: #A80036; stroke-width: 1.0;"/><path d="M148.2031,220.25 L147.3281,217.3594 L142.9063,217.3594 L142.0156,220.25 L139.25,220.25 L143.5313,208.0625 L146.6719,208.0625 L150.9844,220.25 L148.2031,220.25 Z M146.7188,215.2031 L145.8281,212.375 Q145.75,212.0938 145.6094,211.6484 Q145.4688,211.2031 145.3359,210.7422 Q145.2031,210.2813 145.1094,209.9531 Q145.0313,210.2813 144.8828,210.7891 Q144.7344,211.2969 144.6094,211.7422 Q144.4844,212.1875 144.4219,212.375 L143.5469,215.2031 L146.7188,215.2031 Z "/><ellipse cx="170.75" cy="214.5" fill="#84BE84" rx="3" ry="3" style="stroke: #038048; stroke-width: 1.0;"/><text fill="#000000" font-family="sans-serif" font-size="12" font-style="italic" lengthAdjust="spacingAndGlyphs" textLength="88" x="176.75" y="219.656">CollectionsUtility</text><line style="stroke: #A80036; stroke-width: 1.5;" x1="23.5" x2="374.5" y1="231" y2="231"/><line style="stroke: #A80036; stroke-width: 1.5;" x1="23.5" x2="374.5" y1="239" y2="239"/><ellipse cx="33.5" cy="251.9909" fill="#84BE84" rx="3" ry="3" style="stroke: #038048; stroke-width: 1.0;"/><text fill="#000000" font-family="sans-serif" font-size="11" lengthAdjust="spacingAndGlyphs" text-decoration="underline" textLength="327" x="42.5" y="254.7589">&lt;T&gt; sort(SimpleList&lt;T&gt; list, Comparator&lt;T&gt; cmp): SimpleList&lt;T&gt;</text><line style="stroke: #000000; stroke-width: 1.0;" x1="42.5" x2="369.5" y1="256.7589" y2="256.7589"/><!--link Iterable to SimpleList--><path d="M575,129.3226 C575,142.018 575,155.729 575,168.8357 " fill="none" id="Iterable-SimpleList" style="stroke: #A80036; stroke-width: 1.0;"/><polygon fill="none" points="568.0001,129.2017,575,109.2017,582.0001,129.2017,568.0001,129.2017" style="stroke: #A80036; stroke-width: 1.0;"/><!--
@startuml

package java.lang {

    +interface Iterable<T> {
        +iterator(): Iterator<T>
    }
}

package de.thro.inf.prg3.a04.collections {
    +interface SimpleList<T> extends Iterable {
        +add(item: T)
        +addDefault()
        +size(): int
        +default filter(filter: SimpleFilter<T>): SimpleList
        +default <R> map(Function<T, R> transform): SimpleList<R>
    }
    +abstract class CollectionsUtility {
        +{static}<T> sort(SimpleList<T> list, Comparator<T> cmp): SimpleList<T>
    }
}
@enduml

PlantUML version 1.2018.11(Sat Sep 22 18:43:53 CEST 2018)
(GPL source distribution)
Java Runtime: OpenJDK Runtime Environment
JVM: OpenJDK 64-Bit Server VM
Java Version: 1.8.0_192-b26
Operating System: Linux
OS Version: 4.18.14-arch1-1-ARCH
Default Encoding: UTF-8
Language: en
Country: US
--></g></svg>