<?xml version="1.0" encoding="UTF-8" standalone="no"?><svg xmlns="http://www.w3.org/2000/svg" xmlns:xlink="http://www.w3.org/1999/xlink" contentScriptType="application/ecmascript" contentStyleType="text/css" height="609px" preserveAspectRatio="none" style="width:671px;height:609px;" version="1.1" viewBox="0 0 671 609" width="671px" zoomAndPan="magnify"><defs><filter height="300%" id="f150wfd0z3h4fg" width="300%" x="-1" y="-1"><feGaussianBlur result="blurOut" stdDeviation="2.0"/><feColorMatrix in="blurOut" result="blurOut2" type="matrix" values="0 0 0 0 0 0 0 0 0 0 0 0 0 0 0 0 0 0 .4 0"/><feOffset dx="4.0" dy="4.0" in="blurOut2" result="blurOut3"/><feBlend in="SourceGraphic" in2="blurOut3" mode="normal"/></filter></defs><g><!--cluster java.lang--><polygon fill="#FFFFFF" filter="url(#f150wfd0z3h4fg)" points="56,16,125,16,132,38.4883,373,38.4883,373,125,56,125,56,16" style="stroke: #000000; stroke-width: 2.0;"/><line style="stroke: #000000; stroke-width: 2.0;" x1="56" x2="132" y1="38.4883" y2="38.4883"/><text fill="#000000" font-family="sans-serif" font-size="14" font-weight="bold" lengthAdjust="spacingAndGlyphs" textLength="63" x="60" y="31.5352">java.lang</text><!--cluster de.fhro.inf.prg3.a04--><polygon fill="#FFFFFF" filter="url(#f150wfd0z3h4fg)" points="14,133,158,133,165,155.4883,649,155.4883,649,597,14,597,14,133" style="stroke: #000000; stroke-width: 2.0;"/><line style="stroke: #000000; stroke-width: 2.0;" x1="14" x2="165" y1="155.4883" y2="155.4883"/><text fill="#000000" font-family="sans-serif" font-size="14" font-weight="bold" lengthAdjust="spacingAndGlyphs" textLength="138" x="18" y="148.5352">de.fhro.inf.prg3.a04</text><!--cluster de.fhro.inf.prg3.a04.collections--><polygon fill="#FFFFFF" filter="url(#f150wfd0z3h4fg)" points="22,160,247,160,254,182.4883,641,182.4883,641,589,22,589,22,160" style="stroke: #000000; stroke-width: 2.0;"/><line style="stroke: #000000; stroke-width: 2.0;" x1="22" x2="254" y1="182.4883" y2="182.4883"/><text fill="#000000" font-family="sans-serif" font-size="14" font-weight="bold" lengthAdjust="spacingAndGlyphs" textLength="219" x="26" y="175.5352">de.fhro.inf.prg3.a04.collections</text><!--class Iterable--><rect fill="#FEFECE" filter="url(#f150wfd0z3h4fg)" height="60.9551" id="Iterable" style="stroke: #A80036; stroke-width: 1.5;" width="142" x="223" y="49.5"/><ellipse cx="262.3" cy="65.5" fill="#B4A7E5" rx="11" ry="11" style="stroke: #A80036; stroke-width: 1.0;"/><path d="M258.2277,61.2651 L258.2277,59.1069 L265.6071,59.1069 L265.6071,61.2651 L263.1418,61.2651 L263.1418,69.3418 L265.6071,69.3418 L265.6071,71.5 L258.2277,71.5 L258.2277,69.3418 L260.6931,69.3418 L260.6931,61.2651 Z "/><text fill="#000000" font-family="sans-serif" font-size="12" font-style="italic" lengthAdjust="spacingAndGlyphs" textLength="44" x="281.7" y="70.0352">Iterable</text><rect fill="#FFFFFF" height="16.1328" style="stroke: #000000; stroke-width: 1.0; stroke-dasharray: 2.0,2.0;" width="10" x="358" y="46.5"/><text fill="#000000" font-family="sans-serif" font-size="12" font-style="italic" lengthAdjust="spacingAndGlyphs" textLength="8" x="359" y="59.1016">T</text><line style="stroke: #A80036; stroke-width: 1.5;" x1="224" x2="364" y1="81.5" y2="81.5"/><line style="stroke: #A80036; stroke-width: 1.5;" x1="224" x2="364" y1="89.5" y2="89.5"/><ellipse cx="234" cy="101.4775" fill="#84BE84" rx="3" ry="3" style="stroke: #038048; stroke-width: 1.0;"/><text fill="#000000" font-family="sans-serif" font-size="11" lengthAdjust="spacingAndGlyphs" textLength="116" x="243" y="104.1348">Iterator&lt;T&gt; iterator()</text><!--class Iterator--><rect fill="#FEFECE" filter="url(#f150wfd0z3h4fg)" height="73.9102" id="Iterator" style="stroke: #A80036; stroke-width: 1.5;" width="124" x="64" y="43"/><ellipse cx="96.1" cy="59" fill="#B4A7E5" rx="11" ry="11" style="stroke: #A80036; stroke-width: 1.0;"/><path d="M92.0277,54.7651 L92.0277,52.6069 L99.4071,52.6069 L99.4071,54.7651 L96.9418,54.7651 L96.9418,62.8418 L99.4071,62.8418 L99.4071,65 L92.0277,65 L92.0277,62.8418 L94.4931,62.8418 L94.4931,54.7651 Z "/><text fill="#000000" font-family="sans-serif" font-size="12" font-style="italic" lengthAdjust="spacingAndGlyphs" textLength="42" x="113.9" y="63.5352">Iterator</text><rect fill="#FFFFFF" height="16.1328" style="stroke: #000000; stroke-width: 1.0; stroke-dasharray: 2.0,2.0;" width="10" x="181" y="40"/><text fill="#000000" font-family="sans-serif" font-size="12" font-style="italic" lengthAdjust="spacingAndGlyphs" textLength="8" x="182" y="52.6016">T</text><line style="stroke: #A80036; stroke-width: 1.5;" x1="65" x2="187" y1="75" y2="75"/><line style="stroke: #A80036; stroke-width: 1.5;" x1="65" x2="187" y1="83" y2="83"/><ellipse cx="75" cy="94.9775" fill="#84BE84" rx="3" ry="3" style="stroke: #038048; stroke-width: 1.0;"/><text fill="#000000" font-family="sans-serif" font-size="11" lengthAdjust="spacingAndGlyphs" textLength="98" x="84" y="97.6348">boolean hasNext()</text><ellipse cx="75" cy="107.9326" fill="#84BE84" rx="3" ry="3" style="stroke: #038048; stroke-width: 1.0;"/><text fill="#000000" font-family="sans-serif" font-size="11" lengthAdjust="spacingAndGlyphs" textLength="42" x="84" y="110.5898">T next()</text><!--class SimpleFilter--><rect fill="#FEFECE" filter="url(#f150wfd0z3h4fg)" height="60.9551" id="SimpleFilter" style="stroke: #A80036; stroke-width: 1.5;" width="158" x="475" y="206.5"/><ellipse cx="511.6" cy="222.5" fill="#B4A7E5" rx="11" ry="11" style="stroke: #A80036; stroke-width: 1.0;"/><path d="M507.5277,218.2651 L507.5277,216.1069 L514.9071,216.1069 L514.9071,218.2651 L512.4418,218.2651 L512.4418,226.3418 L514.9071,226.3418 L514.9071,228.5 L507.5277,228.5 L507.5277,226.3418 L509.9931,226.3418 L509.9931,218.2651 Z "/><text fill="#000000" font-family="sans-serif" font-size="12" font-style="italic" lengthAdjust="spacingAndGlyphs" textLength="66" x="530.4" y="227.0352">SimpleFilter</text><rect fill="#FFFFFF" height="16.1328" style="stroke: #000000; stroke-width: 1.0; stroke-dasharray: 2.0,2.0;" width="10" x="626" y="203.5"/><text fill="#000000" font-family="sans-serif" font-size="12" font-style="italic" lengthAdjust="spacingAndGlyphs" textLength="8" x="627" y="216.1016">T</text><line style="stroke: #A80036; stroke-width: 1.5;" x1="476" x2="632" y1="238.5" y2="238.5"/><line style="stroke: #A80036; stroke-width: 1.5;" x1="476" x2="632" y1="246.5" y2="246.5"/><ellipse cx="486" cy="258.4775" fill="#84BE84" rx="3" ry="3" style="stroke: #038048; stroke-width: 1.0;"/><text fill="#000000" font-family="sans-serif" font-size="11" lengthAdjust="spacingAndGlyphs" textLength="132" x="495" y="261.1348">include(item: T): boolean</text><!--class SimpleList--><rect fill="#FEFECE" filter="url(#f150wfd0z3h4fg)" height="99.8203" id="SimpleList" style="stroke: #A80036; stroke-width: 1.5;" width="237" x="202.5" y="187"/><ellipse cx="282.25" cy="203" fill="#B4A7E5" rx="11" ry="11" style="stroke: #A80036; stroke-width: 1.0;"/><path d="M278.1777,198.7651 L278.1777,196.6069 L285.5571,196.6069 L285.5571,198.7651 L283.0918,198.7651 L283.0918,206.8418 L285.5571,206.8418 L285.5571,209 L278.1777,209 L278.1777,206.8418 L280.6431,206.8418 L280.6431,198.7651 Z "/><text fill="#000000" font-family="sans-serif" font-size="12" font-style="italic" lengthAdjust="spacingAndGlyphs" textLength="57" x="302.75" y="207.5352">SimpleList</text><rect fill="#FFFFFF" height="16.1328" style="stroke: #000000; stroke-width: 1.0; stroke-dasharray: 2.0,2.0;" width="10" x="432.5" y="184"/><text fill="#000000" font-family="sans-serif" font-size="12" font-style="italic" lengthAdjust="spacingAndGlyphs" textLength="8" x="433.5" y="196.6016">T</text><line style="stroke: #A80036; stroke-width: 1.5;" x1="203.5" x2="438.5" y1="219" y2="219"/><line style="stroke: #A80036; stroke-width: 1.5;" x1="203.5" x2="438.5" y1="227" y2="227"/><ellipse cx="213.5" cy="238.9775" fill="#84BE84" rx="3" ry="3" style="stroke: #038048; stroke-width: 1.0;"/><text fill="#000000" font-family="sans-serif" font-size="11" lengthAdjust="spacingAndGlyphs" textLength="64" x="222.5" y="241.6348">add(item: T)</text><ellipse cx="213.5" cy="251.9326" fill="#84BE84" rx="3" ry="3" style="stroke: #038048; stroke-width: 1.0;"/><text fill="#000000" font-family="sans-serif" font-size="11" lengthAdjust="spacingAndGlyphs" textLength="61" x="222.5" y="254.5898">addEmpty()</text><ellipse cx="213.5" cy="264.8877" fill="#84BE84" rx="3" ry="3" style="stroke: #038048; stroke-width: 1.0;"/><text fill="#000000" font-family="sans-serif" font-size="11" lengthAdjust="spacingAndGlyphs" textLength="49" x="222.5" y="267.5449">size(): int</text><ellipse cx="213.5" cy="277.8428" fill="#84BE84" rx="3" ry="3" style="stroke: #038048; stroke-width: 1.0;"/><text fill="#000000" font-family="sans-serif" font-size="11" lengthAdjust="spacingAndGlyphs" textLength="211" x="222.5" y="280.5">filter(filter: SimpleFilter&lt;T&gt;): SimpleList</text><!--class SimpleListImpl--><rect fill="#FEFECE" filter="url(#f150wfd0z3h4fg)" height="60.9551" id="SimpleListImpl" style="stroke: #A80036; stroke-width: 1.5;" width="126" x="258" y="347"/><ellipse cx="273" cy="363" fill="#ADD1B2" rx="11" ry="11" style="stroke: #A80036; stroke-width: 1.0;"/><path d="M275.9731,368.6431 Q275.3921,368.9419 274.7529,369.0913 Q274.1138,369.2407 273.4082,369.2407 Q270.9014,369.2407 269.5815,367.5889 Q268.2617,365.937 268.2617,362.8159 Q268.2617,359.6865 269.5815,358.0347 Q270.9014,356.3828 273.4082,356.3828 Q274.1138,356.3828 274.7612,356.5322 Q275.4087,356.6816 275.9731,356.9805 L275.9731,359.7031 Q275.3423,359.1221 274.7488,358.8523 Q274.1553,358.5825 273.5244,358.5825 Q272.1797,358.5825 271.4949,359.6492 Q270.8101,360.7158 270.8101,362.8159 Q270.8101,364.9077 271.4949,365.9744 Q272.1797,367.041 273.5244,367.041 Q274.1553,367.041 274.7488,366.7712 Q275.3423,366.5015 275.9731,365.9204 Z "/><text fill="#000000" font-family="sans-serif" font-size="12" lengthAdjust="spacingAndGlyphs" textLength="82" x="287" y="367.5352">SimpleListImpl</text><rect fill="#FFFFFF" height="16.1328" style="stroke: #000000; stroke-width: 1.0; stroke-dasharray: 2.0,2.0;" width="10" x="377" y="344"/><text fill="#000000" font-family="sans-serif" font-size="12" font-style="italic" lengthAdjust="spacingAndGlyphs" textLength="8" x="378" y="356.6016">T</text><line style="stroke: #A80036; stroke-width: 1.5;" x1="259" x2="383" y1="379" y2="379"/><rect fill="none" height="6" style="stroke: #C82930; stroke-width: 1.0;" width="6" x="266" y="387.9775"/><text fill="#000000" font-family="sans-serif" font-size="11" lengthAdjust="spacingAndGlyphs" textLength="74" x="278" y="393.6348">head: Element</text><line style="stroke: #A80036; stroke-width: 1.5;" x1="259" x2="383" y1="399.9551" y2="399.9551"/><!--class SimpleIteratorImpl--><rect fill="#FEFECE" filter="url(#f150wfd0z3h4fg)" height="48" id="SimpleIteratorImpl" style="stroke: #A80036; stroke-width: 1.5;" width="137" x="30.5" y="213"/><ellipse cx="45.5" cy="229" fill="#ADD1B2" rx="11" ry="11" style="stroke: #A80036; stroke-width: 1.0;"/><path d="M48.4731,234.6431 Q47.8921,234.9419 47.2529,235.0913 Q46.6138,235.2407 45.9082,235.2407 Q43.4014,235.2407 42.0815,233.5889 Q40.7617,231.937 40.7617,228.8159 Q40.7617,225.6865 42.0815,224.0347 Q43.4014,222.3828 45.9082,222.3828 Q46.6138,222.3828 47.2612,222.5322 Q47.9087,222.6816 48.4731,222.9805 L48.4731,225.7031 Q47.8423,225.1221 47.2488,224.8523 Q46.6553,224.5825 46.0244,224.5825 Q44.6797,224.5825 43.9949,225.6492 Q43.3101,226.7158 43.3101,228.8159 Q43.3101,230.9077 43.9949,231.9744 Q44.6797,233.041 46.0244,233.041 Q46.6553,233.041 47.2488,232.7712 Q47.8423,232.5015 48.4731,231.9204 Z "/><text fill="#000000" font-family="sans-serif" font-size="12" lengthAdjust="spacingAndGlyphs" textLength="105" x="59.5" y="233.5352">SimpleIteratorImpl</text><line style="stroke: #A80036; stroke-width: 1.5;" x1="31.5" x2="166.5" y1="245" y2="245"/><line style="stroke: #A80036; stroke-width: 1.5;" x1="31.5" x2="166.5" y1="253" y2="253"/><!--class Element--><rect fill="#FEFECE" filter="url(#f150wfd0z3h4fg)" height="112.7754" id="Element" style="stroke: #A80036; stroke-width: 1.5;" width="154" x="244" y="468"/><ellipse cx="282.85" cy="484" fill="#ADD1B2" rx="11" ry="11" style="stroke: #A80036; stroke-width: 1.0;"/><path d="M285.8231,489.6431 Q285.2421,489.9419 284.6029,490.0913 Q283.9638,490.2407 283.2582,490.2407 Q280.7514,490.2407 279.4315,488.5889 Q278.1117,486.937 278.1117,483.8159 Q278.1117,480.6865 279.4315,479.0347 Q280.7514,477.3828 283.2582,477.3828 Q283.9638,477.3828 284.6112,477.5322 Q285.2587,477.6816 285.8231,477.9805 L285.8231,480.7031 Q285.1923,480.1221 284.5988,479.8523 Q284.0053,479.5825 283.3744,479.5825 Q282.0297,479.5825 281.3449,480.6492 Q280.6601,481.7158 280.6601,483.8159 Q280.6601,485.9077 281.3449,486.9744 Q282.0297,488.041 283.3744,488.041 Q284.0053,488.041 284.5988,487.7712 Q285.1923,487.5015 285.8231,486.9204 Z "/><rect fill="#F24D5C" height="6" style="stroke: #C82930; stroke-width: 1.0;" width="6" x="304.15" y="480.5"/><text fill="#000000" font-family="sans-serif" font-size="12" lengthAdjust="spacingAndGlyphs" textLength="46" x="313.15" y="488.5352">Element</text><rect fill="#FFFFFF" height="16.1328" style="stroke: #000000; stroke-width: 1.0; stroke-dasharray: 2.0,2.0;" width="10" x="391" y="465"/><text fill="#000000" font-family="sans-serif" font-size="12" font-style="italic" lengthAdjust="spacingAndGlyphs" textLength="8" x="392" y="477.6016">T</text><line style="stroke: #A80036; stroke-width: 1.5;" x1="245" x2="397" y1="500" y2="500"/><rect fill="none" height="6" style="stroke: #C82930; stroke-width: 1.0;" width="6" x="252" y="508.9775"/><text fill="#000000" font-family="sans-serif" font-size="11" lengthAdjust="spacingAndGlyphs" textLength="36" x="264" y="514.6348">item: T</text><rect fill="none" height="6" style="stroke: #C82930; stroke-width: 1.0;" width="6" x="252" y="521.9326"/><text fill="#000000" font-family="sans-serif" font-size="11" lengthAdjust="spacingAndGlyphs" textLength="97" x="264" y="527.5898">next: Element&lt;T&gt;</text><line style="stroke: #A80036; stroke-width: 1.5;" x1="245" x2="397" y1="533.9102" y2="533.9102"/><ellipse cx="255" cy="545.8877" fill="#84BE84" rx="3" ry="3" style="stroke: #038048; stroke-width: 1.0;"/><text fill="#000000" font-family="sans-serif" font-size="11" lengthAdjust="spacingAndGlyphs" textLength="61" x="264" y="548.5449">getItem(): T</text><ellipse cx="255" cy="558.8428" fill="#84BE84" rx="3" ry="3" style="stroke: #038048; stroke-width: 1.0;"/><text fill="#000000" font-family="sans-serif" font-size="11" lengthAdjust="spacingAndGlyphs" textLength="123" x="264" y="561.5">getNext(): Element&lt;T&gt;</text><ellipse cx="255" cy="571.7979" fill="#84BE84" rx="3" ry="3" style="stroke: #038048; stroke-width: 1.0;"/><text fill="#000000" font-family="sans-serif" font-size="11" lengthAdjust="spacingAndGlyphs" textLength="128" x="264" y="574.4551">setNext(e: Element&lt;T&gt;)</text><!--link Iterable to SimpleList--><path d="M302.6907,130.535 C305.798,148.6034 309.2964,168.9456 312.3963,186.971 " fill="none" id="Iterable-SimpleList" style="stroke: #A80036; stroke-width: 1.0;"/><polygon fill="none" points="295.7611,131.541,299.27,110.6439,309.5585,129.1681,295.7611,131.541" style="stroke: #A80036; stroke-width: 1.0;"/><!--link SimpleList to SimpleListImpl--><path d="M321,307.3559 C321,321.1946 321,335.0278 321,346.7074 " fill="none" id="SimpleList-SimpleListImpl" style="stroke: #A80036; stroke-width: 1.0; stroke-dasharray: 7.0,7.0;"/><polygon fill="none" points="314.0001,307.3269,321,287.3269,328.0001,307.3268,314.0001,307.3269" style="stroke: #A80036; stroke-width: 1.0;"/><!--link Iterator to SimpleIteratorImpl--><path d="M116.1754,137.1282 C111.6951,163.1802 106.6302,192.6315 103.1683,212.7619 " fill="none" id="Iterator-SimpleIteratorImpl" style="stroke: #A80036; stroke-width: 1.0; stroke-dasharray: 7.0,7.0;"/><polygon fill="none" points="109.3128,135.731,119.6014,117.2068,123.1103,138.1039,109.3128,135.731" style="stroke: #A80036; stroke-width: 1.0;"/><!--link SimpleListImpl to Element--><path d="M309.0841,423.4163 C308.1922,437.5059 308.0156,453.1773 308.5542,467.8935 " fill="none" id="SimpleListImpl-Element" style="stroke: #A80036; stroke-width: 1.0;"/><ellipse cx="309.703" cy="416.286" fill="#FFFFFF" rx="8" ry="8" style="stroke: #A80036; stroke-width: 1.0;"/><line style="stroke: #A80036; stroke-width: 1.0;" x1="309.0111" x2="310.3949" y1="424.256" y2="408.316"/><line style="stroke: #A80036; stroke-width: 1.0;" x1="301.733" x2="317.673" y1="415.5941" y2="416.9779"/><!--link Element to SimpleListImpl--><path d="M334.1779,467.8935 C334.7727,452.5443 334.5437,436.156 333.4908,421.6072 " fill="none" id="Element-SimpleListImpl" style="stroke: #A80036; stroke-width: 1.0;"/><polygon fill="#A80036" points="332.2289,408.316,328.814,414.6672,333.3632,420.2623,336.7782,413.911,332.2289,408.316" style="stroke: #A80036; stroke-width: 1.0;"/><!--
@startuml
package java.lang {
    
    interface Iterable<T> {
        +Iterator<T> iterator()
    }

    interface Iterator<T> {
        +boolean hasNext()
        +T next()
    }
}

package de.fhro.inf.prg3.a04 {

    package de.fhro.inf.prg3.a04.collections {
        interface SimpleFilter<T> {
            +include(item: T): boolean
        }

        interface SimpleList<T> extends Iterable {
            +add(item: T)
            +addEmpty()
            +size(): int
            +filter(filter: SimpleFilter<T>): SimpleList
        }

        class SimpleListImpl<T> implements SimpleList {
           -head: Element
        }

        class SimpleIteratorImpl implements Iterator {
        }

        -class Element<T> {
            -item: T
            -next: Element<T>
    
            +getItem(): T
            +getNext(): Element<T>
            +setNext(e: Element<T>)
        }

        SimpleListImpl +- - Element
        Element - -* SimpleListImpl
    }
}
@enduml

PlantUML version 1.2017.16(Sun Sep 03 12:53:37 CEST 2017)
(GPL source distribution)
Java Runtime: Java(TM) SE Runtime Environment
JVM: Java HotSpot(TM) 64-Bit Server VM
Java Version: 1.8.0_144-b01
Operating System: Mac OS X
OS Version: 10.12.6
Default Encoding: UTF-8
Language: en
Country: US
--></g></svg>