<?xml version="1.0" encoding="UTF-8" standalone="no"?><svg xmlns="http://www.w3.org/2000/svg" xmlns:xlink="http://www.w3.org/1999/xlink" contentScriptType="application/ecmascript" contentStyleType="text/css" height="618px" preserveAspectRatio="none" style="width:617px;height:618px;" version="1.1" viewBox="0 0 617 618" width="617px" zoomAndPan="magnify"><defs><filter height="300%" id="f3kp80q90g8u5" width="300%" x="-1" y="-1"><feGaussianBlur result="blurOut" stdDeviation="2.0"/><feColorMatrix in="blurOut" result="blurOut2" type="matrix" values="0 0 0 0 0 0 0 0 0 0 0 0 0 0 0 0 0 0 .4 0"/><feOffset dx="4.0" dy="4.0" in="blurOut2" result="blurOut3"/><feBlend in="SourceGraphic" in2="blurOut3" mode="normal"/></filter></defs><g><!--cluster java.lang--><polygon fill="#FFFFFF" filter="url(#f3kp80q90g8u5)" points="30,16,98,16,105,41.0679,342,41.0679,342,132,30,132,30,16" style="stroke: #000000; stroke-width: 1.5;"/><line style="stroke: #000000; stroke-width: 1.5;" x1="30" x2="105" y1="41.0679" y2="41.0679"/><text fill="#000000" font-family="sans-serif" font-size="14" font-weight="bold" lengthAdjust="spacingAndGlyphs" textLength="62" x="34" y="32.9659">java.lang</text><!--cluster de.thro.inf.prg3.a04.collections--><polygon fill="#FFFFFF" filter="url(#f3kp80q90g8u5)" points="14,154,235,154,242,179.0679,595,179.0679,595,606,14,606,14,154" style="stroke: #000000; stroke-width: 1.5;"/><line style="stroke: #000000; stroke-width: 1.5;" x1="14" x2="242" y1="179.0679" y2="179.0679"/><text fill="#000000" font-family="sans-serif" font-size="14" font-weight="bold" lengthAdjust="spacingAndGlyphs" textLength="215" x="18" y="170.9659">de.thro.inf.prg3.a04.collections</text><!--class Iterable--><rect fill="#FEFECE" filter="url(#f3kp80q90g8u5)" height="62.9819" id="Iterable" style="stroke: #A80036; stroke-width: 1.5;" width="137" x="196.5" y="53.5"/><ellipse cx="235.35" cy="69.5" fill="#B4A7E5" rx="11" ry="11" style="stroke: #A80036; stroke-width: 1.0;"/><path d="M237.9125,76 L232.3969,76 L232.3969,74.5313 L233.8656,73.8594 L233.8656,66 L232.3969,65.3281 L232.3969,63.8594 L237.9125,63.8594 L237.9125,65.3281 L236.4438,66 L236.4438,73.8594 L237.9125,74.5313 L237.9125,76 Z "/><text fill="#000000" font-family="sans-serif" font-size="12" font-style="italic" lengthAdjust="spacingAndGlyphs" textLength="42" x="254.65" y="74.156">Iterable</text><rect fill="#FFFFFF" height="18.3441" style="stroke: #000000; stroke-width: 1.0; stroke-dasharray: 2.0,2.0;" width="8" x="328.5" y="50.5"/><text fill="#000000" font-family="sans-serif" font-size="12" font-style="italic" lengthAdjust="spacingAndGlyphs" textLength="6" x="329.5" y="64.3281">T</text><line style="stroke: #A80036; stroke-width: 1.5;" x1="197.5" x2="332.5" y1="85.5" y2="85.5"/><line style="stroke: #A80036; stroke-width: 1.5;" x1="197.5" x2="332.5" y1="93.5" y2="93.5"/><ellipse cx="207.5" cy="106.4909" fill="#84BE84" rx="3" ry="3" style="stroke: #038048; stroke-width: 1.0;"/><text fill="#000000" font-family="sans-serif" font-size="11" lengthAdjust="spacingAndGlyphs" textLength="111" x="216.5" y="109.2589">iterator(): Iterator&lt;T&gt;</text><!--class Iterator--><rect fill="#FEFECE" filter="url(#f3kp80q90g8u5)" height="77.9638" id="Iterator" style="stroke: #A80036; stroke-width: 1.5;" width="123" x="38.5" y="46"/><ellipse cx="71.05" cy="62" fill="#B4A7E5" rx="11" ry="11" style="stroke: #A80036; stroke-width: 1.0;"/><path d="M73.6125,68.5 L68.0969,68.5 L68.0969,67.0313 L69.5656,66.3594 L69.5656,58.5 L68.0969,57.8281 L68.0969,56.3594 L73.6125,56.3594 L73.6125,57.8281 L72.1438,58.5 L72.1438,66.3594 L73.6125,67.0313 L73.6125,68.5 Z "/><text fill="#000000" font-family="sans-serif" font-size="12" font-style="italic" lengthAdjust="spacingAndGlyphs" textLength="42" x="88.95" y="66.656">Iterator</text><rect fill="#FFFFFF" height="18.3441" style="stroke: #000000; stroke-width: 1.0; stroke-dasharray: 2.0,2.0;" width="8" x="156.5" y="43"/><text fill="#000000" font-family="sans-serif" font-size="12" font-style="italic" lengthAdjust="spacingAndGlyphs" textLength="6" x="157.5" y="56.8281">T</text><line style="stroke: #A80036; stroke-width: 1.5;" x1="39.5" x2="160.5" y1="78" y2="78"/><line style="stroke: #A80036; stroke-width: 1.5;" x1="39.5" x2="160.5" y1="86" y2="86"/><ellipse cx="49.5" cy="98.9909" fill="#84BE84" rx="3" ry="3" style="stroke: #038048; stroke-width: 1.0;"/><text fill="#000000" font-family="sans-serif" font-size="11" lengthAdjust="spacingAndGlyphs" textLength="97" x="58.5" y="101.7589">hasNext(): boolean</text><ellipse cx="49.5" cy="113.9728" fill="#84BE84" rx="3" ry="3" style="stroke: #038048; stroke-width: 1.0;"/><text fill="#000000" font-family="sans-serif" font-size="11" lengthAdjust="spacingAndGlyphs" textLength="41" x="58.5" y="116.7408">next(): T</text><!--class SimpleFilter--><rect fill="#FEFECE" filter="url(#f3kp80q90g8u5)" height="62.9819" id="SimpleFilter" style="stroke: #A80036; stroke-width: 1.5;" width="154" x="433" y="206.5"/><ellipse cx="470.05" cy="222.5" fill="#B4A7E5" rx="11" ry="11" style="stroke: #A80036; stroke-width: 1.0;"/><path d="M472.6125,229 L467.0969,229 L467.0969,227.5313 L468.5656,226.8594 L468.5656,219 L467.0969,218.3281 L467.0969,216.8594 L472.6125,216.8594 L472.6125,218.3281 L471.1438,219 L471.1438,226.8594 L472.6125,227.5313 L472.6125,229 Z "/><text fill="#000000" font-family="sans-serif" font-size="12" font-style="italic" lengthAdjust="spacingAndGlyphs" textLength="63" x="488.95" y="227.156">SimpleFilter</text><rect fill="#FFFFFF" height="18.3441" style="stroke: #000000; stroke-width: 1.0; stroke-dasharray: 2.0,2.0;" width="8" x="582" y="203.5"/><text fill="#000000" font-family="sans-serif" font-size="12" font-style="italic" lengthAdjust="spacingAndGlyphs" textLength="6" x="583" y="217.3281">T</text><line style="stroke: #A80036; stroke-width: 1.5;" x1="434" x2="586" y1="238.5" y2="238.5"/><line style="stroke: #A80036; stroke-width: 1.5;" x1="434" x2="586" y1="246.5" y2="246.5"/><ellipse cx="444" cy="259.4909" fill="#84BE84" rx="3" ry="3" style="stroke: #038048; stroke-width: 1.0;"/><text fill="#000000" font-family="sans-serif" font-size="11" lengthAdjust="spacingAndGlyphs" textLength="128" x="453" y="262.2589">include(item: T): boolean</text><!--class SimpleList--><rect fill="#FEFECE" filter="url(#f3kp80q90g8u5)" height="107.9276" id="SimpleList" style="stroke: #A80036; stroke-width: 1.5;" width="227" x="170.5" y="184"/><ellipse cx="247.75" cy="200" fill="#B4A7E5" rx="11" ry="11" style="stroke: #A80036; stroke-width: 1.0;"/><path d="M250.3125,206.5 L244.7969,206.5 L244.7969,205.0313 L246.2656,204.3594 L246.2656,196.5 L244.7969,195.8281 L244.7969,194.3594 L250.3125,194.3594 L250.3125,195.8281 L248.8438,196.5 L248.8438,204.3594 L250.3125,205.0313 L250.3125,206.5 Z "/><text fill="#000000" font-family="sans-serif" font-size="12" font-style="italic" lengthAdjust="spacingAndGlyphs" textLength="54" x="268.25" y="204.656">SimpleList</text><rect fill="#FFFFFF" height="18.3441" style="stroke: #000000; stroke-width: 1.0; stroke-dasharray: 2.0,2.0;" width="8" x="392.5" y="181"/><text fill="#000000" font-family="sans-serif" font-size="12" font-style="italic" lengthAdjust="spacingAndGlyphs" textLength="6" x="393.5" y="194.8281">T</text><line style="stroke: #A80036; stroke-width: 1.5;" x1="171.5" x2="396.5" y1="216" y2="216"/><line style="stroke: #A80036; stroke-width: 1.5;" x1="171.5" x2="396.5" y1="224" y2="224"/><ellipse cx="181.5" cy="236.9909" fill="#84BE84" rx="3" ry="3" style="stroke: #038048; stroke-width: 1.0;"/><text fill="#000000" font-family="sans-serif" font-size="11" lengthAdjust="spacingAndGlyphs" textLength="61" x="190.5" y="239.7589">add(item: T)</text><ellipse cx="181.5" cy="251.9728" fill="#84BE84" rx="3" ry="3" style="stroke: #038048; stroke-width: 1.0;"/><text fill="#000000" font-family="sans-serif" font-size="11" lengthAdjust="spacingAndGlyphs" textLength="64" x="190.5" y="254.7408">addDefault()</text><ellipse cx="181.5" cy="266.9547" fill="#84BE84" rx="3" ry="3" style="stroke: #038048; stroke-width: 1.0;"/><text fill="#000000" font-family="sans-serif" font-size="11" lengthAdjust="spacingAndGlyphs" textLength="45" x="190.5" y="269.7227">size(): int</text><ellipse cx="181.5" cy="281.9366" fill="#84BE84" rx="3" ry="3" style="stroke: #038048; stroke-width: 1.0;"/><text fill="#000000" font-family="sans-serif" font-size="11" lengthAdjust="spacingAndGlyphs" textLength="201" x="190.5" y="284.7046">filter(filter: SimpleFilter&lt;T&gt;): SimpleList</text><!--class SimpleListImpl--><rect fill="#FEFECE" filter="url(#f3kp80q90g8u5)" height="62.9819" id="SimpleListImpl" style="stroke: #A80036; stroke-width: 1.5;" width="124" x="222" y="352"/><ellipse cx="237" cy="368" fill="#ADD1B2" rx="11" ry="11" style="stroke: #A80036; stroke-width: 1.0;"/><path d="M236.6875,364.3281 Q235.2031,364.3281 234.4219,365.4375 Q233.6406,366.5469 233.6406,368.4688 Q233.6406,370.4063 234.3594,371.4688 Q235.0781,372.5313 236.6875,372.5313 Q237.4063,372.5313 238.1563,372.3594 Q238.9063,372.1875 239.7813,371.875 L239.7813,374.0469 Q238.9688,374.3594 238.1875,374.5156 Q237.4063,374.6719 236.4375,374.6719 Q234.5625,374.6719 233.3516,373.8984 Q232.1406,373.125 231.5625,371.7188 Q230.9844,370.3125 230.9844,368.4531 Q230.9844,366.6094 231.6484,365.2031 Q232.3125,363.7969 233.5781,362.9922 Q234.8438,362.1875 236.6875,362.1875 Q237.5781,362.1875 238.4922,362.4219 Q239.4063,362.6563 240.2344,363.0469 L239.4063,365.1406 Q238.7188,364.8125 238.0313,364.5703 Q237.3438,364.3281 236.6875,364.3281 Z "/><text fill="#000000" font-family="sans-serif" font-size="12" lengthAdjust="spacingAndGlyphs" textLength="82" x="251" y="372.656">SimpleListImpl</text><rect fill="#FFFFFF" height="18.3441" style="stroke: #000000; stroke-width: 1.0; stroke-dasharray: 2.0,2.0;" width="8" x="341" y="349"/><text fill="#000000" font-family="sans-serif" font-size="12" font-style="italic" lengthAdjust="spacingAndGlyphs" textLength="6" x="342" y="362.8281">T</text><line style="stroke: #A80036; stroke-width: 1.5;" x1="223" x2="345" y1="384" y2="384"/><rect fill="none" height="6" style="stroke: #C82930; stroke-width: 1.0;" width="6" x="230" y="393.9909"/><text fill="#000000" font-family="sans-serif" font-size="11" lengthAdjust="spacingAndGlyphs" textLength="92" x="242" y="399.7589">head: ListElement</text><line style="stroke: #A80036; stroke-width: 1.5;" x1="223" x2="345" y1="406.9819" y2="406.9819"/><!--class SimpleIterator--><rect fill="#FEFECE" filter="url(#f3kp80q90g8u5)" height="48" id="SimpleIterator" style="stroke: #A80036; stroke-width: 1.5;" width="113" x="22.5" y="214"/><ellipse cx="37.5" cy="230" fill="#ADD1B2" rx="11" ry="11" style="stroke: #A80036; stroke-width: 1.0;"/><path d="M37.1875,226.3281 Q35.7031,226.3281 34.9219,227.4375 Q34.1406,228.5469 34.1406,230.4688 Q34.1406,232.4063 34.8594,233.4688 Q35.5781,234.5313 37.1875,234.5313 Q37.9063,234.5313 38.6563,234.3594 Q39.4063,234.1875 40.2813,233.875 L40.2813,236.0469 Q39.4688,236.3594 38.6875,236.5156 Q37.9063,236.6719 36.9375,236.6719 Q35.0625,236.6719 33.8516,235.8984 Q32.6406,235.125 32.0625,233.7188 Q31.4844,232.3125 31.4844,230.4531 Q31.4844,228.6094 32.1484,227.2031 Q32.8125,225.7969 34.0781,224.9922 Q35.3438,224.1875 37.1875,224.1875 Q38.0781,224.1875 38.9922,224.4219 Q39.9063,224.6563 40.7344,225.0469 L39.9063,227.1406 Q39.2188,226.8125 38.5313,226.5703 Q37.8438,226.3281 37.1875,226.3281 Z "/><text fill="#000000" font-family="sans-serif" font-size="12" lengthAdjust="spacingAndGlyphs" textLength="81" x="51.5" y="234.656">SimpleIterator</text><line style="stroke: #A80036; stroke-width: 1.5;" x1="23.5" x2="134.5" y1="246" y2="246"/><line style="stroke: #A80036; stroke-width: 1.5;" x1="23.5" x2="134.5" y1="254" y2="254"/><!--class ListElement--><rect fill="#FEFECE" filter="url(#f3kp80q90g8u5)" height="122.9094" id="ListElement" style="stroke: #A80036; stroke-width: 1.5;" width="161" x="203.5" y="475"/><ellipse cx="237.85" cy="491" fill="#ADD1B2" rx="11" ry="11" style="stroke: #A80036; stroke-width: 1.0;"/><path d="M237.5375,487.3281 Q236.0531,487.3281 235.2719,488.4375 Q234.4906,489.5469 234.4906,491.4688 Q234.4906,493.4063 235.2094,494.4688 Q235.9281,495.5313 237.5375,495.5313 Q238.2563,495.5313 239.0063,495.3594 Q239.7563,495.1875 240.6313,494.875 L240.6313,497.0469 Q239.8188,497.3594 239.0375,497.5156 Q238.2563,497.6719 237.2875,497.6719 Q235.4125,497.6719 234.2016,496.8984 Q232.9906,496.125 232.4125,494.7188 Q231.8344,493.3125 231.8344,491.4531 Q231.8344,489.6094 232.4984,488.2031 Q233.1625,486.7969 234.4281,485.9922 Q235.6938,485.1875 237.5375,485.1875 Q238.4281,485.1875 239.3422,485.4219 Q240.2563,485.6563 241.0844,486.0469 L240.2563,488.1406 Q239.5688,487.8125 238.8813,487.5703 Q238.1938,487.3281 237.5375,487.3281 Z "/><rect fill="#F24D5C" height="6" style="stroke: #C82930; stroke-width: 1.0;" width="6" x="258.15" y="487.5"/><text fill="#000000" font-family="sans-serif" font-size="12" lengthAdjust="spacingAndGlyphs" textLength="65" x="267.15" y="495.656">ListElement</text><rect fill="#FFFFFF" height="18.3441" style="stroke: #000000; stroke-width: 1.0; stroke-dasharray: 2.0,2.0;" width="8" x="359.5" y="472"/><text fill="#000000" font-family="sans-serif" font-size="12" font-style="italic" lengthAdjust="spacingAndGlyphs" textLength="6" x="360.5" y="485.8281">T</text><line style="stroke: #A80036; stroke-width: 1.5;" x1="204.5" x2="363.5" y1="507" y2="507"/><rect fill="none" height="6" style="stroke: #C82930; stroke-width: 1.0;" width="6" x="211.5" y="516.9909"/><text fill="#000000" font-family="sans-serif" font-size="11" lengthAdjust="spacingAndGlyphs" textLength="35" x="223.5" y="522.7589">item: T</text><rect fill="none" height="6" style="stroke: #C82930; stroke-width: 1.0;" width="6" x="211.5" y="531.9728"/><text fill="#000000" font-family="sans-serif" font-size="11" lengthAdjust="spacingAndGlyphs" textLength="107" x="223.5" y="537.7408">next: ListElement&lt;T&gt;</text><line style="stroke: #A80036; stroke-width: 1.5;" x1="204.5" x2="363.5" y1="544.9638" y2="544.9638"/><ellipse cx="214.5" cy="557.9547" fill="#84BE84" rx="3" ry="3" style="stroke: #038048; stroke-width: 1.0;"/><text fill="#000000" font-family="sans-serif" font-size="11" lengthAdjust="spacingAndGlyphs" textLength="59" x="223.5" y="560.7227">getItem(): T</text><ellipse cx="214.5" cy="572.9366" fill="#84BE84" rx="3" ry="3" style="stroke: #038048; stroke-width: 1.0;"/><text fill="#000000" font-family="sans-serif" font-size="11" lengthAdjust="spacingAndGlyphs" textLength="131" x="223.5" y="575.7046">getNext(): ListElement&lt;T&gt;</text><ellipse cx="214.5" cy="587.9185" fill="#84BE84" rx="3" ry="3" style="stroke: #038048; stroke-width: 1.0;"/><text fill="#000000" font-family="sans-serif" font-size="11" lengthAdjust="spacingAndGlyphs" textLength="135" x="223.5" y="590.6865">setNext(e: ListElement&lt;T&gt;)</text><!--link Iterable to SimpleList--><path d="M271.4029,136.5598 C273.288,151.7403 275.3559,168.392 277.2614,183.7366 " fill="none" id="Iterable-SimpleList" style="stroke: #A80036; stroke-width: 1.0;"/><polygon fill="none" points="264.455,137.4119,268.9368,116.7017,278.3483,135.6866,264.455,137.4119" style="stroke: #A80036; stroke-width: 1.0;"/><!--link SimpleList to SimpleListImpl--><path d="M284,312.3188 C284,326.1885 284,339.982 284,351.6818 " fill="none" id="SimpleList-SimpleListImpl" style="stroke: #A80036; stroke-width: 1.0; stroke-dasharray: 7.0,7.0;"/><polygon fill="none" points="277.0001,312.1789,284,292.1788,291.0001,312.1788,277.0001,312.1789" style="stroke: #A80036; stroke-width: 1.0;"/><!--link Iterator to SimpleIterator--><path d="M91.897,144.0364 C88.5599,168.3494 84.8816,195.1485 82.3101,213.8833 " fill="none" id="Iterator-SimpleIterator" style="stroke: #A80036; stroke-width: 1.0; stroke-dasharray: 7.0,7.0;"/><polygon fill="none" points="84.9918,142.8666,94.6465,124.0042,98.8618,144.7704,84.9918,142.8666" style="stroke: #A80036; stroke-width: 1.0;"/><!--link SimpleListImpl to ListElement--><path d="M272.1473,430.2721 C271.2559,444.3286 271.0287,459.9707 271.4655,474.8357 " fill="none" id="SimpleListImpl-ListElement" style="stroke: #A80036; stroke-width: 1.0;"/><ellipse cx="272.7544" cy="423.1726" fill="#FFFFFF" rx="8" ry="8" style="stroke: #A80036; stroke-width: 1.0;"/><line style="stroke: #A80036; stroke-width: 1.0;" x1="272.0728" x2="273.436" y1="431.1435" y2="415.2017"/><line style="stroke: #A80036; stroke-width: 1.0;" x1="264.7835" x2="280.7253" y1="422.491" y2="423.8542"/><!--link ListElement to SimpleListImpl--><path d="M297.2718,474.8357 C297.7543,459.3314 297.4717,442.9816 296.4242,428.4674 " fill="none" id="ListElement-SimpleListImpl" style="stroke: #A80036; stroke-width: 1.0;"/><polygon fill="#A80036" points="295.1855,415.2017,291.7608,421.5477,296.3014,427.1497,299.7261,420.8037,295.1855,415.2017" style="stroke: #A80036; stroke-width: 1.0;"/><!--
@startuml
package java.lang {
    
    interface Iterable<T> {
        +iterator(): Iterator<T>
    }

    interface Iterator<T> {
        +hasNext(): boolean
        +next(): T
    }
}

package de.thro.inf.prg3.a04.collections {
        interface SimpleFilter<T> {
            +include(item: T): boolean
        }

        interface SimpleList<T> extends Iterable {
            +add(item: T)
            +addDefault()
            +size(): int
            +filter(filter: SimpleFilter<T>): SimpleList
        }

        class SimpleListImpl<T> implements SimpleList {
           -head: ListElement
        }

        class SimpleIterator implements Iterator {
        }

        -class ListElement<T> {
            -item: T
            -next: ListElement<T>
    
            +getItem(): T
            +getNext(): ListElement<T>
            +setNext(e: ListElement<T>)
        }

        SimpleListImpl +- - ListElement
        ListElement - -* SimpleListImpl
    }
@enduml

PlantUML version 1.2018.11(Sat Sep 22 18:43:53 CEST 2018)
(GPL source distribution)
Java Runtime: OpenJDK Runtime Environment
JVM: OpenJDK 64-Bit Server VM
Java Version: 1.8.0_192-b26
Operating System: Linux
OS Version: 4.18.14-arch1-1-ARCH
Default Encoding: UTF-8
Language: en
Country: US
--></g></svg>